EncodeSansCondensed-Bold.ufo
<glyph name="exclam" format="2">
  <advance width="529.1717171717171"/>
  <unicode hex="0021"/>
  <outline>
    <contour>
      <point x="176.0" y="467.6363636363636" type="line"/>
      <point x="355.9797979797979" y="467.6363636363636" type="line"/>
      <point x="421.33333333333326" y="964.4141414141413" type="line"/>
      <point x="421.33333333333326" y="1480.0" type="line"/>
      <point x="107.83838383838385" y="1480.0" type="line"/>
      <point x="107.83838383838385" y="964.4141414141413" type="line"/>
    </contour>
    <contour>
      <point x="264.58585858585855" y="-17.02020202020202" type="curve" smooth="yes"/>
      <point x="376.4040404040404" y="-17.02020202020202"/>
      <point x="455.75757575757575" y="57.52525252525252"/>
      <point x="455.75757575757575" y="167.1313131313131" type="curve" smooth="yes"/>
      <point x="455.75757575757575" y="276.7373737373737"/>
      <point x="379.2121212121212" y="351.8787878787878"/>
      <point x="264.58585858585855" y="351.8787878787878" type="curve" smooth="yes"/>
      <point x="149.95959595959596" y="351.8787878787878"/>
      <point x="73.41414141414143" y="279.5454545454545"/>
      <point x="73.41414141414143" y="167.1313131313131" type="curve" smooth="yes"/>
      <point x="73.41414141414143" y="54.71717171717171"/>
      <point x="152.76767676767676" y="-17.02020202020202"/>
    </contour>
  </outline>
</glyph>
<glyph name="quotedbl" format="2">
  <advance width="807.4141414141413"/>
  <unicode hex="0022"/>
  <outline>
    <contour>
      <point x="118.30303030303031" y="854.909090909091" type="line"/>
      <point x="298.70707070707067" y="854.909090909091" type="line"/>
      <point x="356.61616161616155" y="1616.0" type="line"/>
      <point x="60.393939393939405" y="1616.0" type="line"/>
    </contour>
    <contour>
      <point x="508.70707070707067" y="854.909090909091" type="line"/>
      <point x="689.1111111111111" y="854.909090909091" type="line"/>
      <point x="747.020202020202" y="1616.0" type="line"/>
      <point x="450.7979797979798" y="1616.0" type="line"/>
    </contour>
  </outline>
</glyph>
<glyph name="numbersign" format="2">
  <advance width="1140.4040404040404"/>
  <unicode hex="0023"/>
  <outline>
    <contour>
      <point x="583.060606060606" y="0.0" type="line"/>
      <point x="804.9090909090909" y="0.0" type="line"/>
      <point x="928.9090909090909" y="1480.0" type="line"/>
      <point x="707.060606060606" y="1480.0" type="line"/>
    </contour>
    <contour>
      <point x="90.0" y="413.969696969697" type="line"/>
      <point x="1050.4040404040404" y="413.969696969697" type="line"/>
      <point x="1050.4040404040404" y="634.4141414141413" type="line"/>
      <point x="90.0" y="634.4141414141413" type="line"/>
    </contour>
    <contour>
      <point x="211.4949494949495" y="0.0" type="line"/>
      <point x="433.3434343434343" y="0.0" type="line"/>
      <point x="557.3434343434343" y="1480.0" type="line"/>
      <point x="335.4949494949495" y="1480.0" type="line"/>
    </contour>
    <contour>
      <point x="90.0" y="845.5858585858587" type="line"/>
      <point x="1050.4040404040404" y="845.5858585858587" type="line"/>
      <point x="1050.4040404040404" y="1066.030303030303" type="line"/>
      <point x="90.0" y="1066.030303030303" type="line"/>
    </contour>
  </outline>
</glyph>
<glyph name="dollar" format="2">
  <advance width="995.1717171717171"/>
  <unicode hex="0024"/>
  <outline>
    <contour>
      <point x="414.5454545454545" y="-19.404040404040405" type="curve" smooth="yes"/>
      <point x="764.1515151515151" y="-19.404040404040405"/>
      <point x="960.8686868686868" y="152.88888888888889"/>
      <point x="960.8686868686868" y="432.16161616161617" type="curve" smooth="yes"/>
      <point x="960.8686868686868" y="663.4343434343434"/>
      <point x="827.8080808080808" y="789.0505050505051"/>
      <point x="611.0" y="861.6464646464647" type="curve" smooth="yes"/>
      <point x="511.2626262626262" y="895.090909090909" type="line" smooth="yes"/>
      <point x="373.04040404040404" y="942.6262626262626"/>
      <point x="332.35353535353534" y="987.3131313131313"/>
      <point x="332.35353535353534" y="1074.858585858586" type="curve" smooth="yes"/>
      <point x="332.35353535353534" y="1177.3838383838383"/>
      <point x="403.4242424242424" y="1249.4747474747476"/>
      <point x="625.9797979797979" y="1249.4747474747476" type="curve" smooth="yes"/>
      <point x="708.5757575757575" y="1249.4747474747476"/>
      <point x="805.4242424242424" y="1238.0707070707072"/>
      <point x="887.2121212121212" y="1215.6868686868688" type="curve"/>
      <point x="887.2121212121212" y="1464.8080808080808" type="line"/>
      <point x="807.9797979797979" y="1486.0"/>
      <point x="700.959595959596" y="1499.4040404040404"/>
      <point x="600.4949494949494" y="1499.4040404040404" type="curve" smooth="yes"/>
      <point x="218.0" y="1499.4040404040404"/>
      <point x="34.30303030303031" y="1329.3232323232323"/>
      <point x="34.30303030303031" y="1052.6060606060605" type="curve" smooth="yes"/>
      <point x="34.30303030303031" y="828.1414141414142"/>
      <point x="169.57575757575756" y="698.1010101010102"/>
      <point x="364.34343434343435" y="631.7171717171717" type="curve" smooth="yes"/>
      <point x="464.0808080808081" y="598.2727272727273" type="line" smooth="yes"/>
      <point x="616.7272727272727" y="545.929292929293"/>
      <point x="662.8181818181819" y="498.4343434343434"/>
      <point x="662.8181818181819" y="405.6969696969697" type="curve" smooth="yes"/>
      <point x="662.8181818181819" y="295.0"/>
      <point x="587.959595959596" y="230.52525252525248"/>
      <point x="407.9090909090909" y="230.52525252525248" type="curve" smooth="yes"/>
      <point x="299.65656565656565" y="230.52525252525248"/>
      <point x="178.97979797979798" y="252.14141414141412"/>
      <point x="70.76767676767678" y="285.33333333333326" type="curve"/>
      <point x="70.76767676767678" y="36.21212121212121" type="line"/>
      <point x="174.59595959595958" y="-0.5959595959595962"/>
      <point x="312.2929292929293" y="-19.404040404040405"/>
    </contour>
    <contour>
      <point x="362.6868686868687" y="-240.0" type="line"/>
      <point x="634.4848484848485" y="-240.0" type="line"/>
      <point x="634.4848484848485" y="76.16161616161615" type="line"/>
      <point x="362.6868686868687" y="70.2020202020202" type="line"/>
    </contour>
    <contour>
      <point x="362.6868686868687" y="1437.878787878788" type="line"/>
      <point x="634.4848484848485" y="1437.878787878788" type="line"/>
      <point x="634.4848484848485" y="1720.0" type="line"/>
      <point x="362.6868686868687" y="1720.0" type="line"/>
    </contour>
  </outline>
</glyph>
<glyph name="ampersand" format="2">
  <advance width="1426.3131313131312"/>
  <unicode hex="0026"/>
  <outline>
    <contour>
      <point x="1267.989898989899" y="-20.0" type="line"/>
      <point x="1426.3131313131312" y="205.50505050505046" type="line"/>
      <point x="639.9090909090909" y="813.6767676767677" type="line" smooth="yes"/>
      <point x="538.7878787878788" y="899.1818181818181"/>
      <point x="503.6363636363636" y="960.040404040404"/>
      <point x="503.6363636363636" y="1048.050505050505" type="curve" smooth="yes"/>
      <point x="503.6363636363636" y="1176.7878787878788"/>
      <point x="584.5353535353535" y="1249.4747474747476"/>
      <point x="791.0505050505051" y="1249.4747474747476" type="curve" smooth="yes"/>
      <point x="854.070707070707" y="1249.4747474747476"/>
      <point x="929.1313131313132" y="1241.2626262626263"/>
      <point x="994.7070707070707" y="1226.878787878788" type="curve"/>
      <point x="994.7070707070707" y="1476.0" type="line"/>
      <point x="925.4747474747475" y="1490.0"/>
      <point x="850.8383838383838" y="1499.4040404040404"/>
      <point x="765.5656565656566" y="1499.4040404040404" type="curve" smooth="yes"/>
      <point x="388.0909090909091" y="1499.4040404040404"/>
      <point x="205.5858585858586" y="1329.919191919192"/>
      <point x="205.5858585858586" y="1046.050505050505" type="curve" smooth="yes"/>
      <point x="205.5858585858586" y="884.6868686868687"/>
      <point x="270.1818181818182" y="755.070707070707"/>
      <point x="481.5858585858586" y="588.1717171717172" type="curve" smooth="yes"/>
    </contour>
    <contour>
      <point x="606.6767676767677" y="-18.0" type="curve" smooth="yes"/>
      <point x="972.3232323232323" y="-18.0"/>
      <point x="1207.080808080808" y="192.92929292929293"/>
      <point x="1207.080808080808" y="612.3636363636364" type="curve" smooth="yes"/>
      <point x="1207.080808080808" y="687.9393939393939"/>
      <point x="1197.080808080808" y="779.5151515151515"/>
      <point x="1177.2929292929293" y="862.4949494949494" type="curve"/>
      <point x="936.0" y="862.4949494949494" type="line"/>
      <point x="956.3838383838383" y="779.5151515151515"/>
      <point x="966.979797979798" y="686.5353535353535"/>
      <point x="966.979797979798" y="608.959595959596" type="curve" smooth="yes"/>
      <point x="966.979797979798" y="307.38383838383834"/>
      <point x="827.6161616161617" y="203.84848484848482"/>
      <point x="639.5656565656566" y="203.84848484848482" type="curve" smooth="yes"/>
      <point x="475.76767676767673" y="203.84848484848482"/>
      <point x="379.0808080808081" y="291.8989898989899"/>
      <point x="379.0808080808081" y="440.88888888888886" type="curve" smooth="yes"/>
      <point x="379.0808080808081" y="542.7272727272727"/>
      <point x="419.5959595959596" y="616.3939393939394"/>
      <point x="490.4141414141414" y="670.7373737373738" type="curve"/>
      <point x="339.8787878787879" y="795.5353535353536" type="line"/>
      <point x="193.70707070707073" y="737.6161616161617"/>
      <point x="83.83838383838385" y="597.8282828282828"/>
      <point x="83.83838383838385" y="405.4040404040404" type="curve" smooth="yes"/>
      <point x="83.83838383838385" y="148.0"/>
      <point x="267.8787878787879" y="-18.0"/>
    </contour>
  </outline>
</glyph>
<glyph name="quotesingle" format="2">
  <advance width="417.010101010101"/>
  <unicode hex="0027"/>
  <outline>
    <contour>
      <point x="118.30303030303031" y="854.909090909091" type="line"/>
      <point x="298.70707070707067" y="854.909090909091" type="line"/>
      <point x="356.61616161616155" y="1616.0" type="line"/>
      <point x="60.393939393939405" y="1616.0" type="line"/>
    </contour>
  </outline>
</glyph>
<glyph name="parenleft" format="2">
  <advance width="635.8585858585858"/>
  <unicode hex="0028"/>
  <outline>
    <contour>
      <point x="364.64646464646466" y="-440.0" type="curve"/>
      <point x="655.0808080808081" y="-440.0" type="line"/>
      <point x="477.75757575757575" y="-142.63636363636363"/>
      <point x="390.7777777777777" y="203.95959595959596"/>
      <point x="390.7777777777777" y="588.0" type="curve" smooth="yes"/>
      <point x="390.7777777777777" y="972.040404040404"/>
      <point x="477.75757575757575" y="1318.6363636363637"/>
      <point x="655.0808080808081" y="1616.0" type="curve"/>
      <point x="364.64646464646466" y="1616.0" type="line"/>
      <point x="172.0909090909091" y="1326.8484848484848"/>
      <point x="87.11111111111111" y="980.8484848484849"/>
      <point x="87.11111111111111" y="588.0" type="curve" smooth="yes"/>
      <point x="87.11111111111111" y="195.15151515151516"/>
      <point x="172.0909090909091" y="-150.84848484848484"/>
    </contour>
  </outline>
</glyph>
<glyph name="parenright" format="2">
  <advance width="635.8585858585858"/>
  <unicode hex="0029"/>
  <outline>
    <contour>
      <point x="-19.2222222222222" y="-440.0" type="curve"/>
      <point x="271.2121212121212" y="-440.0" type="line"/>
      <point x="463.76767676767673" y="-150.84848484848484"/>
      <point x="548.7474747474747" y="195.15151515151516"/>
      <point x="548.7474747474747" y="588.0" type="curve" smooth="yes"/>
      <point x="548.7474747474747" y="980.8484848484849"/>
      <point x="463.76767676767673" y="1326.8484848484848"/>
      <point x="271.2121212121212" y="1616.0" type="curve"/>
      <point x="-19.2222222222222" y="1616.0" type="line"/>
      <point x="158.1010101010101" y="1318.6363636363637"/>
      <point x="245.08080808080808" y="972.040404040404"/>
      <point x="245.08080808080808" y="588.0" type="curve" smooth="yes"/>
      <point x="245.08080808080808" y="203.95959595959596"/>
      <point x="158.1010101010101" y="-142.63636363636363"/>
    </contour>
  </outline>
</glyph>
<glyph name="asterisk" format="2">
  <advance width="957.1717171717171"/>
  <unicode hex="002A"/>
  <outline>
    <contour>
      <point x="584.6161616161615" y="1142.3939393939395" type="line"/>
      <point x="784.020202020202" y="1169.3333333333333" type="line"/>
      <point x="927.1717171717171" y="1215.7171717171718" type="line"/>
      <point x="863.6464646464647" y="1410.5050505050506" type="line"/>
      <point x="721.090909090909" y="1362.7171717171718" type="line"/>
      <point x="543.7272727272727" y="1266.4646464646464" type="line"/>
      <point x="580.7878787878788" y="1464.8484848484848" type="line"/>
      <point x="580.7878787878788" y="1616.0" type="line"/>
      <point x="376.3838383838384" y="1616.0" type="line"/>
      <point x="376.3838383838384" y="1464.8484848484848" type="line"/>
      <point x="413.44444444444446" y="1266.4646464646464" type="line"/>
      <point x="236.08080808080808" y="1362.7171717171718" type="line"/>
      <point x="93.52525252525251" y="1410.5050505050506" type="line"/>
      <point x="30.0" y="1215.7171717171718" type="line"/>
      <point x="173.15151515151516" y="1169.3333333333333" type="line"/>
      <point x="372.55555555555554" y="1142.3939393939395" type="line"/>
      <point x="226.51515151515153" y="1004.6464646464647" type="line"/>
      <point x="137.74747474747474" y="882.6868686868687" type="line"/>
      <point x="303.47474747474746" y="761.8484848484849" type="line"/>
      <point x="392.24242424242425" y="883.8080808080808" type="line"/>
      <point x="478.58585858585855" y="1067.6363636363637" type="line"/>
      <point x="564.929292929293" y="883.8080808080808" type="line"/>
      <point x="653.6969696969697" y="761.8484848484849" type="line"/>
      <point x="819.4242424242424" y="882.6868686868687" type="line"/>
      <point x="730.6565656565656" y="1004.6464646464647" type="line"/>
    </contour>
  </outline>
</glyph>
<glyph name="plus" format="2">
  <advance width="1030.040404040404"/>
  <unicode hex="002B"/>
  <outline>
    <contour>
      <point x="395.3737373737374" y="335.8787878787879" type="line"/>
      <point x="634.6666666666666" y="335.8787878787879" type="line"/>
      <point x="634.6666666666666" y="645.1616161616162" type="line"/>
      <point x="932.3737373737374" y="645.1616161616162" type="line"/>
      <point x="932.3737373737374" y="874.8383838383838" type="line"/>
      <point x="634.6666666666666" y="874.8383838383838" type="line"/>
      <point x="634.6666666666666" y="1184.121212121212" type="line"/>
      <point x="395.3737373737374" y="1184.121212121212" type="line"/>
      <point x="395.3737373737374" y="874.8383838383838" type="line"/>
      <point x="97.66666666666669" y="874.8383838383838" type="line"/>
      <point x="97.66666666666669" y="645.1616161616162" type="line"/>
      <point x="395.3737373737374" y="645.1616161616162" type="line"/>
    </contour>
  </outline>
</glyph>
<glyph name="hyphen" format="2">
  <advance width="736.3737373737374"/>
  <unicode hex="002D"/>
  <outline>
    <contour>
      <point x="97.66666666666669" y="447.969696969697" type="line"/>
      <point x="638.7070707070707" y="447.969696969697" type="line"/>
      <point x="638.7070707070707" y="686.070707070707" type="line"/>
      <point x="97.66666666666669" y="686.070707070707" type="line"/>
    </contour>
  </outline>
</glyph>
<glyph name="period" format="2">
  <advance width="489.17171717171715"/>
  <unicode hex="002E"/>
  <outline>
    <contour>
      <point x="244.58585858585857" y="-17.02020202020202" type="curve" smooth="yes"/>
      <point x="356.4040404040404" y="-17.02020202020202"/>
      <point x="435.75757575757575" y="57.52525252525252"/>
      <point x="435.75757575757575" y="171.34343434343432" type="curve" smooth="yes"/>
      <point x="435.75757575757575" y="285.1616161616161"/>
      <point x="359.2121212121212" y="360.30303030303025"/>
      <point x="244.58585858585857" y="360.30303030303025" type="curve" smooth="yes"/>
      <point x="129.95959595959596" y="360.30303030303025"/>
      <point x="53.414141414141426" y="287.96969696969694"/>
      <point x="53.414141414141426" y="171.34343434343432" type="curve" smooth="yes"/>
      <point x="53.414141414141426" y="54.71717171717171"/>
      <point x="132.76767676767676" y="-17.02020202020202"/>
    </contour>
  </outline>
</glyph>
<glyph name="slash" format="2">
  <advance width="649.6666666666666"/>
  <unicode hex="002F"/>
  <outline>
    <contour>
      <point x="0.0" y="-240.0" type="line"/>
      <point x="280.60606060606057" y="-240.0" type="line"/>
      <point x="649.6666666666666" y="1616.0" type="line"/>
      <point x="369.06060606060606" y="1616.0" type="line"/>
    </contour>
  </outline>
</glyph>
<glyph name="zero" format="2">
  <advance width="1165.171717171717"/>
  <unicode hex="0030"/>
  <note>
600
</note>
  <outline>
    <contour>
      <point x="582.5858585858585" y="-19.404040404040405" type="curve" smooth="yes"/>
      <point x="905.5959595959596" y="-19.404040404040405"/>
      <point x="1088.060606060606" y="199.27272727272725"/>
      <point x="1088.060606060606" y="740.0" type="curve" smooth="yes"/>
      <point x="1088.060606060606" y="1280.7272727272727"/>
      <point x="906.1919191919192" y="1499.4040404040404"/>
      <point x="582.5858585858585" y="1499.4040404040404" type="curve" smooth="yes"/>
      <point x="258.979797979798" y="1499.4040404040404"/>
      <point x="77.11111111111111" y="1280.7272727272727"/>
      <point x="77.11111111111111" y="740.0" type="curve" smooth="yes"/>
      <point x="77.11111111111111" y="199.27272727272725"/>
      <point x="259.57575757575756" y="-19.404040404040405"/>
    </contour>
    <contour>
      <point x="582.5858585858585" y="227.71717171717168" type="curve" smooth="yes"/>
      <point x="443.17171717171715" y="227.71717171717168"/>
      <point x="369.5454545454545" y="346.4040404040404"/>
      <point x="369.5454545454545" y="741.1919191919192" type="curve" smooth="yes"/>
      <point x="369.5454545454545" y="1133.5959595959596"/>
      <point x="443.17171717171715" y="1252.2828282828284"/>
      <point x="582.5858585858585" y="1252.2828282828284" type="curve" smooth="yes"/>
      <point x="722.0" y="1252.2828282828284"/>
      <point x="795.6262626262626" y="1133.5959595959596"/>
      <point x="795.6262626262626" y="738.8080808080808" type="curve" smooth="yes"/>
      <point x="795.6262626262626" y="346.4040404040404"/>
      <point x="722.0" y="227.71717171717168"/>
    </contour>
  </outline>
</glyph>
<glyph name="one" format="2">
  <advance width="672.7474747474747"/>
  <unicode hex="0031"/>
  <outline>
    <contour>
      <point x="256.64646464646466" y="0.0" type="line"/>
      <point x="552.10101010101" y="0.0" type="line"/>
      <point x="552.10101010101" y="1485.4040404040404" type="line"/>
      <point x="372.2929292929293" y="1485.4040404040404" type="line"/>
      <point x="11.575757575757578" y="1248.6363636363637" type="line"/>
      <point x="11.575757575757578" y="972.4545454545455" type="line"/>
      <point x="372.2929292929293" y="1209.2222222222222" type="line"/>
      <point x="256.64646464646466" y="1288.6969696969697" type="line"/>
    </contour>
  </outline>
</glyph>
<glyph name="two" format="2">
  <advance width="928.959595959596"/>
  <unicode hex="0032"/>
  <outline>
    <contour>
      <point x="37.95959595959596" y="0.0" type="line"/>
      <point x="884.4040404040404" y="0.0" type="line"/>
      <point x="884.4040404040404" y="259.1616161616161" type="line"/>
      <point x="353.70707070707067" y="259.1616161616161" type="line"/>
      <point x="367.4949494949494" y="186.020202020202" type="line"/>
      <point x="645.2525252525252" y="593.1111111111111" type="line" smooth="yes"/>
      <point x="781.040404040404" y="788.8181818181819"/>
      <point x="823.4242424242424" y="936.0505050505051"/>
      <point x="824.020202020202" y="1074.8181818181818" type="curve" smooth="yes"/>
      <point x="825.2121212121212" y="1378.5555555555557"/>
      <point x="636.4949494949494" y="1499.4040404040404"/>
      <point x="331.4848484848485" y="1499.4040404040404" type="curve" smooth="yes"/>
      <point x="228.25252525252526" y="1499.4040404040404"/>
      <point x="98.38383838383838" y="1479.4040404040404"/>
      <point x="19.151515151515156" y="1448.2121212121212" type="curve"/>
      <point x="19.151515151515156" y="1199.090909090909" type="line"/>
      <point x="100.93939393939394" y="1232.878787878788"/>
      <point x="194.76767676767676" y="1249.4747474747476"/>
      <point x="287.95959595959596" y="1249.4747474747476" type="curve" smooth="yes"/>
      <point x="453.8787878787879" y="1249.4747474747476"/>
      <point x="530.7777777777778" y="1188.111111111111"/>
      <point x="530.7777777777778" y="1050.949494949495" type="curve" smooth="yes"/>
      <point x="530.7777777777778" y="948.0505050505051"/>
      <point x="486.3939393939394" y="836.5151515151515"/>
      <point x="376.4343434343434" y="672.4242424242424" type="curve" smooth="yes"/>
      <point x="37.95959595959596" y="166.36363636363632" type="line"/>
    </contour>
  </outline>
</glyph>
<glyph name="three" format="2">
  <advance width="946.4545454545455"/>
  <unicode hex="0033"/>
  <outline>
    <contour>
      <point x="351.4040404040404" y="-19.404040404040405" type="curve" smooth="yes"/>
      <point x="696.030303030303" y="-19.404040404040405"/>
      <point x="898.5353535353535" y="132.42424242424244"/>
      <point x="898.5353535353535" y="404.4646464646465" type="curve" smooth="yes"/>
      <point x="898.5353535353535" y="604.8080808080808"/>
      <point x="790.1919191919192" y="736.979797979798"/>
      <point x="575.6767676767677" y="771.5757575757576" type="curve"/>
      <point x="575.0808080808081" y="756.5959595959596" type="line"/>
      <point x="753.3838383838383" y="794.979797979798"/>
      <point x="855.3434343434343" y="928.3434343434343"/>
      <point x="855.3434343434343" y="1112.7272727272727" type="curve" smooth="yes"/>
      <point x="855.3434343434343" y="1361.5757575757575"/>
      <point x="688.4545454545455" y="1499.4040404040404"/>
      <point x="368.4646464646465" y="1499.4040404040404" type="curve" smooth="yes"/>
      <point x="258.42424242424244" y="1499.4040404040404"/>
      <point x="128.55555555555557" y="1479.4040404040404"/>
      <point x="46.51515151515152" y="1448.2121212121212" type="curve"/>
      <point x="46.51515151515152" y="1214.5353535353536" type="line"/>
      <point x="129.70707070707073" y="1246.919191919192"/>
      <point x="231.95959595959596" y="1264.919191919192"/>
      <point x="329.74747474747477" y="1264.919191919192" type="curve" smooth="yes"/>
      <point x="497.62626262626264" y="1264.919191919192"/>
      <point x="571.929292929293" y="1205.4242424242425"/>
      <point x="571.929292929293" y="1081.030303030303" type="curve" smooth="yes"/>
      <point x="571.929292929293" y="955.2727272727273"/>
      <point x="487.7070707070707" y="876.8383838383838"/>
      <point x="295.14141414141415" y="876.8383838383838" type="curve" smooth="yes"/>
      <point x="162.85858585858585" y="876.8383838383838" type="line"/>
      <point x="162.85858585858585" y="636.7373737373738" type="line"/>
      <point x="323.020202020202" y="636.7373737373738" type="line" smooth="yes"/>
      <point x="530.4343434343434" y="636.7373737373738"/>
      <point x="615.1212121212121" y="559.7070707070707"/>
      <point x="615.1212121212121" y="423.52525252525254" type="curve" smooth="yes"/>
      <point x="615.1212121212121" y="282.95959595959596"/>
      <point x="526.4747474747475" y="215.08080808080805"/>
      <point x="343.7878787878788" y="215.08080808080805" type="curve" smooth="yes"/>
      <point x="250.59595959595958" y="215.08080808080805"/>
      <point x="128.34343434343435" y="230.27272727272725"/>
      <point x="28.939393939393945" y="259.8484848484848" type="curve"/>
      <point x="28.939393939393945" y="26.171717171717173" type="line"/>
      <point x="130.76767676767676" y="-4.212121212121211"/>
      <point x="239.1919191919192" y="-19.404040404040405"/>
    </contour>
  </outline>
</glyph>
<glyph name="four" format="2">
  <advance width="1121.7676767676767"/>
  <unicode hex="0034"/>
  <outline>
    <contour>
      <point x="33.151515151515156" y="315.2020202020202" type="line"/>
      <point x="1093.8080808080808" y="315.2020202020202" type="line"/>
      <point x="1093.8080808080808" y="544.8787878787879" type="line"/>
      <point x="283.50505050505046" y="544.8787878787879" type="line"/>
      <point x="324.18181818181813" y="480.96969696969694" type="line"/>
      <point x="774.3636363636364" y="1480.0" type="line"/>
      <point x="492.5656565656566" y="1480.0" type="line"/>
      <point x="33.151515151515156" y="481.5656565656566" type="line"/>
    </contour>
    <contour>
      <point x="658.7272727272727" y="0.0" type="line"/>
      <point x="921.8888888888889" y="0.0" type="line"/>
      <point x="921.8888888888889" y="980.0" type="line"/>
      <point x="690.979797979798" y="980.0" type="line"/>
      <point x="658.7272727272727" y="544.8787878787879" type="line"/>
    </contour>
  </outline>
</glyph>
<glyph name="five" format="2">
  <advance width="957.6868686868687"/>
  <unicode hex="0035"/>
  <outline>
    <contour>
      <point x="380.2121212121212" y="-19.404040404040405" type="curve" smooth="yes"/>
      <point x="724.2020202020202" y="-19.404040404040405"/>
      <point x="922.5353535353535" y="133.6161616161616"/>
      <point x="922.5353535353535" y="438.7171717171717" type="curve" smooth="yes"/>
      <point x="922.5353535353535" y="725.5656565656566"/>
      <point x="751.1313131313132" y="865.7777777777777"/>
      <point x="371.98989898989896" y="891.3939393939394" type="curve" smooth="yes"/>
      <point x="239.68686868686865" y="899.989898989899" type="line"/>
      <point x="380.1414141414141" y="791.6161616161617" type="line"/>
      <point x="415.7171717171717" y="1370.989898989899" type="line"/>
      <point x="284.030303030303" y="1234.878787878788" type="line"/>
      <point x="867.5555555555555" y="1234.878787878788" type="line"/>
      <point x="867.5555555555555" y="1480.0" type="line"/>
      <point x="143.32323232323233" y="1480.0" type="line"/>
      <point x="97.32323232323233" y="669.7171717171717" type="line"/>
      <point x="229.62626262626264" y="661.1212121212121" type="line" smooth="yes"/>
      <point x="553.070707070707" y="640.3131313131313"/>
      <point x="639.1212121212121" y="571.6262626262626"/>
      <point x="639.1212121212121" y="426.88888888888886" type="curve" smooth="yes"/>
      <point x="639.1212121212121" y="285.3434343434343"/>
      <point x="555.8383838383838" y="215.08080808080805"/>
      <point x="373.19191919191917" y="215.08080808080805" type="curve" smooth="yes"/>
      <point x="278.2121212121212" y="215.08080808080805"/>
      <point x="155.95959595959596" y="232.27272727272725"/>
      <point x="57.151515151515156" y="262.6565656565656" type="curve"/>
      <point x="57.151515151515156" y="28.97979797979798" type="line"/>
      <point x="157.78787878787878" y="-2.8080808080808075"/>
      <point x="267.4040404040404" y="-19.404040404040405"/>
    </contour>
  </outline>
</glyph>
<glyph name="six" format="2">
  <advance width="1099.4242424242425"/>
  <unicode hex="0036"/>
  <outline>
    <contour>
      <point x="597.5656565656566" y="-19.404040404040405" type="curve" smooth="yes"/>
      <point x="865.7676767676768" y="-19.404040404040405"/>
      <point x="1059.2525252525252" y="145.48484848484847"/>
      <point x="1059.2525252525252" y="447.3131313131313" type="curve" smooth="yes"/>
      <point x="1059.2525252525252" y="752.969696969697"/>
      <point x="862.7878787878788" y="886.969696969697"/>
      <point x="638.959595959596" y="886.969696969697" type="curve" smooth="yes"/>
      <point x="509.2121212121212" y="886.969696969697"/>
      <point x="386.4444444444444" y="836.2020202020202"/>
      <point x="323.25252525252523" y="745.4343434343434" type="curve"/>
      <point x="323.25252525252523" y="521.4545454545455" type="line"/>
      <point x="384.02020202020196" y="622.9494949494949"/>
      <point x="485.8989898989899" y="662.3131313131313"/>
      <point x="581.6060606060606" y="662.3131313131313" type="curve" smooth="yes"/>
      <point x="700.6363636363636" y="662.3131313131313"/>
      <point x="789.8787878787879" y="596.010101010101"/>
      <point x="789.8787878787879" y="436.2929292929293" type="curve" smooth="yes"/>
      <point x="789.8787878787879" y="274.3636363636363"/>
      <point x="703.6161616161617" y="208.06060606060603"/>
      <point x="600.969696969697" y="208.06060606060603" type="curve" smooth="yes"/>
      <point x="469.55555555555554" y="208.06060606060603"/>
      <point x="377.9292929292929" y="292.32323232323233"/>
      <point x="377.9292929292929" y="647.070707070707" type="curve" smooth="yes"/>
      <point x="377.9292929292929" y="767.1818181818181" type="line" smooth="yes"/>
      <point x="377.9292929292929" y="1124.4444444444446"/>
      <point x="503.04040404040404" y="1259.3030303030303"/>
      <point x="745.9393939393939" y="1259.3030303030303" type="curve" smooth="yes"/>
      <point x="839.3838383838383" y="1259.3030303030303"/>
      <point x="911.9797979797979" y="1248.111111111111"/>
      <point x="989.4242424242424" y="1222.919191919192" type="curve"/>
      <point x="989.4242424242424" y="1462.2121212121212" type="line"/>
      <point x="921.8080808080808" y="1488.8080808080808"/>
      <point x="828.959595959596" y="1499.4040404040404"/>
      <point x="738.7070707070707" y="1499.4040404040404" type="curve" smooth="yes"/>
      <point x="336.88888888888886" y="1499.4040404040404"/>
      <point x="87.49494949494951" y="1263.7474747474748"/>
      <point x="87.49494949494951" y="698.4242424242424" type="curve" smooth="yes"/>
      <point x="87.49494949494951" y="167.27272727272725"/>
      <point x="298.979797979798" y="-19.404040404040405"/>
    </contour>
  </outline>
</glyph>
<glyph name="seven" format="2">
  <advance width="887.8989898989898"/>
  <unicode hex="0037"/>
  <outline>
    <contour>
      <point x="106.05050505050505" y="0.0" type="line"/>
      <point x="411.9292929292929" y="0.0" type="line"/>
      <point x="831.8989898989898" y="1313.6363636363637" type="line"/>
      <point x="831.8989898989898" y="1480.0" type="line"/>
      <point x="9.404040404040403" y="1480.0" type="line"/>
      <point x="9.404040404040403" y="1220.8383838383838" type="line"/>
      <point x="650.3434343434343" y="1220.8383838383838" type="line"/>
      <point x="547.6767676767677" y="1314.2323232323233" type="line"/>
    </contour>
  </outline>
</glyph>
<glyph name="eight" format="2">
  <advance width="1165.171717171717"/>
  <unicode hex="0038"/>
  <outline>
    <contour>
      <point x="587.5656565656566" y="-19.404040404040405" type="curve" smooth="yes"/>
      <point x="906.7474747474747" y="-19.404040404040405"/>
      <point x="1099.040404040404" y="148.84848484848484"/>
      <point x="1099.040404040404" y="395.9090909090909" type="curve" smooth="yes"/>
      <point x="1099.040404040404" y="614.1212121212121"/>
      <point x="996.6565656565656" y="738.7575757575758"/>
      <point x="669.7676767676768" y="852.4141414141413" type="curve" smooth="yes"/>
      <point x="433.6363636363636" y="934.4141414141413"/>
      <point x="381.50505050505046" y="991.10101010101"/>
      <point x="381.50505050505046" y="1104.5151515151515" type="curve" smooth="yes"/>
      <point x="381.50505050505046" y="1212.6969696969697"/>
      <point x="457.8080808080808" y="1284.5757575757575"/>
      <point x="595.4343434343434" y="1284.5757575757575" type="curve" smooth="yes"/>
      <point x="729.4444444444445" y="1284.5757575757575"/>
      <point x="808.7272727272727" y="1220.1010101010102"/>
      <point x="808.7272727272727" y="1099.919191919192" type="curve" smooth="yes"/>
      <point x="808.7272727272727" y="984.5050505050505"/>
      <point x="754.8080808080808" y="906.969696969697"/>
      <point x="627.7777777777777" y="835.010101010101" type="curve"/>
      <point x="810.10101010101" y="749.4444444444445" type="line"/>
      <point x="990.7373737373737" y="840.0808080808081"/>
      <point x="1062.060606060606" y="973.2727272727273"/>
      <point x="1062.060606060606" y="1120.979797979798" type="curve" smooth="yes"/>
      <point x="1062.060606060606" y="1354.0"/>
      <point x="879.7676767676768" y="1499.4040404040404"/>
      <point x="592.6262626262626" y="1499.4040404040404" type="curve" smooth="yes"/>
      <point x="282.0" y="1499.4040404040404"/>
      <point x="100.30303030303031" y="1339.959595959596"/>
      <point x="100.30303030303031" y="1095.4949494949494" type="curve" smooth="yes"/>
      <point x="100.30303030303031" y="883.4949494949495"/>
      <point x="210.8989898989899" y="738.2222222222223"/>
      <point x="533.4040404040404" y="632.7777777777778" type="curve" smooth="yes"/>
      <point x="759.7070707070707" y="559.2020202020202"/>
      <point x="822.0505050505051" y="501.8787878787879"/>
      <point x="822.0505050505051" y="381.4848484848485" type="curve" smooth="yes"/>
      <point x="822.0505050505051" y="265.30303030303025"/>
      <point x="742.5959595959596" y="195.4242424242424"/>
      <point x="587.5656565656566" y="195.4242424242424" type="curve" smooth="yes"/>
      <point x="423.8080808080808" y="195.4242424242424"/>
      <point x="341.7171717171717" y="269.30303030303025"/>
      <point x="341.7171717171717" y="398.2929292929293" type="curve" smooth="yes"/>
      <point x="341.7171717171717" y="511.0707070707071"/>
      <point x="411.5959595959596" y="617.5858585858587"/>
      <point x="543.2626262626262" y="665.1616161616162" type="curve"/>
      <point x="353.7070707070707" y="751.9191919191919" type="line"/>
      <point x="165.2828282828283" y="678.0909090909091"/>
      <point x="64.72727272727273" y="539.7474747474747"/>
      <point x="64.72727272727273" y="374.42424242424244" type="curve" smooth="yes"/>
      <point x="64.72727272727273" y="140.84848484848484"/>
      <point x="244.3838383838384" y="-19.404040404040405"/>
    </contour>
  </outline>
</glyph>
<glyph name="nine" format="2">
  <advance width="1099.4242424242425"/>
  <unicode hex="0039"/>
  <outline>
    <contour>
      <point x="501.85858585858585" y="1499.4040404040404" type="curve" smooth="yes"/>
      <point x="233.65656565656565" y="1499.4040404040404"/>
      <point x="40.17171717171718" y="1334.5151515151515"/>
      <point x="40.17171717171718" y="1032.6868686868686" type="curve" smooth="yes"/>
      <point x="40.17171717171718" y="727.030303030303"/>
      <point x="236.63636363636363" y="593.030303030303"/>
      <point x="460.4646464646465" y="593.030303030303" type="curve" smooth="yes"/>
      <point x="590.2121212121212" y="593.030303030303"/>
      <point x="712.979797979798" y="643.7979797979798"/>
      <point x="776.1717171717172" y="734.5656565656566" type="curve"/>
      <point x="776.1717171717172" y="958.5454545454545" type="line"/>
      <point x="715.4040404040404" y="857.0505050505051"/>
      <point x="613.5252525252525" y="817.6868686868687"/>
      <point x="517.8181818181818" y="817.6868686868687" type="curve" smooth="yes"/>
      <point x="398.78787878787875" y="817.6868686868687"/>
      <point x="309.5454545454545" y="883.989898989899"/>
      <point x="309.5454545454545" y="1043.7070707070707" type="curve" smooth="yes"/>
      <point x="309.5454545454545" y="1205.6363636363637"/>
      <point x="395.8080808080808" y="1271.939393939394"/>
      <point x="498.45454545454544" y="1271.939393939394" type="curve" smooth="yes"/>
      <point x="629.8686868686868" y="1271.939393939394"/>
      <point x="721.4949494949495" y="1187.6767676767677"/>
      <point x="721.4949494949495" y="832.929292929293" type="curve" smooth="yes"/>
      <point x="721.4949494949495" y="712.8181818181819" type="line" smooth="yes"/>
      <point x="721.4949494949495" y="355.55555555555554"/>
      <point x="596.3838383838383" y="220.69696969696966"/>
      <point x="353.4848484848485" y="220.69696969696966" type="curve" smooth="yes"/>
      <point x="260.04040404040404" y="220.69696969696966"/>
      <point x="187.44444444444443" y="231.88888888888886"/>
      <point x="110.0" y="257.0808080808081" type="curve"/>
      <point x="110.0" y="17.78787878787879" type="line"/>
      <point x="177.6161616161616" y="-8.808080808080808"/>
      <point x="270.4646464646465" y="-19.404040404040405"/>
      <point x="360.7171717171717" y="-19.404040404040405" type="curve" smooth="yes"/>
      <point x="762.5353535353535" y="-19.404040404040405"/>
      <point x="1011.9292929292928" y="216.25252525252526"/>
      <point x="1011.9292929292928" y="781.5757575757576" type="curve" smooth="yes"/>
      <point x="1011.9292929292928" y="1312.7272727272727"/>
      <point x="800.4444444444443" y="1499.4040404040404"/>
    </contour>
  </outline>
</glyph>
<glyph name="colon" format="2">
  <advance width="489.17171717171715"/>
  <unicode hex="003A"/>
  <outline>
    <contour>
      <point x="244.58585858585857" y="-17.02020202020202" type="curve" smooth="yes"/>
      <point x="356.4040404040404" y="-17.02020202020202"/>
      <point x="435.75757575757575" y="57.52525252525252"/>
      <point x="435.75757575757575" y="171.34343434343432" type="curve" smooth="yes"/>
      <point x="435.75757575757575" y="285.1616161616161"/>
      <point x="359.2121212121212" y="360.30303030303025"/>
      <point x="244.58585858585857" y="360.30303030303025" type="curve" smooth="yes"/>
      <point x="129.95959595959596" y="360.30303030303025"/>
      <point x="53.414141414141426" y="287.96969696969694"/>
      <point x="53.414141414141426" y="171.34343434343432" type="curve" smooth="yes"/>
      <point x="53.414141414141426" y="54.71717171717171"/>
      <point x="132.76767676767676" y="-17.02020202020202"/>
    </contour>
    <contour>
      <point x="244.58585858585857" y="733.7373737373738" type="curve" smooth="yes"/>
      <point x="356.4040404040404" y="733.7373737373738"/>
      <point x="435.75757575757575" y="808.2828282828283"/>
      <point x="435.75757575757575" y="922.1010101010102" type="curve" smooth="yes"/>
      <point x="435.75757575757575" y="1035.919191919192"/>
      <point x="359.2121212121212" y="1111.060606060606"/>
      <point x="244.58585858585857" y="1111.060606060606" type="curve" smooth="yes"/>
      <point x="129.95959595959596" y="1111.060606060606"/>
      <point x="53.414141414141426" y="1038.7272727272727"/>
      <point x="53.414141414141426" y="922.1010101010102" type="curve" smooth="yes"/>
      <point x="53.414141414141426" y="805.4747474747476"/>
      <point x="132.76767676767676" y="733.7373737373738"/>
    </contour>
  </outline>
</glyph>
<glyph name="less" format="2">
  <advance width="1030.040404040404"/>
  <unicode hex="003C"/>
  <outline>
    <contour>
      <point x="932.3737373737374" y="283.8484848484849" type="line"/>
      <point x="932.3737373737374" y="515.9090909090909" type="line"/>
      <point x="268.37373737373736" y="772.0" type="line"/>
      <point x="268.37373737373736" y="748.0" type="line"/>
      <point x="932.3737373737374" y="1004.0909090909091" type="line"/>
      <point x="932.3737373737374" y="1236.151515151515" type="line"/>
      <point x="97.66666666666669" y="903.9393939393939" type="line"/>
      <point x="97.66666666666669" y="616.0606060606061" type="line"/>
    </contour>
  </outline>
</glyph>
<glyph name="equal" format="2">
  <advance width="1030.040404040404"/>
  <unicode hex="003D"/>
  <outline>
    <contour>
      <point x="97.66666666666669" y="860.8585858585859" type="line"/>
      <point x="932.3737373737374" y="860.8585858585859" type="line"/>
      <point x="932.3737373737374" y="1090.5353535353536" type="line"/>
      <point x="97.66666666666669" y="1090.5353535353536" type="line"/>
    </contour>
    <contour>
      <point x="97.66666666666669" y="429.4646464646465" type="line"/>
      <point x="932.3737373737374" y="429.4646464646465" type="line"/>
      <point x="932.3737373737374" y="659.1414141414141" type="line"/>
      <point x="97.66666666666669" y="659.1414141414141" type="line"/>
    </contour>
  </outline>
</glyph>
<glyph name="greater" format="2">
  <advance width="1030.040404040404"/>
  <unicode hex="003E"/>
  <outline>
    <contour>
      <point x="97.66666666666669" y="283.8484848484849" type="line"/>
      <point x="932.3737373737374" y="616.0606060606061" type="line"/>
      <point x="932.3737373737374" y="903.9393939393939" type="line"/>
      <point x="97.66666666666669" y="1236.151515151515" type="line"/>
      <point x="97.66666666666669" y="1004.0909090909091" type="line"/>
      <point x="761.6666666666666" y="748.0" type="line"/>
      <point x="761.6666666666666" y="772.0" type="line"/>
      <point x="97.66666666666669" y="515.9090909090909" type="line"/>
    </contour>
  </outline>
</glyph>
<glyph name="question" format="2">
  <advance width="866.7070707070707"/>
  <unicode hex="003F"/>
  <outline>
    <contour>
      <point x="283.5353535353535" y="462.86868686868684" type="line"/>
      <point x="463.5151515151515" y="462.86868686868684" type="line"/>
      <point x="487.55555555555554" y="692.5959595959596" type="line"/>
      <point x="709.2626262626262" y="770.4747474747475"/>
      <point x="827.7676767676768" y="905.7070707070707"/>
      <point x="827.7676767676768" y="1112.7272727272727" type="curve" smooth="yes"/>
      <point x="827.7676767676768" y="1361.5757575757575"/>
      <point x="660.8787878787879" y="1499.4040404040404"/>
      <point x="340.88888888888886" y="1499.4040404040404" type="curve" smooth="yes"/>
      <point x="230.84848484848484" y="1499.4040404040404"/>
      <point x="100.97979797979798" y="1479.4040404040404"/>
      <point x="18.939393939393945" y="1448.2121212121212" type="curve"/>
      <point x="18.939393939393945" y="1214.5353535353536" type="line"/>
      <point x="102.13131313131314" y="1246.919191919192"/>
      <point x="204.3838383838384" y="1264.919191919192"/>
      <point x="301.57575757575756" y="1264.919191919192" type="curve" smooth="yes"/>
      <point x="470.0505050505051" y="1264.919191919192"/>
      <point x="544.3535353535353" y="1205.4242424242425"/>
      <point x="544.3535353535353" y="1081.030303030303" type="curve" smooth="yes"/>
      <point x="544.3535353535353" y="963.020202020202"/>
      <point x="476.6060606060606" y="889.9494949494949"/>
      <point x="233.62626262626264" y="828.6666666666666" type="curve"/>
    </contour>
    <contour>
      <point x="373.52525252525254" y="-17.02020202020202" type="curve" smooth="yes"/>
      <point x="485.9393939393939" y="-17.02020202020202"/>
      <point x="564.6969696969696" y="58.12121212121211"/>
      <point x="564.6969696969696" y="167.1313131313131" type="curve" smooth="yes"/>
      <point x="564.6969696969696" y="276.7373737373737"/>
      <point x="488.1515151515151" y="351.8787878787878"/>
      <point x="373.52525252525254" y="351.8787878787878" type="curve" smooth="yes"/>
      <point x="258.8989898989899" y="351.8787878787878"/>
      <point x="182.3535353535354" y="279.5454545454545"/>
      <point x="182.3535353535354" y="167.1313131313131" type="curve" smooth="yes"/>
      <point x="182.3535353535354" y="55.31313131313131"/>
      <point x="261.7070707070707" y="-17.02020202020202"/>
    </contour>
  </outline>
</glyph>
<glyph name="at" format="2">
  <advance width="1853.4848484848485"/>
  <unicode hex="0040"/>
  <outline>
    <contour>
      <point x="968.4444444444443" y="-460.0" type="curve" smooth="yes"/>
      <point x="1106.1010101010102" y="-460.0"/>
      <point x="1237.969696969697" y="-440.2121212121212"/>
      <point x="1361.2828282828282" y="-405.4040404040404" type="curve"/>
      <point x="1361.2828282828282" y="-205.42424242424246" type="line"/>
      <point x="1230.6060606060605" y="-242.02020202020205"/>
      <point x="1103.7171717171716" y="-260.61616161616166"/>
      <point x="968.4444444444443" y="-260.61616161616166" type="curve" smooth="yes"/>
      <point x="508.4949494949495" y="-260.61616161616166"/>
      <point x="300.5757575757575" y="-63.84848484848487"/>
      <point x="300.5757575757575" y="521.1919191919192" type="curve" smooth="yes"/>
      <point x="300.5757575757575" y="1103.2525252525252"/>
      <point x="508.4949494949495" y="1298.6161616161617"/>
      <point x="935.2525252525252" y="1298.6161616161617" type="curve" smooth="yes"/>
      <point x="1362.010101010101" y="1298.6161616161617"/>
      <point x="1569.5454545454545" y="1108.8686868686868"/>
      <point x="1570.949494949495" y="572.2525252525253" type="curve" smooth="yes"/>
      <point x="1572.3535353535353" y="260.66666666666663"/>
      <point x="1510.2626262626263" y="186.99999999999997"/>
      <point x="1428.6868686868686" y="186.99999999999997" type="curve" smooth="yes"/>
      <point x="1373.9595959595958" y="186.99999999999997"/>
      <point x="1345.9595959595958" y="222.7474747474747"/>
      <point x="1345.9595959595958" y="302.8787878787879" type="curve" smooth="yes"/>
      <point x="1345.9595959595958" y="672.9494949494949" type="line" smooth="yes"/>
      <point x="1345.9595959595958" y="986.7272727272727"/>
      <point x="1209.7070707070707" y="1097.4040404040404"/>
      <point x="914.6565656565656" y="1097.4040404040404" type="curve" smooth="yes"/>
      <point x="817.0" y="1097.4040404040404"/>
      <point x="696.7474747474747" y="1080.0"/>
      <point x="606.4949494949494" y="1049.1919191919192" type="curve"/>
      <point x="603.6868686868687" y="815.5151515151515" type="line"/>
      <point x="688.070707070707" y="847.5151515151515"/>
      <point x="782.8787878787879" y="862.9191919191919"/>
      <point x="860.7070707070707" y="862.9191919191919" type="curve" smooth="yes"/>
      <point x="1007.0505050505051" y="862.9191919191919"/>
      <point x="1063.141414141414" y="817.5555555555557"/>
      <point x="1063.141414141414" y="686.1818181818182" type="curve" smooth="yes"/>
      <point x="1063.141414141414" y="268.3333333333333" type="line"/>
      <point x="1023.0505050505051" y="216.36363636363632"/>
      <point x="972.6161616161615" y="200.2323232323232"/>
      <point x="928.3535353535353" y="200.2323232323232" type="curve" smooth="yes"/>
      <point x="853.5353535353535" y="200.2323232323232"/>
      <point x="806.4242424242424" y="242.15151515151513"/>
      <point x="806.4242424242424" y="330.16161616161617" type="curve" smooth="yes"/>
      <point x="806.4242424242424" y="416.80808080808083"/>
      <point x="856.3434343434343" y="466.13131313131316"/>
      <point x="958.7373737373737" y="474.8989898989899" type="curve" smooth="yes"/>
      <point x="1140.030303030303" y="490.0505050505051" type="line"/>
      <point x="1100.5454545454545" y="655.7373737373737" type="line"/>
      <point x="925.6363636363636" y="640.5858585858585" type="line" smooth="yes"/>
      <point x="639.0505050505051" y="618.7979797979798"/>
      <point x="521.8181818181818" y="501.9494949494949"/>
      <point x="521.8181818181818" y="294.0808080808081" type="curve" smooth="yes"/>
      <point x="521.8181818181818" y="101.06060606060606"/>
      <point x="646.2424242424242" y="-20.21212121212121"/>
      <point x="826.8787878787879" y="-20.21212121212121" type="curve" smooth="yes"/>
      <point x="932.4545454545455" y="-20.21212121212121"/>
      <point x="1031.050505050505" y="18.767676767676768"/>
      <point x="1075.1818181818182" y="129.02020202020202" type="curve"/>
      <point x="1090.20202020202" y="129.02020202020202" type="line"/>
      <point x="1142.111111111111" y="30.171717171717173"/>
      <point x="1236.020202020202" y="-20.21212121212121"/>
      <point x="1372.7373737373737" y="-20.21212121212121" type="curve" smooth="yes"/>
      <point x="1610.212121212121" y="-20.21212121212121"/>
      <point x="1786.3737373737372" y="141.78787878787878"/>
      <point x="1786.3737373737372" y="579.6565656565657" type="curve" smooth="yes"/>
      <point x="1786.3737373737372" y="1208.8989898989898"/>
      <point x="1475.1919191919192" y="1498.0"/>
      <point x="935.2525252525252" y="1498.0" type="curve" smooth="yes"/>
      <point x="394.7171717171717" y="1498.0"/>
      <point x="67.11111111111111" y="1208.8989898989898"/>
      <point x="67.11111111111111" y="520.0" type="curve" smooth="yes"/>
      <point x="67.11111111111111" y="-171.2828282828283"/>
      <point x="395.9090909090909" y="-460.0"/>
    </contour>
  </outline>
</glyph>
<glyph name="F" format="2">
  <advance width="1022.3232323232323"/>
  <unicode hex="0046"/>
  <outline>
    <contour>
      <point x="110.64646464646466" y="0.0" type="line"/>
      <point x="406.10101010101005" y="0.0" type="line"/>
      <point x="406.10101010101005" y="1223.050505050505" type="line"/>
      <point x="1009.9393939393939" y="1223.050505050505" type="line"/>
      <point x="1009.9393939393939" y="1480.0" type="line"/>
      <point x="110.64646464646466" y="1480.0" type="line"/>
    </contour>
    <contour>
      <point x="323.68686868686865" y="594.6161616161617" type="line"/>
      <point x="914.3232323232323" y="594.6161616161617" type="line"/>
      <point x="914.3232323232323" y="851.5656565656566" type="line"/>
      <point x="323.68686868686865" y="851.5656565656566" type="line"/>
    </contour>
  </outline>
</glyph>
<glyph name="H" format="2">
  <advance width="1322.4949494949494"/>
  <unicode hex="0048"/>
  <anchor x="661.9494949494949" y="0.0" name="bottom"/>
  <anchor x="661.9494949494949" y="1182.121212121212" name="center"/>
  <anchor x="661.9494949494949" y="1520.0" name="top"/>
  <anchor x="30.383838383838384" y="1480.0" name="topleft"/>
  <outline>
    <contour>
      <point x="110.64646464646466" y="0.0" type="line"/>
      <point x="406.10101010101005" y="0.0" type="line"/>
      <point x="406.10101010101005" y="621.2929292929293" type="line"/>
      <point x="916.3939393939394" y="621.2929292929293" type="line"/>
      <point x="916.3939393939394" y="0.0" type="line"/>
      <point x="1211.8484848484848" y="0.0" type="line"/>
      <point x="1211.8484848484848" y="1480.0" type="line"/>
      <point x="916.3939393939394" y="1480.0" type="line"/>
      <point x="916.3939393939394" y="892.2828282828283" type="line"/>
      <point x="406.10101010101005" y="892.2828282828283" type="line"/>
      <point x="406.10101010101005" y="1480.0" type="line"/>
      <point x="110.64646464646466" y="1480.0" type="line"/>
    </contour>
  </outline>
</glyph>
<glyph name="I" format="2">
  <advance width="516.7474747474747"/>
  <unicode hex="0049"/>
  <anchor x="258.37373737373736" y="0.0" name="bottom"/>
  <anchor x="406.10101010101005" y="0.0" name="ogonek"/>
  <anchor x="258.37373737373736" y="1520.0" name="top"/>
  <outline>
    <contour>
      <point x="110.64646464646466" y="0.0" type="line"/>
      <point x="406.10101010101005" y="0.0" type="line"/>
      <point x="406.10101010101005" y="1480.0" type="line"/>
      <point x="110.64646464646466" y="1480.0" type="line"/>
    </contour>
  </outline>
</glyph>
<glyph name="J" format="2">
  <advance width="516.7474747474747"/>
  <unicode hex="004A"/>
  <anchor x="418.02020202020196" y="0.0" name="bottom"/>
  <anchor x="258.37373737373736" y="1520.0" name="top"/>
  <outline>
    <contour>
      <point x="157.7272727272727" y="-347.020202020202" type="line"/>
      <point x="339.67676767676767" y="-133.1919191919192"/>
      <point x="403.7171717171717" y="57.1010101010101"/>
      <point x="406.10101010101005" y="302.3333333333333" type="curve"/>
      <point x="406.10101010101005" y="1480.0" type="line"/>
      <point x="110.64646464646466" y="1480.0" type="line"/>
      <point x="110.64646464646466" y="300.04040404040404" type="line" smooth="yes"/>
      <point x="110.64646464646466" y="80.92929292929293"/>
      <point x="74.68686868686869" y="-52.818181818181834"/>
      <point x="-36.888888888888886" y="-218.94949494949498" type="curve"/>
    </contour>
  </outline>
</glyph>
<glyph name="K" format="2">
  <advance width="1179.0"/>
  <unicode hex="004B"/>
  <anchor x="619.1818181818181" y="0.0" name="bottom"/>
  <anchor x="610.7575757575758" y="1480.0" name="top"/>
  <outline>
    <contour>
      <point x="921.5858585858587" y="0.0" type="line"/>
      <point x="1239.4646464646464" y="0.0" type="line"/>
      <point x="735.9595959595958" y="803.4848484848485" type="line"/>
      <point x="733.151515151515" y="719.1111111111111" type="line"/>
      <point x="1201.6767676767677" y="1480.0" type="line"/>
      <point x="892.8181818181819" y="1480.0" type="line"/>
      <point x="445.52525252525254" y="752.3838383838383" type="line"/>
    </contour>
    <contour>
      <point x="110.64646464646466" y="0.0" type="line"/>
      <point x="406.10101010101005" y="0.0" type="line"/>
      <point x="406.10101010101005" y="1480.0" type="line"/>
      <point x="110.64646464646466" y="1480.0" type="line"/>
    </contour>
    <contour>
      <point x="364.8282828282828" y="621.2929292929293" type="line"/>
      <point x="554.9191919191919" y="621.2929292929293" type="line"/>
      <point x="554.9191919191919" y="891.6868686868687" type="line"/>
      <point x="364.8282828282828" y="891.6868686868687" type="line"/>
    </contour>
  </outline>
</glyph>
<glyph name="M" format="2">
  <advance width="1670.4444444444443"/>
  <unicode hex="004D"/>
  <anchor x="853.4747474747475" y="0.0" name="bottom"/>
  <anchor x="853.4747474747475" y="1480.0" name="top"/>
  <outline>
    <contour>
      <point x="114.64646464646466" y="0.0" type="line"/>
      <point x="389.8484848484848" y="0.0" type="line"/>
      <point x="389.8484848484848" y="1196.7575757575758" type="line"/>
      <point x="325.76767676767673" y="1196.7575757575758" type="line"/>
      <point x="717.1919191919192" y="214.04040404040404" type="line"/>
      <point x="953.2525252525252" y="214.04040404040404" type="line"/>
      <point x="1334.2525252525252" y="1196.7575757575758" type="line"/>
      <point x="1280.5959595959596" y="1196.7575757575758" type="line"/>
      <point x="1280.5959595959596" y="0.0" type="line"/>
      <point x="1555.7979797979797" y="0.0" type="line"/>
      <point x="1555.7979797979797" y="1480.0" type="line"/>
      <point x="1193.3737373737374" y="1480.0" type="line"/>
      <point x="825.4343434343434" y="502.9797979797979" type="line"/>
      <point x="856.030303030303" y="502.9797979797979" type="line"/>
      <point x="477.07070707070704" y="1480.0" type="line"/>
      <point x="114.64646464646466" y="1480.0" type="line"/>
    </contour>
  </outline>
</glyph>
<glyph name="N" format="2">
  <advance width="1340.6666666666667"/>
  <unicode hex="004E"/>
  <anchor x="670.3333333333334" y="0.0" name="bottom"/>
  <anchor x="670.3333333333334" y="1520.0" name="top"/>
  <outline>
    <contour>
      <point x="110.64646464646466" y="0.0" type="line"/>
      <point x="387.25252525252523" y="0.0" type="line"/>
      <point x="387.25252525252523" y="1076.0101010101012" type="line"/>
      <point x="337.0" y="1076.0101010101012" type="line"/>
      <point x="933.5858585858587" y="0.0" type="line"/>
      <point x="1230.020202020202" y="0.0" type="line"/>
      <point x="1230.020202020202" y="1480.0" type="line"/>
      <point x="953.4141414141415" y="1480.0" type="line"/>
      <point x="953.4141414141415" y="403.9898989898989" type="line"/>
      <point x="1003.6666666666666" y="403.9898989898989" type="line"/>
      <point x="407.0808080808081" y="1480.0" type="line"/>
      <point x="110.64646464646466" y="1480.0" type="line"/>
    </contour>
  </outline>
</glyph>
<glyph name="P" format="2">
  <advance width="1169.1313131313132"/>
  <unicode hex="0050"/>
  <outline>
    <contour>
      <point x="110.64646464646466" y="0.0" type="line"/>
      <point x="406.10101010101005" y="0.0" type="line"/>
      <point x="406.10101010101005" y="434.7373737373738" type="line"/>
      <point x="447.25252525252523" y="432.949494949495"/>
      <point x="479.38383838383834" y="430.949494949495"/>
      <point x="524.5353535353535" y="430.949494949495" type="curve" smooth="yes"/>
      <point x="906.5353535353535" y="430.949494949495"/>
      <point x="1109.4242424242425" y="614.3939393939394"/>
      <point x="1109.4242424242425" y="963.2828282828283" type="curve" smooth="yes"/>
      <point x="1109.4242424242425" y="1332.979797979798"/>
      <point x="906.5353535353535" y="1498.2121212121212"/>
      <point x="506.16161616161617" y="1498.2121212121212" type="curve" smooth="yes"/>
      <point x="363.44444444444446" y="1498.2121212121212"/>
      <point x="231.74747474747474" y="1480.5959595959596"/>
      <point x="110.64646464646466" y="1455.3636363636363" type="curve"/>
    </contour>
    <contour>
      <point x="529.1313131313132" y="671.0505050505051" type="curve" smooth="yes"/>
      <point x="482.5757575757575" y="671.0505050505051"/>
      <point x="445.04040404040404" y="673.0505050505051"/>
      <point x="406.10101010101005" y="678.2424242424242" type="curve"/>
      <point x="406.10101010101005" y="1247.7272727272727" type="line"/>
      <point x="445.2121212121212" y="1254.919191919192"/>
      <point x="482.1111111111111" y="1258.111111111111"/>
      <point x="532.8383838383838" y="1258.111111111111" type="curve" smooth="yes"/>
      <point x="728.939393939394" y="1258.111111111111"/>
      <point x="821.2020202020202" y="1169.4242424242425"/>
      <point x="821.2020202020202" y="959.2828282828283" type="curve" smooth="yes"/>
      <point x="821.2020202020202" y="754.5050505050505"/>
      <point x="725.959595959596" y="671.0505050505051"/>
    </contour>
  </outline>
</glyph>
<glyph name="Q" format="2">
  <advance width="1326.8686868686868"/>
  <unicode hex="0051"/>
  <outline>
    <contour>
      <point x="1180.8282828282827" y="-302.1515151515151" type="curve"/>
      <point x="1236.3535353535353" y="-59.242424242424256" type="line"/>
      <point x="1062.9898989898988" y="-37.030303030303045"/>
      <point x="883.2828282828282" y="5.181818181818166"/>
      <point x="661.8888888888889" y="97.8181818181818" type="curve"/>
      <point x="577.989898989899" y="21.484848484848477" type="line"/>
      <point x="1017.3838383838383" y="-41.747474747474755"/>
      <point x="1259.7575757575758" y="217.44444444444443"/>
      <point x="1259.7575757575758" y="740.0" type="curve" smooth="yes"/>
      <point x="1259.7575757575758" y="1282.5555555555557"/>
      <point x="1018.4040404040404" y="1499.4040404040404"/>
      <point x="663.4343434343434" y="1499.4040404040404" type="curve" smooth="yes"/>
      <point x="308.4646464646465" y="1499.4040404040404"/>
      <point x="67.11111111111111" y="1282.5555555555557"/>
      <point x="67.11111111111111" y="740.0" type="curve" smooth="yes"/>
      <point x="67.11111111111111" y="161.35353535353534"/>
      <point x="335.06060606060606" y="-153.18181818181816"/>
    </contour>
    <contour>
      <point x="663.4343434343434" y="227.71717171717168" type="curve" smooth="yes"/>
      <point x="481.4242424242424" y="227.71717171717168"/>
      <point x="372.18181818181813" y="352.02020202020196"/>
      <point x="372.18181818181813" y="746.8080808080808" type="curve" smooth="yes"/>
      <point x="372.18181818181813" y="1127.979797979798"/>
      <point x="481.4242424242424" y="1252.2828282828284"/>
      <point x="663.4343434343434" y="1252.2828282828284" type="curve" smooth="yes"/>
      <point x="845.4444444444445" y="1252.2828282828284"/>
      <point x="954.6868686868687" y="1127.979797979798"/>
      <point x="954.6868686868687" y="733.1919191919192" type="curve" smooth="yes"/>
      <point x="954.6868686868687" y="352.02020202020196"/>
      <point x="845.4444444444445" y="227.71717171717168"/>
    </contour>
  </outline>
</glyph>
<glyph name="V" format="2">
  <advance width="1225.7676767676767"/>
  <unicode hex="0056"/>
  <outline>
    <contour>
      <point x="388.2727272727273" y="0.0" type="line"/>
      <point x="837.4949494949494" y="0.0" type="line"/>
      <point x="1235.4242424242425" y="1480.0" type="line"/>
      <point x="952.010101010101" y="1480.0" type="line"/>
      <point x="591.1414141414141" y="117.2222222222222" type="line"/>
      <point x="649.2626262626262" y="117.2222222222222" type="line"/>
      <point x="294.60606060606057" y="1480.0" type="line"/>
      <point x="-9.656565656565654" y="1480.0" type="line"/>
    </contour>
  </outline>
</glyph>
<glyph name="W" format="2">
  <advance width="1951.7171717171716"/>
  <unicode hex="0057"/>
  <anchor x="976.4545454545455" y="0.0" name="bottom"/>
  <anchor x="976.4545454545455" y="1520.0" name="top"/>
  <outline>
    <contour>
      <point x="345.54545454545456" y="0.0" type="line"/>
      <point x="730.1818181818181" y="0.0" type="line"/>
      <point x="1021.7676767676768" y="1268.5353535353536" type="line"/>
      <point x="947.3939393939394" y="1268.5353535353536" type="line"/>
      <point x="1221.5353535353536" y="0.0" type="line"/>
      <point x="1606.171717171717" y="0.0" type="line"/>
      <point x="1932.2222222222222" y="1480.0" type="line"/>
      <point x="1655.020202020202" y="1480.0" type="line"/>
      <point x="1361.2222222222222" y="108.79797979797978" type="line"/>
      <point x="1440.4040404040404" y="108.79797979797978" type="line"/>
      <point x="1148.8181818181818" y="1480.0" type="line"/>
      <point x="823.1515151515151" y="1480.0" type="line"/>
      <point x="517.5252525252525" y="108.79797979797978" type="line"/>
      <point x="602.3232323232323" y="108.79797979797978" type="line"/>
      <point x="317.5454545454545" y="1480.0" type="line"/>
      <point x="19.494949494949502" y="1480.0" type="line"/>
    </contour>
  </outline>
</glyph>
<glyph name="X" format="2">
  <advance width="1226.2323232323233"/>
  <unicode hex="0058"/>
  <outline>
    <contour>
      <point x="925.4949494949495" y="0.0" type="line"/>
      <point x="1246.181818181818" y="0.0" type="line"/>
      <point x="784.3939393939394" y="769.060606060606" type="line"/>
      <point x="612.4141414141413" y="1010.7777777777777" type="line"/>
      <point x="332.60606060606057" y="1480.0" type="line"/>
      <point x="8.303030303030312" y="1480.0" type="line"/>
      <point x="440.4343434343434" y="767.6565656565657" type="line"/>
      <point x="612.4141414141413" y="529.5555555555557" type="line"/>
    </contour>
    <contour>
      <point x="-26.969696969696955" y="0.0" type="line"/>
      <point x="297.33333333333326" y="0.0" type="line"/>
      <point x="612.4141414141413" y="529.5555555555557" type="line"/>
      <point x="784.3939393939394" y="769.060606060606" type="line"/>
      <point x="1210.909090909091" y="1480.0" type="line"/>
      <point x="892.2222222222223" y="1480.0" type="line"/>
      <point x="612.4141414141413" y="1010.7777777777777" type="line"/>
      <point x="440.4343434343434" y="767.6565656565657" type="line"/>
    </contour>
  </outline>
</glyph>
<glyph name="bracketleft" format="2">
  <advance width="635.8585858585858"/>
  <unicode hex="005B"/>
  <outline>
    <contour>
      <point x="130.64646464646466" y="-440.0" type="line"/>
      <point x="668.8383838383838" y="-440.0" type="line"/>
      <point x="668.8383838383838" y="-210.32323232323236" type="line"/>
      <point x="421.88888888888886" y="-210.32323232323236" type="line"/>
      <point x="421.88888888888886" y="1386.3232323232323" type="line"/>
      <point x="668.8383838383838" y="1386.3232323232323" type="line"/>
      <point x="668.8383838383838" y="1616.0" type="line"/>
      <point x="130.64646464646466" y="1616.0" type="line"/>
    </contour>
  </outline>
</glyph>
<glyph name="bracketright" format="2">
  <advance width="635.8585858585858"/>
  <unicode hex="005D"/>
  <outline>
    <contour>
      <point x="-32.97979797979798" y="-440.0" type="line"/>
      <point x="505.2121212121212" y="-440.0" type="line"/>
      <point x="505.2121212121212" y="1616.0" type="line"/>
      <point x="-32.97979797979798" y="1616.0" type="line"/>
      <point x="-32.97979797979798" y="1386.3232323232323" type="line"/>
      <point x="213.969696969697" y="1386.3232323232323" type="line"/>
      <point x="213.969696969697" y="-210.32323232323236" type="line"/>
      <point x="-32.97979797979798" y="-210.32323232323236" type="line"/>
    </contour>
  </outline>
</glyph>
<glyph name="underscore" format="2">
  <advance width="1038.5353535353536"/>
  <unicode hex="005F"/>
  <outline>
    <contour>
      <point x="82.97979797979798" y="-229.67676767676764" type="line"/>
      <point x="955.5555555555555" y="-229.67676767676764" type="line"/>
      <point x="955.5555555555555" y="0.0" type="line"/>
      <point x="82.97979797979798" y="0.0" type="line"/>
    </contour>
  </outline>
</glyph>
<glyph name="grave" format="2">
  <advance width="1080.8080808080808"/>
  <unicode hex="0060"/>
  <anchor x="540.4040404040404" y="1200.0" name="_top"/>
  <anchor x="540.4040404040404" y="1626.20202020202" name="top"/>
  <outline>
    <contour>
      <point x="414.1212121212121" y="1233.111111111111" type="line"/>
      <point x="666.6868686868686" y="1233.111111111111" type="line"/>
      <point x="476.5656565656565" y="1616.0" type="line"/>
      <point x="182.72727272727275" y="1616.0" type="line"/>
    </contour>
  </outline>
</glyph>
<glyph name="b" format="2">
  <advance width="1047.3838383838383"/>
  <unicode hex="0062"/>
  <anchor x="531.6060606060606" y="0.0" name="bottom"/>
  <anchor x="243.98989898989896" y="1616.0" name="top"/>
  <outline>
    <contour>
      <point x="447.8181818181818" y="-19.404040404040405" type="curve" smooth="yes"/>
      <point x="821.6767676767677" y="-20.808080808080806"/>
      <point x="993.0808080808081" y="179.27272727272725"/>
      <point x="993.0808080808081" y="564.2121212121212" type="curve" smooth="yes"/>
      <point x="993.0808080808081" y="956.3434343434343"/>
      <point x="824.2727272727273" y="1111.4444444444443"/>
      <point x="632.060606060606" y="1111.4444444444443" type="curve" smooth="yes"/>
      <point x="526.6969696969696" y="1111.4444444444443"/>
      <point x="447.1212121212121" y="1061.8686868686868"/>
      <point x="403.33333333333326" y="985.020202020202" type="curve"/>
      <point x="388.9090909090909" y="985.020202020202" type="line"/>
      <point x="388.9090909090909" y="1616.0" type="line"/>
      <point x="97.66666666666669" y="1616.0" type="line"/>
      <point x="97.66666666666669" y="37.656565656565654" type="line"/>
      <point x="198.3838383838384" y="0.21212121212121104"/>
      <point x="331.1010101010101" y="-19.404040404040405"/>
    </contour>
    <contour>
      <point x="470.2828282828283" y="205.25252525252523" type="curve" smooth="yes"/>
      <point x="442.95959595959596" y="205.25252525252523"/>
      <point x="412.060606060606" y="209.6363636363636"/>
      <point x="388.9090909090909" y="216.020202020202" type="curve"/>
      <point x="388.9090909090909" y="809.4141414141415" type="line"/>
      <point x="417.04040404040404" y="845.4242424242425"/>
      <point x="464.8787878787879" y="864.3232323232323"/>
      <point x="510.1212121212121" y="864.3232323232323" type="curve" smooth="yes"/>
      <point x="621.7878787878788" y="864.3232323232323"/>
      <point x="695.030303030303" y="805.8080808080808"/>
      <point x="695.030303030303" y="537.959595959596" type="curve" smooth="yes"/>
      <point x="695.030303030303" y="284.2828282828283"/>
      <point x="616.0" y="205.25252525252523"/>
    </contour>
  </outline>
</glyph>
<glyph name="f" format="2">
  <advance width="686.959595959596"/>
  <unicode hex="0066"/>
  <outline>
    <contour>
      <point x="165.87878787878788" y="0.0" type="line"/>
      <point x="452.9090909090909" y="0.0" type="line"/>
      <point x="452.9090909090909" y="1222.2323232323233" type="line" smooth="yes"/>
      <point x="452.9090909090909" y="1345.1313131313132"/>
      <point x="510.060606060606" y="1398.7070707070707"/>
      <point x="647.4646464646464" y="1398.7070707070707" type="curve" smooth="yes"/>
      <point x="680.020202020202" y="1398.7070707070707"/>
      <point x="708.4040404040404" y="1396.111111111111"/>
      <point x="743.3838383838383" y="1390.919191919192" type="curve"/>
      <point x="743.3838383838383" y="1624.5959595959596" type="line"/>
      <point x="700.5757575757575" y="1632.5959595959596"/>
      <point x="648.959595959596" y="1636.0"/>
      <point x="605.1313131313132" y="1636.0" type="curve" smooth="yes"/>
      <point x="311.020202020202" y="1636.0"/>
      <point x="165.87878787878788" y="1479.6262626262626"/>
      <point x="165.87878787878788" y="1204.5757575757575" type="curve" smooth="yes"/>
    </contour>
    <contour>
      <point x="8.0" y="864.3636363636364" type="line"/>
      <point x="703.7676767676768" y="864.3636363636364" type="line"/>
      <point x="703.7676767676768" y="1094.040404040404" type="line"/>
      <point x="8.0" y="1094.040404040404" type="line"/>
    </contour>
  </outline>
</glyph>
<glyph name="g" format="2">
  <advance width="1047.3838383838383"/>
  <unicode hex="0067"/>
  <anchor x="529.3535353535353" y="-440.0" name="bottom"/>
  <anchor x="543.3939393939394" y="1200.0" name="top"/>
  <outline>
    <contour>
      <point x="424.2929292929293" y="-460.0" type="curve" smooth="yes"/>
      <point x="771.3838383838383" y="-460.0"/>
      <point x="949.7171717171717" y="-303.8787878787879"/>
      <point x="949.7171717171717" y="82.95959595959593" type="curve" smooth="yes"/>
      <point x="949.7171717171717" y="1054.3838383838383" type="line"/>
      <point x="850.1919191919192" y="1091.2323232323233"/>
      <point x="716.2828282828283" y="1111.4444444444443"/>
      <point x="600.969696969697" y="1111.4444444444443" type="curve" smooth="yes"/>
      <point x="225.70707070707073" y="1110.040404040404"/>
      <point x="54.30303030303031" y="909.959595959596"/>
      <point x="54.30303030303031" y="526.4242424242424" type="curve" smooth="yes"/>
      <point x="54.30303030303031" y="137.1010101010101"/>
      <point x="232.93939393939394" y="-12.383838383838384"/>
      <point x="415.32323232323233" y="-12.383838383838384" type="curve" smooth="yes"/>
      <point x="520.6868686868687" y="-12.383838383838384"/>
      <point x="600.2626262626263" y="37.19191919191919"/>
      <point x="644.0505050505051" y="114.04040404040404" type="curve"/>
      <point x="658.4747474747475" y="114.04040404040404" type="line"/>
      <point x="658.4747474747475" y="32.626262626262616" type="line" smooth="yes"/>
      <point x="658.4747474747475" y="-161.38383838383842"/>
      <point x="570.7272727272727" y="-228.32323232323236"/>
      <point x="399.020202020202" y="-228.32323232323236" type="curve" smooth="yes"/>
      <point x="310.3838383838384" y="-228.32323232323236"/>
      <point x="220.55555555555557" y="-215.72727272727275"/>
      <point x="128.34343434343435" y="-189.34343434343438" type="curve"/>
      <point x="128.34343434343435" y="-423.020202020202" type="line"/>
      <point x="220.21212121212122" y="-448.2121212121212"/>
      <point x="334.4646464646465" y="-460.0"/>
    </contour>
    <contour>
      <point x="537.2626262626262" y="230.52525252525248" type="curve" smooth="yes"/>
      <point x="421.38383838383834" y="230.52525252525248"/>
      <point x="352.35353535353534" y="290.4444444444444"/>
      <point x="352.35353535353534" y="552.6767676767677" type="curve" smooth="yes"/>
      <point x="352.35353535353534" y="807.7575757575758"/>
      <point x="434.19191919191917" y="886.7878787878788"/>
      <point x="575.6969696969697" y="886.7878787878788" type="curve" smooth="yes"/>
      <point x="603.020202020202" y="886.7878787878788"/>
      <point x="635.3232323232323" y="882.4040404040404"/>
      <point x="658.4747474747475" y="878.0202020202021" type="curve"/>
      <point x="658.4747474747475" y="285.4343434343434" type="line"/>
      <point x="630.3434343434343" y="249.4242424242424"/>
      <point x="582.5050505050505" y="230.52525252525248"/>
    </contour>
  </outline>
</glyph>
<glyph name="h" format="2">
  <advance width="1047.939393939394"/>
  <unicode hex="0068"/>
  <anchor x="527.5656565656566" y="0.0" name="bottom"/>
  <anchor x="527.5656565656566" y="547.020202020202" name="center"/>
  <anchor x="97.66666666666669" y="1351.7878787878788" name="stroke"/>
  <anchor x="527.5656565656566" y="1616.0" name="top"/>
  <outline>
    <contour>
      <point x="97.66666666666669" y="0.0" type="line"/>
      <point x="388.9090909090909" y="0.0" type="line"/>
      <point x="388.9090909090909" y="769.969696969697" type="line"/>
      <point x="426.4040404040404" y="827.3434343434344"/>
      <point x="493.8181818181818" y="851.0909090909091"/>
      <point x="545.10101010101" y="851.0909090909091" type="curve" smooth="yes"/>
      <point x="616.1313131313132" y="851.0909090909091"/>
      <point x="664.8181818181819" y="816.3636363636364"/>
      <point x="664.8181818181819" y="702.3939393939394" type="curve" smooth="yes"/>
      <point x="664.8181818181819" y="0.0" type="line"/>
      <point x="956.060606060606" y="0.0" type="line"/>
      <point x="956.060606060606" y="726.4747474747475" type="line" smooth="yes"/>
      <point x="956.060606060606" y="1012.979797979798"/>
      <point x="822.8282828282828" y="1111.4444444444443"/>
      <point x="664.2323232323232" y="1111.4444444444443" type="curve" smooth="yes"/>
      <point x="543.0" y="1111.4444444444443"/>
      <point x="460.86868686868684" y="1063.2323232323233"/>
      <point x="403.33333333333326" y="978.4646464646464" type="curve"/>
      <point x="388.9090909090909" y="978.4646464646464" type="line"/>
      <point x="388.9090909090909" y="1616.0" type="line"/>
      <point x="97.66666666666669" y="1616.0" type="line"/>
    </contour>
  </outline>
</glyph>
<glyph name="i" format="2">
  <advance width="487.9797979797979"/>
  <unicode hex="0069"/>
  <anchor x="243.98989898989896" y="1200.0" name="_top"/>
  <anchor x="243.98989898989896" y="0.0" name="bottom"/>
  <anchor x="390.3131313131313" y="0.0" name="ogonek"/>
  <anchor x="243.98989898989896" y="1200.0" name="top"/>
  <outline>
    <contour>
      <point x="97.66666666666669" y="0.0" type="line"/>
      <point x="390.3131313131313" y="0.0" type="line"/>
      <point x="390.3131313131313" y="1094.040404040404" type="line"/>
      <point x="97.66666666666669" y="1094.040404040404" type="line"/>
    </contour>
    <contour>
      <point x="243.98989898989896" y="1254.6969696969697" type="curve" smooth="yes"/>
      <point x="368.4444444444444" y="1254.6969696969697"/>
      <point x="426.7373737373737" y="1316.6060606060605"/>
      <point x="426.7373737373737" y="1419.1919191919192" type="curve" smooth="yes"/>
      <point x="426.7373737373737" y="1521.7777777777778"/>
      <point x="368.4444444444444" y="1584.2828282828282"/>
      <point x="243.98989898989896" y="1584.2828282828282" type="curve" smooth="yes"/>
      <point x="119.53535353535354" y="1584.2828282828282"/>
      <point x="61.242424242424256" y="1521.7777777777778"/>
      <point x="61.242424242424256" y="1419.1919191919192" type="curve" smooth="yes"/>
      <point x="61.242424242424256" y="1316.6060606060605"/>
      <point x="119.53535353535354" y="1254.6969696969697"/>
    </contour>
  </outline>
</glyph>
<glyph name="j" format="2">
  <advance width="487.9797979797979"/>
  <unicode hex="006A"/>
  <anchor x="243.98989898989896" y="1200.0" name="_top"/>
  <anchor x="243.98989898989896" y="1200.0" name="top"/>
  <outline>
    <contour>
      <point x="144.7474747474747" y="-471.2323232323232" type="line"/>
      <point x="325.2929292929292" y="-257.4040404040404"/>
      <point x="390.3131313131313" y="-67.11111111111111"/>
      <point x="390.3131313131313" y="190.04040404040404" type="curve" smooth="yes"/>
      <point x="390.3131313131313" y="1094.040404040404" type="line"/>
      <point x="97.66666666666669" y="1094.040404040404" type="line"/>
      <point x="97.66666666666669" y="175.82828282828282" type="line" smooth="yes"/>
      <point x="97.66666666666669" y="-43.28282828282829"/>
      <point x="61.70707070707071" y="-177.03030303030306"/>
      <point x="-49.868686868686865" y="-343.16161616161617" type="curve"/>
    </contour>
    <contour>
      <point x="243.98989898989896" y="1254.6969696969697" type="curve" smooth="yes"/>
      <point x="368.4444444444444" y="1254.6969696969697"/>
      <point x="426.7373737373737" y="1316.6060606060605"/>
      <point x="426.7373737373737" y="1419.1919191919192" type="curve" smooth="yes"/>
      <point x="426.7373737373737" y="1521.7777777777778"/>
      <point x="368.4444444444444" y="1584.2828282828282"/>
      <point x="243.98989898989896" y="1584.2828282828282" type="curve" smooth="yes"/>
      <point x="119.53535353535354" y="1584.2828282828282"/>
      <point x="61.242424242424256" y="1521.7777777777778"/>
      <point x="61.242424242424256" y="1419.1919191919192" type="curve" smooth="yes"/>
      <point x="61.242424242424256" y="1316.6060606060605"/>
      <point x="119.53535353535354" y="1254.6969696969697"/>
    </contour>
  </outline>
</glyph>
<glyph name="l" format="2">
  <advance width="486.5757575757575"/>
  <unicode hex="006C"/>
  <anchor x="243.98989898989896" y="0.0" name="bottom"/>
  <anchor x="474.86868686868684" y="1616.0" name="caronalt"/>
  <anchor x="598.5151515151515" y="794.0" name="periodcentered"/>
  <anchor x="243.98989898989896" y="714.0" name="slash"/>
  <anchor x="243.98989898989896" y="1616.0" name="top"/>
  <outline>
    <contour>
      <point x="97.66666666666669" y="0.0" type="line"/>
      <point x="388.9090909090909" y="0.0" type="line"/>
      <point x="388.9090909090909" y="1616.0" type="line"/>
      <point x="97.66666666666669" y="1616.0" type="line"/>
    </contour>
  </outline>
</glyph>
<glyph name="m" format="2">
  <advance width="1574.9595959595958"/>
  <unicode hex="006D"/>
  <anchor x="792.3737373737374" y="0.0" name="bottom"/>
  <anchor x="792.3737373737374" y="1200.0" name="top"/>
  <outline>
    <contour>
      <point x="97.66666666666669" y="0.0" type="line"/>
      <point x="388.9090909090909" y="0.0" type="line"/>
      <point x="388.9090909090909" y="768.1818181818182" type="line"/>
      <point x="424.4040404040404" y="827.3434343434344"/>
      <point x="488.6262626262626" y="851.6868686868687"/>
      <point x="536.1212121212121" y="851.6868686868687" type="curve" smooth="yes"/>
      <point x="602.1717171717172" y="851.6868686868687"/>
      <point x="648.8585858585859" y="817.7676767676768"/>
      <point x="648.8585858585859" y="708.2222222222223" type="curve" smooth="yes"/>
      <point x="648.8585858585859" y="0.0" type="line"/>
      <point x="934.4848484848485" y="0.0" type="line"/>
      <point x="934.4848484848485" y="740.5151515151515" type="line" smooth="yes"/>
      <point x="934.4848484848485" y="1015.7878787878788"/>
      <point x="805.8484848484848" y="1111.4444444444443"/>
      <point x="648.020202020202" y="1111.4444444444443" type="curve" smooth="yes"/>
      <point x="534.1919191919192" y="1111.4444444444443"/>
      <point x="444.8282828282828" y="1067.4444444444443"/>
      <point x="375.25252525252523" y="977.8686868686868" type="curve"/>
      <point x="361.6363636363636" y="977.8686868686868" type="line"/>
      <point x="340.19191919191917" y="1094.040404040404" type="line"/>
      <point x="97.66666666666669" y="1094.040404040404" type="line"/>
    </contour>
    <contour>
      <point x="1191.8383838383838" y="0.0" type="line"/>
      <point x="1483.080808080808" y="0.0" type="line"/>
      <point x="1483.080808080808" y="723.6666666666666" type="line" smooth="yes"/>
      <point x="1483.080808080808" y="1012.979797979798"/>
      <point x="1347.040404040404" y="1111.4444444444443"/>
      <point x="1173.7676767676767" y="1111.4444444444443" type="curve" smooth="yes"/>
      <point x="1058.5353535353536" y="1111.4444444444443"/>
      <point x="942.3636363636364" y="1057.6161616161617"/>
      <point x="868.020202020202" y="940.5050505050505" type="curve"/>
      <point x="919.8888888888889" y="761.030303030303" type="line"/>
      <point x="958.1919191919192" y="827.3434343434344"/>
      <point x="1027.6060606060605" y="851.6868686868687"/>
      <point x="1075.1010101010102" y="851.6868686868687" type="curve" smooth="yes"/>
      <point x="1141.1515151515152" y="851.6868686868687"/>
      <point x="1191.8383838383838" y="817.7676767676768"/>
      <point x="1191.8383838383838" y="708.2222222222223" type="curve" smooth="yes"/>
    </contour>
  </outline>
</glyph>
<glyph name="n" format="2">
  <advance width="1047.939393939394"/>
  <unicode hex="006E"/>
  <anchor x="10.0" y="1200.0" name="apostrophe"/>
  <anchor x="527.5656565656566" y="0.0" name="bottom"/>
  <anchor x="527.5656565656566" y="1200.0" name="top"/>
  <outline>
    <contour>
      <point x="97.66666666666669" y="0.0" type="line"/>
      <point x="388.9090909090909" y="0.0" type="line"/>
      <point x="388.9090909090909" y="769.969696969697" type="line"/>
      <point x="426.4040404040404" y="827.3434343434344"/>
      <point x="491.010101010101" y="851.6868686868687"/>
      <point x="545.10101010101" y="851.6868686868687" type="curve" smooth="yes"/>
      <point x="616.1313131313132" y="851.6868686868687"/>
      <point x="664.8181818181819" y="817.7676767676768"/>
      <point x="664.8181818181819" y="706.6060606060606" type="curve" smooth="yes"/>
      <point x="664.8181818181819" y="0.0" type="line"/>
      <point x="956.060606060606" y="0.0" type="line"/>
      <point x="956.060606060606" y="728.2626262626263" type="line" smooth="yes"/>
      <point x="956.060606060606" y="1011.5757575757576"/>
      <point x="822.8282828282828" y="1111.4444444444443"/>
      <point x="648.7878787878788" y="1111.4444444444443" type="curve" smooth="yes"/>
      <point x="535.0" y="1111.4444444444443"/>
      <point x="442.2323232323232" y="1065.060606060606"/>
      <point x="375.25252525252523" y="978.4646464646464" type="curve"/>
      <point x="361.6363636363636" y="978.4646464646464" type="line"/>
      <point x="340.19191919191917" y="1094.040404040404" type="line"/>
      <point x="97.66666666666669" y="1094.040404040404" type="line"/>
    </contour>
  </outline>
</glyph>
<glyph name="p" format="2">
  <advance width="1047.3838383838383"/>
  <unicode hex="0070"/>
  <outline>
    <contour>
      <point x="97.66666666666669" y="-440.0" type="line"/>
      <point x="388.9090909090909" y="-440.0" type="line"/>
      <point x="388.9090909090909" y="-16.424242424242422" type="line"/>
      <point x="407.4242424242424" y="-18.21212121212121"/>
      <point x="427.5151515151515" y="-19.404040404040405"/>
      <point x="446.030303030303" y="-19.404040404040405" type="curve" smooth="yes"/>
      <point x="822.2727272727273" y="-19.404040404040405"/>
      <point x="993.0808080808081" y="180.67676767676767"/>
      <point x="993.0808080808081" y="565.6161616161617" type="curve" smooth="yes"/>
      <point x="993.0808080808081" y="957.7474747474747"/>
      <point x="813.040404040404" y="1111.4444444444443"/>
      <point x="612.6161616161615" y="1111.4444444444443" type="curve" smooth="yes"/>
      <point x="500.02020202020196" y="1111.4444444444443"/>
      <point x="420.4444444444444" y="1056.2525252525252"/>
      <point x="378.060606060606" y="974.8080808080808" type="curve"/>
      <point x="364.4444444444444" y="974.8080808080808" type="line"/>
      <point x="344.4040404040404" y="1094.040404040404" type="line"/>
      <point x="97.66666666666669" y="1094.040404040404" type="line"/>
    </contour>
    <contour>
      <point x="469.09090909090907" y="205.25252525252523" type="curve" smooth="yes"/>
      <point x="447.17171717171715" y="205.25252525252523"/>
      <point x="412.060606060606" y="208.4444444444444"/>
      <point x="388.9090909090909" y="212.2323232323232" type="curve"/>
      <point x="388.9090909090909" y="804.010101010101" type="line"/>
      <point x="418.4444444444444" y="844.0202020202021"/>
      <point x="469.09090909090907" y="865.7272727272727"/>
      <point x="517.9494949494949" y="865.7272727272727" type="curve" smooth="yes"/>
      <point x="621.7878787878788" y="865.7272727272727"/>
      <point x="695.030303030303" y="807.2121212121212"/>
      <point x="695.030303030303" y="539.3636363636364" type="curve" smooth="yes"/>
      <point x="695.030303030303" y="284.2828282828283"/>
      <point x="616.0" y="205.25252525252523"/>
    </contour>
  </outline>
</glyph>
<glyph name="q" format="2">
  <advance width="1047.3838383838383"/>
  <unicode hex="0071"/>
  <outline>
    <contour>
      <point x="658.4747474747475" y="-440.0" type="line"/>
      <point x="949.7171717171717" y="-440.0" type="line"/>
      <point x="949.7171717171717" y="1054.3838383838383" type="line"/>
      <point x="850.1919191919192" y="1091.2323232323233"/>
      <point x="716.2828282828283" y="1111.4444444444443"/>
      <point x="599.5656565656566" y="1111.4444444444443" type="curve" smooth="yes"/>
      <point x="225.70707070707073" y="1111.4444444444443"/>
      <point x="54.30303030303031" y="912.7676767676768"/>
      <point x="54.30303030303031" y="527.8282828282828" type="curve" smooth="yes"/>
      <point x="54.30303030303031" y="135.6969696969697"/>
      <point x="223.11111111111111" y="-19.404040404040405"/>
      <point x="415.32323232323233" y="-19.404040404040405" type="curve" smooth="yes"/>
      <point x="520.6868686868687" y="-19.404040404040405"/>
      <point x="600.2626262626263" y="30.171717171717173"/>
      <point x="644.0505050505051" y="107.02020202020202" type="curve"/>
      <point x="658.4747474747475" y="107.02020202020202" type="line"/>
    </contour>
    <contour>
      <point x="537.2626262626262" y="227.71717171717168" type="curve" smooth="yes"/>
      <point x="425.5959595959596" y="227.71717171717168"/>
      <point x="352.35353535353534" y="286.2323232323232"/>
      <point x="352.35353535353534" y="554.0808080808081" type="curve" smooth="yes"/>
      <point x="352.35353535353534" y="807.7575757575758"/>
      <point x="434.19191919191917" y="886.7878787878788"/>
      <point x="575.6969696969697" y="886.7878787878788" type="curve" smooth="yes"/>
      <point x="603.020202020202" y="886.7878787878788"/>
      <point x="635.3232323232323" y="882.4040404040404"/>
      <point x="658.4747474747475" y="878.0202020202021" type="curve"/>
      <point x="658.4747474747475" y="282.6262626262626" type="line"/>
      <point x="630.3434343434343" y="246.61616161616158"/>
      <point x="582.5050505050505" y="227.71717171717168"/>
    </contour>
  </outline>
</glyph>
<glyph name="r" format="2">
  <advance width="714.8282828282828"/>
  <unicode hex="0072"/>
  <anchor x="243.98989898989896" y="0.0" name="bottom"/>
  <anchor x="394.2020202020202" y="1200.0" name="top"/>
  <outline>
    <contour>
      <point x="97.66666666666669" y="0.0" type="line"/>
      <point x="388.9090909090909" y="0.0" type="line"/>
      <point x="388.9090909090909" y="731.1212121212121" type="line"/>
      <point x="432.060606060606" y="797.5555555555557"/>
      <point x="521.9797979797979" y="838.2828282828283"/>
      <point x="612.3232323232323" y="838.2828282828283" type="curve" smooth="yes"/>
      <point x="641.9393939393939" y="838.2828282828283"/>
      <point x="675.0" y="836.8787878787879"/>
      <point x="704.8282828282828" y="830.6666666666667" type="curve"/>
      <point x="704.8282828282828" y="1102.2525252525252" type="line"/>
      <point x="685.8080808080808" y="1105.6565656565656"/>
      <point x="657.9797979797979" y="1109.060606060606"/>
      <point x="631.1717171717171" y="1109.060606060606" type="curve" smooth="yes"/>
      <point x="520.3636363636364" y="1109.060606060606"/>
      <point x="425.5959595959596" y="1062.6767676767677"/>
      <point x="373.8484848484848" y="942.4242424242424" type="curve"/>
      <point x="360.2323232323232" y="942.4242424242424" type="line"/>
      <point x="337.38383838383834" y="1094.040404040404" type="line"/>
      <point x="97.66666666666669" y="1094.040404040404" type="line"/>
    </contour>
  </outline>
</glyph>
<glyph name="t" format="2">
  <advance width="729.5959595959596"/>
  <unicode hex="0074"/>
  <anchor x="431.9090909090909" y="0.0" name="bottom"/>
  <anchor x="580.3232323232323" y="1616.0" name="caronalt"/>
  <anchor x="157.87878787878788" y="592.6060606060606" name="stroke"/>
  <anchor x="304.2020202020202" y="1508.080808080808" name="top"/>
  <anchor x="680.3232323232323" y="1616.0" name="topright"/>
  <outline>
    <contour>
      <point x="529.7777777777777" y="-19.404040404040405" type="curve" smooth="yes"/>
      <point x="590.2424242424242" y="-19.404040404040405"/>
      <point x="657.3030303030303" y="-10.595959595959597"/>
      <point x="705.9393939393939" y="1.616161616161615" type="curve"/>
      <point x="705.9393939393939" y="240.90909090909088" type="line"/>
      <point x="667.3434343434343" y="235.1212121212121"/>
      <point x="635.7676767676768" y="230.52525252525248"/>
      <point x="605.3838383838383" y="230.52525252525248" type="curve" smooth="yes"/>
      <point x="491.8484848484848" y="230.52525252525248"/>
      <point x="449.1212121212121" y="275.0808080808081"/>
      <point x="449.1212121212121" y="416.3636363636363" type="curve" smooth="yes"/>
      <point x="449.1212121212121" y="1480.0" type="line"/>
      <point x="210.8080808080808" y="1480.0" type="line"/>
      <point x="157.87878787878788" y="1094.040404040404" type="line"/>
      <point x="157.87878787878788" y="381.8989898989899" type="line" smooth="yes"/>
      <point x="157.87878787878788" y="94.88888888888889"/>
      <point x="293.57575757575756" y="-19.404040404040405"/>
    </contour>
    <contour>
      <point x="0.0" y="864.3636363636364" type="line"/>
      <point x="699.9797979797979" y="864.3636363636364" type="line"/>
      <point x="699.9797979797979" y="1094.040404040404" type="line"/>
      <point x="0.0" y="1094.040404040404" type="line"/>
    </contour>
  </outline>
</glyph>
<glyph name="v" format="2">
  <advance width="994.1919191919192"/>
  <unicode hex="0076"/>
  <anchor x="497.3939393939394" y="0.0" name="bottom"/>
  <anchor x="497.3939393939394" y="1200.0" name="top"/>
  <outline>
    <contour>
      <point x="307.5858585858586" y="0.0" type="line"/>
      <point x="686.6060606060605" y="0.0" type="line"/>
      <point x="997.6363636363636" y="1094.040404040404" type="line"/>
      <point x="708.2222222222223" y="1094.040404040404" type="line"/>
      <point x="489.6060606060606" y="233.37373737373733" type="line"/>
      <point x="515.8181818181818" y="233.37373737373733" type="line"/>
      <point x="297.20202020202015" y="1094.040404040404" type="line"/>
      <point x="-3.444444444444441" y="1094.040404040404" type="line"/>
    </contour>
  </outline>
</glyph>
<glyph name="x" format="2">
  <advance width="972.7373737373737"/>
  <unicode hex="0078"/>
  <anchor x="486.66666666666663" y="0.0" name="bottom"/>
  <anchor x="488.07070707070704" y="1200.0" name="top"/>
  <outline>
    <contour>
      <point x="679.3636363636364" y="0.0" type="line"/>
      <point x="995.2424242424242" y="0.0" type="line"/>
      <point x="659.4545454545454" y="554.4242424242424" type="line"/>
      <point x="489.47474747474746" y="773.0808080808081" type="line"/>
      <point x="302.18181818181813" y="1094.040404040404" type="line"/>
      <point x="-13.696969696969688" y="1094.040404040404" type="line"/>
      <point x="311.8787878787879" y="551.020202020202" type="line"/>
      <point x="484.66666666666663" y="335.7676767676768" type="line"/>
    </contour>
    <contour>
      <point x="-19.101010101010097" y="0.0" type="line"/>
      <point x="287.75757575757575" y="0.0" type="line"/>
      <point x="484.66666666666663" y="335.7676767676768" type="line"/>
      <point x="659.4545454545454" y="554.4242424242424" type="line"/>
      <point x="983.6262626262626" y="1094.040404040404" type="line"/>
      <point x="676.7676767676768" y="1094.040404040404" type="line"/>
      <point x="489.47474747474746" y="773.0808080808081" type="line"/>
      <point x="311.8787878787879" y="551.020202020202" type="line"/>
    </contour>
  </outline>
</glyph>
<glyph name="y" format="2">
  <advance width="994.1919191919192"/>
  <unicode hex="0079"/>
  <anchor x="859.2424242424242" y="0.0" name="bottom"/>
  <anchor x="497.3939393939394" y="1200.0" name="top"/>
  <outline>
    <contour>
      <point x="275.06060606060606" y="-440.0" type="line"/>
      <point x="560.4747474747475" y="-440.0" type="line"/>
      <point x="997.6363636363636" y="1094.040404040404" type="line"/>
      <point x="708.2222222222223" y="1094.040404040404" type="line"/>
      <point x="489.6060606060606" y="233.37373737373733" type="line"/>
      <point x="401.7878787878788" y="0.0" type="line"/>
    </contour>
    <contour>
      <point x="307.5858585858586" y="0.0" type="line"/>
      <point x="565.7272727272727" y="0.0" type="line"/>
      <point x="297.20202020202015" y="1094.040404040404" type="line"/>
      <point x="-3.444444444444441" y="1094.040404040404" type="line"/>
    </contour>
  </outline>
</glyph>
<glyph name="braceleft" format="2">
  <advance width="675.8585858585858"/>
  <unicode hex="007B"/>
  <outline>
    <contour>
      <point x="546.7171717171717" y="-460.0" type="curve" smooth="yes"/>
      <point x="608.969696969697" y="-460.0"/>
      <point x="663.3939393939394" y="-454.5959595959596"/>
      <point x="708.8383838383838" y="-447.19191919191917" type="curve"/>
      <point x="708.8383838383838" y="-225.51515151515156" type="line"/>
      <point x="593.2626262626262" y="-225.51515151515156" type="line" smooth="yes"/>
      <point x="506.02020202020196" y="-225.51515151515156"/>
      <point x="461.88888888888886" y="-187.00000000000003"/>
      <point x="461.88888888888886" y="-103.96969696969698" type="curve" smooth="yes"/>
      <point x="461.88888888888886" y="370.47474747474746" type="line" smooth="yes"/>
      <point x="461.88888888888886" y="542.6363636363636"/>
      <point x="380.78787878787875" y="639.9090909090909"/>
      <point x="156.21212121212122" y="647.6565656565657" type="curve"/>
      <point x="156.21212121212122" y="610.3838383838383" type="line"/>
      <point x="380.78787878787875" y="618.1313131313132"/>
      <point x="461.88888888888886" y="715.4040404040404"/>
      <point x="461.88888888888886" y="887.5656565656566" type="curve" smooth="yes"/>
      <point x="461.88888888888886" y="1279.969696969697" type="line" smooth="yes"/>
      <point x="461.88888888888886" y="1363.0"/>
      <point x="506.02020202020196" y="1401.5151515151515"/>
      <point x="593.2626262626262" y="1401.5151515151515" type="curve" smooth="yes"/>
      <point x="708.8383838383838" y="1401.5151515151515" type="line"/>
      <point x="708.8383838383838" y="1623.1919191919192" type="line"/>
      <point x="663.3939393939394" y="1630.5959595959596"/>
      <point x="608.969696969697" y="1636.0"/>
      <point x="546.7171717171717" y="1636.0" type="curve" smooth="yes"/>
      <point x="297.5353535353535" y="1636.0"/>
      <point x="170.64646464646466" y="1511.919191919192"/>
      <point x="170.64646464646466" y="1274.7777777777778" type="curve" smooth="yes"/>
      <point x="170.64646464646466" y="866.5050505050505" type="line" smooth="yes"/>
      <point x="170.64646464646466" y="788.030303030303"/>
      <point x="124.0909090909091" y="743.8585858585858"/>
      <point x="48.5959595959596" y="743.8585858585858" type="curve" smooth="yes"/>
      <point x="3.8787878787878896" y="743.8585858585858" type="line"/>
      <point x="3.8787878787878896" y="514.1818181818182" type="line"/>
      <point x="48.5959595959596" y="514.1818181818182" type="line" smooth="yes"/>
      <point x="124.0909090909091" y="514.1818181818182"/>
      <point x="170.64646464646466" y="470.01010101010104"/>
      <point x="170.64646464646466" y="391.5353535353535" type="curve" smooth="yes"/>
      <point x="170.64646464646466" y="-98.7777777777778" type="line" smooth="yes"/>
      <point x="170.64646464646466" y="-335.9191919191919"/>
      <point x="297.5353535353535" y="-460.0"/>
    </contour>
  </outline>
</glyph>
<glyph name="bar" format="2">
  <advance width="480.24242424242425"/>
  <unicode hex="007C"/>
  <outline>
    <contour>
      <point x="110.64646464646466" y="-440.0" type="line"/>
      <point x="369.5959595959596" y="-440.0" type="line"/>
      <point x="369.5959595959596" y="1616.0" type="line"/>
      <point x="110.64646464646466" y="1616.0" type="line"/>
    </contour>
  </outline>
</glyph>
<glyph name="braceright" format="2">
  <advance width="675.8585858585858"/>
  <unicode hex="007D"/>
  <outline>
    <contour>
      <point x="129.14141414141415" y="-460.0" type="curve" smooth="yes"/>
      <point x="378.32323232323233" y="-460.0"/>
      <point x="505.2121212121212" y="-335.9191919191919"/>
      <point x="505.2121212121212" y="-98.7777777777778" type="curve" smooth="yes"/>
      <point x="505.2121212121212" y="391.5353535353535" type="line" smooth="yes"/>
      <point x="505.2121212121212" y="470.01010101010104"/>
      <point x="551.7676767676768" y="514.1818181818182"/>
      <point x="627.2626262626262" y="514.1818181818182" type="curve" smooth="yes"/>
      <point x="671.9797979797979" y="514.1818181818182" type="line"/>
      <point x="671.9797979797979" y="743.8585858585858" type="line"/>
      <point x="627.2626262626262" y="743.8585858585858" type="line" smooth="yes"/>
      <point x="551.7676767676768" y="743.8585858585858"/>
      <point x="505.2121212121212" y="788.030303030303"/>
      <point x="505.2121212121212" y="866.5050505050505" type="curve" smooth="yes"/>
      <point x="505.2121212121212" y="1274.7777777777778" type="line" smooth="yes"/>
      <point x="505.2121212121212" y="1511.919191919192"/>
      <point x="378.32323232323233" y="1636.0"/>
      <point x="129.14141414141415" y="1636.0" type="curve" smooth="yes"/>
      <point x="66.88888888888889" y="1636.0"/>
      <point x="12.46464646464646" y="1630.5959595959596"/>
      <point x="-32.97979797979798" y="1623.1919191919192" type="curve"/>
      <point x="-32.97979797979798" y="1401.5151515151515" type="line"/>
      <point x="82.5959595959596" y="1401.5151515151515" type="line" smooth="yes"/>
      <point x="169.83838383838383" y="1401.5151515151515"/>
      <point x="213.969696969697" y="1363.0"/>
      <point x="213.969696969697" y="1279.969696969697" type="curve" smooth="yes"/>
      <point x="213.969696969697" y="887.5656565656566" type="line" smooth="yes"/>
      <point x="213.969696969697" y="715.4040404040404"/>
      <point x="299.2828282828283" y="618.1313131313132"/>
      <point x="519.6464646464647" y="610.3838383838383" type="curve"/>
      <point x="519.6464646464647" y="647.6565656565657" type="line"/>
      <point x="299.2828282828283" y="639.9090909090909"/>
      <point x="213.969696969697" y="542.6363636363636"/>
      <point x="213.969696969697" y="370.47474747474746" type="curve" smooth="yes"/>
      <point x="213.969696969697" y="-103.96969696969698" type="line" smooth="yes"/>
      <point x="213.969696969697" y="-187.00000000000003"/>
      <point x="169.83838383838383" y="-225.51515151515156"/>
      <point x="82.5959595959596" y="-225.51515151515156" type="curve" smooth="yes"/>
      <point x="-32.97979797979798" y="-225.51515151515156" type="line"/>
      <point x="-32.97979797979798" y="-447.19191919191917" type="line"/>
      <point x="12.46464646464646" y="-454.5959595959596"/>
      <point x="66.88888888888889" y="-460.0"/>
    </contour>
  </outline>
</glyph>
<glyph name="asciitilde" format="2">
  <advance width="1030.040404040404"/>
  <unicode hex="007E"/>
  <outline>
    <contour>
      <point x="703.8686868686868" y="586.7777777777778" type="curve" smooth="yes"/>
      <point x="801.5252525252525" y="586.7777777777778"/>
      <point x="872.929292929293" y="617.3737373737374"/>
      <point x="932.3737373737374" y="685.2020202020202" type="curve"/>
      <point x="932.3737373737374" y="921.6464646464647" type="line"/>
      <point x="861.5252525252525" y="845.4343434343434"/>
      <point x="793.3131313131313" y="812.2424242424242"/>
      <point x="706.0808080808081" y="812.2424242424242" type="curve" smooth="yes"/>
      <point x="586.6363636363636" y="812.2424242424242"/>
      <point x="475.020202020202" y="929.6464646464647"/>
      <point x="326.17171717171715" y="929.6464646464647" type="curve" smooth="yes"/>
      <point x="228.51515151515153" y="929.6464646464647"/>
      <point x="157.11111111111111" y="899.0505050505051"/>
      <point x="97.66666666666669" y="831.2222222222222" type="curve"/>
      <point x="97.66666666666669" y="594.7777777777778" type="line"/>
      <point x="168.51515151515153" y="670.989898989899"/>
      <point x="236.72727272727275" y="704.1818181818182"/>
      <point x="323.95959595959596" y="704.1818181818182" type="curve" smooth="yes"/>
      <point x="443.4040404040404" y="704.1818181818182"/>
      <point x="555.020202020202" y="586.7777777777778"/>
    </contour>
  </outline>
</glyph>
<glyph name="exclamdown" format="2">
  <advance width="529.1717171717171"/>
  <unicode hex="00A1"/>
  <outline>
    <contour>
      <point x="176.0" y="617.979797979798" type="line"/>
      <point x="107.83838383838385" y="125.41414141414143" type="line"/>
      <point x="107.83838383838385" y="-380.0" type="line"/>
      <point x="421.33333333333326" y="-380.0" type="line"/>
      <point x="421.33333333333326" y="125.41414141414143" type="line"/>
      <point x="355.9797979797979" y="617.979797979798" type="line"/>
    </contour>
    <contour>
      <point x="264.58585858585855" y="1111.060606060606" type="curve" smooth="yes"/>
      <point x="152.76767676767676" y="1111.060606060606"/>
      <point x="73.41414141414143" y="1039.3232323232323"/>
      <point x="73.41414141414143" y="922.6969696969697" type="curve" smooth="yes"/>
      <point x="73.41414141414143" y="806.0707070707072"/>
      <point x="149.95959595959596" y="733.7373737373738"/>
      <point x="264.58585858585855" y="733.7373737373738" type="curve" smooth="yes"/>
      <point x="379.2121212121212" y="733.7373737373738"/>
      <point x="455.75757575757575" y="808.8787878787879"/>
      <point x="455.75757575757575" y="922.6969696969697" type="curve" smooth="yes"/>
      <point x="455.75757575757575" y="1036.5151515151515"/>
      <point x="376.4040404040404" y="1111.060606060606"/>
    </contour>
  </outline>
</glyph>
<glyph name="cent" format="2">
  <advance width="801.3030303030303"/>
  <unicode hex="00A2"/>
  <outline>
    <contour>
      <point x="536.7979797979798" y="-20.808080808080806" type="curve" smooth="yes"/>
      <point x="612.4141414141413" y="-20.808080808080806"/>
      <point x="695.0505050505051" y="-8.808080808080808"/>
      <point x="770.2424242424242" y="16.383838383838384" type="curve"/>
      <point x="770.2424242424242" y="255.67676767676764" type="line"/>
      <point x="705.8989898989898" y="234.10101010101008"/>
      <point x="650.5353535353535" y="223.50505050505046"/>
      <point x="600.959595959596" y="223.50505050505046" type="curve" smooth="yes"/>
      <point x="439.2929292929292" y="223.50505050505046"/>
      <point x="357.96969696969694" y="299.5959595959596"/>
      <point x="357.96969696969694" y="551.020202020202" type="curve" smooth="yes"/>
      <point x="357.96969696969694" y="787.2121212121212"/>
      <point x="442.27272727272725" y="867.1313131313132"/>
      <point x="628.5353535353535" y="867.1313131313132" type="curve" smooth="yes"/>
      <point x="671.1313131313132" y="867.1313131313132"/>
      <point x="722.4949494949494" y="862.5353535353536"/>
      <point x="770.2424242424242" y="852.959595959596" type="curve"/>
      <point x="770.2424242424242" y="1092.2525252525252" type="line"/>
      <point x="708.030303030303" y="1105.4444444444443"/>
      <point x="643.2222222222222" y="1111.4444444444443"/>
      <point x="576.3737373737374" y="1111.4444444444443" type="curve" smooth="yes"/>
      <point x="254.25252525252526" y="1111.4444444444443"/>
      <point x="54.30303030303031" y="952.5959595959596"/>
      <point x="54.30303030303031" y="545.6161616161617" type="curve" smooth="yes"/>
      <point x="54.30303030303031" y="148.46464646464645"/>
      <point x="228.21212121212122" y="-20.808080808080806"/>
    </contour>
    <contour>
      <point x="392.47474747474746" y="-240.0" type="line"/>
      <point x="636.1919191919192" y="-240.0" type="line"/>
      <point x="636.1919191919192" y="42.12121212121211" type="line"/>
      <point x="392.47474747474746" y="42.12121212121211" type="line"/>
    </contour>
    <contour>
      <point x="392.47474747474746" y="1051.919191919192" type="line"/>
      <point x="636.1919191919192" y="1051.919191919192" type="line"/>
      <point x="636.1919191919192" y="1334.040404040404" type="line"/>
      <point x="392.47474747474746" y="1334.040404040404" type="line"/>
    </contour>
  </outline>
</glyph>
<glyph name="sterling" format="2">
  <advance width="1158.919191919192"/>
  <unicode hex="00A3"/>
  <outline>
    <contour>
      <point x="233.24242424242425" y="96.58585858585857" type="line"/>
      <point x="524.4848484848485" y="96.58585858585857" type="line"/>
      <point x="524.4848484848485" y="1039.8383838383838" type="line" smooth="yes"/>
      <point x="524.4848484848485" y="1184.5757575757575"/>
      <point x="603.5555555555555" y="1249.4747474747476"/>
      <point x="826.1111111111111" y="1249.4747474747476" type="curve" smooth="yes"/>
      <point x="908.7070707070707" y="1249.4747474747476"/>
      <point x="1005.5555555555555" y="1238.0707070707072"/>
      <point x="1087.3434343434344" y="1215.6868686868688" type="curve"/>
      <point x="1087.3434343434344" y="1464.8080808080808" type="line"/>
      <point x="1008.1111111111111" y="1486.0"/>
      <point x="901.090909090909" y="1499.4040404040404"/>
      <point x="800.030303030303" y="1499.4040404040404" type="curve" smooth="yes"/>
      <point x="418.13131313131316" y="1499.4040404040404"/>
      <point x="233.24242424242425" y="1332.3030303030303"/>
      <point x="233.24242424242425" y="1032.8181818181818" type="curve" smooth="yes"/>
    </contour>
    <contour>
      <point x="58.939393939393945" y="0.0" type="line"/>
      <point x="1120.151515151515" y="0.0" type="line"/>
      <point x="1120.151515151515" y="253.5454545454545" type="line"/>
      <point x="58.939393939393945" y="253.5454545454545" type="line"/>
    </contour>
    <contour>
      <point x="58.939393939393945" y="635.1616161616162" type="line"/>
      <point x="933.3030303030303" y="635.1616161616162" type="line"/>
      <point x="933.3030303030303" y="864.8383838383838" type="line"/>
      <point x="58.939393939393945" y="864.8383838383838" type="line"/>
    </contour>
  </outline>
</glyph>
<glyph name="yen" format="2">
  <advance width="1141.3030303030303"/>
  <unicode hex="00A5"/>
  <outline>
    <contour>
      <point x="423.62626262626264" y="0.0" type="line"/>
      <point x="719.0808080808081" y="0.0" type="line"/>
      <point x="719.0808080808081" y="751.5252525252525" type="line"/>
      <point x="658.1515151515151" y="517.2121212121212" type="line"/>
      <point x="1184.6565656565656" y="1480.0" type="line"/>
      <point x="898.0505050505051" y="1480.0" type="line"/>
      <point x="540.5050505050505" y="826.4949494949494" type="line"/>
      <point x="619.0505050505051" y="826.4949494949494" type="line"/>
      <point x="263.50505050505046" y="1480.0" type="line"/>
      <point x="-47.56565656565655" y="1480.0" type="line"/>
      <point x="484.55555555555554" y="517.2121212121212" type="line"/>
      <point x="423.62626262626264" y="755.7373737373737" type="line"/>
    </contour>
    <contour>
      <point x="130.64646464646466" y="272.26262626262627" type="line"/>
      <point x="1012.060606060606" y="272.26262626262627" type="line"/>
      <point x="1012.060606060606" y="455.6060606060606" type="line"/>
      <point x="130.64646464646466" y="455.6060606060606" type="line"/>
    </contour>
    <contour>
      <point x="130.64646464646466" y="592.3939393939394" type="line"/>
      <point x="1012.060606060606" y="592.3939393939394" type="line"/>
      <point x="1012.060606060606" y="775.7373737373737" type="line"/>
      <point x="130.64646464646466" y="775.7373737373737" type="line"/>
    </contour>
  </outline>
</glyph>
<glyph name="brokenbar" format="2">
  <advance width="480.24242424242425"/>
  <unicode hex="00A6"/>
  <outline>
    <contour>
      <point x="110.64646464646466" y="836.0" type="line"/>
      <point x="369.5959595959596" y="836.0" type="line"/>
      <point x="369.5959595959596" y="1616.0" type="line"/>
      <point x="110.64646464646466" y="1616.0" type="line"/>
    </contour>
    <contour>
      <point x="110.64646464646466" y="-440.0" type="line"/>
      <point x="369.5959595959596" y="-440.0" type="line"/>
      <point x="369.5959595959596" y="340.0" type="line"/>
      <point x="110.64646464646466" y="340.0" type="line"/>
    </contour>
  </outline>
</glyph>
<glyph name="section" format="2">
  <advance width="931.1313131313132"/>
  <unicode hex="00A7"/>
  <outline>
    <contour>
      <point x="390.7171717171717" y="-20.808080808080806" type="curve" smooth="yes"/>
      <point x="662.8787878787879" y="-20.808080808080806"/>
      <point x="826.1919191919192" y="111.65656565656565"/>
      <point x="826.1919191919192" y="321.52525252525254" type="curve" smooth="yes"/>
      <point x="826.1919191919192" y="474.16161616161617"/>
      <point x="744.1111111111111" y="558.929292929293"/>
      <point x="575.9797979797979" y="601.6969696969697" type="curve" smooth="yes"/>
      <point x="410.96969696969694" y="641.7373737373737" type="line" smooth="yes"/>
      <point x="335.8989898989899" y="661.6969696969697"/>
      <point x="306.78787878787875" y="699.6161616161617"/>
      <point x="306.78787878787875" y="765.070707070707" type="curve" smooth="yes"/>
      <point x="306.78787878787875" y="821.6262626262626"/>
      <point x="330.95959595959596" y="861.7575757575758"/>
      <point x="378.1111111111111" y="908.7777777777778" type="curve"/>
      <point x="217.1919191919192" y="1014.5555555555555" type="line"/>
      <point x="130.34343434343435" y="955.5353535353536"/>
      <point x="70.8989898989899" y="869.9191919191919"/>
      <point x="70.8989898989899" y="754.0505050505051" type="curve" smooth="yes"/>
      <point x="70.8989898989899" y="579.5454545454545"/>
      <point x="158.97979797979798" y="486.949494949495"/>
      <point x="309.4949494949495" y="448.1818181818182" type="curve" smooth="yes"/>
      <point x="474.5050505050505" y="406.7373737373738" type="line" smooth="yes"/>
      <point x="532.1313131313132" y="390.989898989899"/>
      <point x="561.030303030303" y="365.2828282828283"/>
      <point x="561.030303030303" y="307.6969696969697" type="curve" smooth="yes"/>
      <point x="561.030303030303" y="238.91919191919192"/>
      <point x="513.5757575757576" y="196.8282828282828"/>
      <point x="387.9090909090909" y="196.8282828282828" type="curve" smooth="yes"/>
      <point x="296.8484848484849" y="196.8282828282828"/>
      <point x="203.57575757575756" y="210.2323232323232"/>
      <point x="116.97979797979798" y="235.4242424242424" type="curve"/>
      <point x="116.97979797979798" y="17.191919191919194" type="line"/>
      <point x="205.23232323232324" y="-8.212121212121211"/>
      <point x="299.4848484848485" y="-20.808080808080806"/>
    </contour>
    <contour>
      <point x="703.3030303030303" y="456.42424242424244" type="line"/>
      <point x="795.7676767676768" y="516.2525252525253"/>
      <point x="860.2323232323232" y="604.0808080808081"/>
      <point x="860.2323232323232" y="728.5454545454545" type="curve" smooth="yes"/>
      <point x="860.2323232323232" y="905.0505050505051"/>
      <point x="778.1515151515151" y="994.6262626262626"/>
      <point x="621.2525252525252" y="1034.5858585858587" type="curve" smooth="yes"/>
      <point x="456.24242424242425" y="1074.6262626262626" type="line" smooth="yes"/>
      <point x="398.02020202020196" y="1090.3737373737374"/>
      <point x="370.10101010101005" y="1116.4646464646464"/>
      <point x="370.10101010101005" y="1167.878787878788" type="curve" smooth="yes"/>
      <point x="370.10101010101005" y="1226.6969696969697"/>
      <point x="416.78787878787875" y="1279.7676767676767"/>
      <point x="574.1111111111111" y="1279.7676767676767" type="curve" smooth="yes"/>
      <point x="646.3232323232323" y="1279.7676767676767"/>
      <point x="714.3636363636364" y="1273.7676767676767"/>
      <point x="787.7676767676768" y="1257.1717171717173" type="curve"/>
      <point x="787.7676767676768" y="1475.4040404040404" type="line"/>
      <point x="717.9393939393939" y="1489.4040404040404"/>
      <point x="639.6868686868687" y="1497.4040404040404"/>
      <point x="554.4545454545455" y="1497.4040404040404" type="curve" smooth="yes"/>
      <point x="253.6161616161616" y="1497.4040404040404"/>
      <point x="104.93939393939394" y="1359.3636363636363"/>
      <point x="104.93939393939394" y="1154.050505050505" type="curve" smooth="yes"/>
      <point x="104.93939393939394" y="1010.4343434343434"/>
      <point x="191.6161616161616" y="919.8383838383838"/>
      <point x="354.7676767676768" y="879.6666666666666" type="curve" smooth="yes"/>
      <point x="519.7777777777777" y="839.6262626262626" type="line" smooth="yes"/>
      <point x="594.2525252525253" y="819.6666666666666"/>
      <point x="624.3434343434343" y="782.1313131313132"/>
      <point x="624.3434343434343" y="717.5252525252525" type="curve" smooth="yes"/>
      <point x="624.3434343434343" y="667.8181818181818"/>
      <point x="604.3838383838383" y="630.2828282828283"/>
      <point x="540.7676767676768" y="579.6464646464647" type="curve"/>
    </contour>
  </outline>
</glyph>
<glyph name="copyright" format="2">
  <advance width="1630.6464646464647"/>
  <unicode hex="00A9"/>
  <outline>
    <contour>
      <point x="815.3232323232323" y="-22.0" type="curve" smooth="yes"/>
      <point x="1265.5353535353536" y="-22.0"/>
      <point x="1563.5353535353536" y="282.0"/>
      <point x="1563.5353535353536" y="740.0" type="curve" smooth="yes"/>
      <point x="1563.5353535353536" y="1198.0"/>
      <point x="1265.5353535353536" y="1502.0"/>
      <point x="815.3232323232323" y="1502.0" type="curve" smooth="yes"/>
      <point x="365.11111111111114" y="1502.0"/>
      <point x="67.11111111111111" y="1198.0"/>
      <point x="67.11111111111111" y="740.0" type="curve" smooth="yes"/>
      <point x="67.11111111111111" y="282.0"/>
      <point x="365.11111111111114" y="-22.0"/>
    </contour>
    <contour>
      <point x="874.5959595959596" y="324.0" type="curve" smooth="yes"/>
      <point x="955.4040404040404" y="324.0"/>
      <point x="1027.4040404040404" y="336.0"/>
      <point x="1082.7676767676767" y="357.57575757575756" type="curve"/>
      <point x="1082.7676767676767" y="552.7474747474747" type="line"/>
      <point x="1003.5757575757576" y="530.5757575757575"/>
      <point x="952.6363636363636" y="523.3838383838383"/>
      <point x="896.040404040404" y="523.3838383838383" type="curve" smooth="yes"/>
      <point x="759.010101010101" y="523.3838383838383"/>
      <point x="679.1313131313132" y="594.070707070707"/>
      <point x="679.1313131313132" y="733.7878787878788" type="curve" smooth="yes"/>
      <point x="679.1313131313132" y="873.1212121212121"/>
      <point x="754.7979797979798" y="944.6161616161617"/>
      <point x="911.020202020202" y="944.6161616161617" type="curve" smooth="yes"/>
      <point x="971.1919191919192" y="944.6161616161617"/>
      <point x="1022.1717171717172" y="937.4242424242425"/>
      <point x="1082.7676767676767" y="925.040404040404" type="curve"/>
      <point x="1082.7676767676767" y="1120.2121212121212" type="line"/>
      <point x="1024.3838383838383" y="1136.0"/>
      <point x="962.979797979798" y="1144.0"/>
      <point x="890.7676767676768" y="1144.0" type="curve" smooth="yes"/>
      <point x="615.5353535353536" y="1144.0"/>
      <point x="447.0707070707071" y="993.1919191919192"/>
      <point x="447.0707070707071" y="732.5959595959596" type="curve" smooth="yes"/>
      <point x="447.0707070707071" y="470.42424242424244"/>
      <point x="615.1111111111111" y="324.0"/>
    </contour>
    <contour>
      <point x="815.3232323232323" y="147.09090909090907" type="curve" smooth="yes"/>
      <point x="457.06060606060606" y="147.09090909090907"/>
      <point x="243.2222222222222" y="376.75757575757575"/>
      <point x="243.2222222222222" y="740.0" type="curve" smooth="yes"/>
      <point x="243.2222222222222" y="1103.2424242424242"/>
      <point x="457.06060606060606" y="1332.909090909091"/>
      <point x="815.3232323232323" y="1332.909090909091" type="curve" smooth="yes"/>
      <point x="1173.5858585858587" y="1332.909090909091"/>
      <point x="1387.4242424242425" y="1103.2424242424242"/>
      <point x="1387.4242424242425" y="740.0" type="curve" smooth="yes"/>
      <point x="1387.4242424242425" y="376.75757575757575"/>
      <point x="1173.5858585858587" y="147.09090909090907"/>
    </contour>
  </outline>
</glyph>
<glyph name="ordfeminine" format="2">
  <advance width="801.6464646464647"/>
  <unicode hex="00AA"/>
  <outline>
    <contour>
      <point x="277.32323232323233" y="593.1919191919192" type="curve" smooth="yes"/>
      <point x="362.0909090909091" y="593.1919191919192"/>
      <point x="437.6666666666667" y="622.7676767676768"/>
      <point x="479.62626262626264" y="700.979797979798" type="curve"/>
      <point x="492.64646464646466" y="700.979797979798" type="line"/>
      <point x="512.6868686868687" y="610.0" type="line"/>
      <point x="732.959595959596" y="610.0" type="line"/>
      <point x="732.959595959596" y="1141.2020202020203" type="line" smooth="yes"/>
      <point x="732.959595959596" y="1405.1515151515152"/>
      <point x="615.3030303030303" y="1499.020202020202"/>
      <point x="355.4848484848485" y="1499.020202020202" type="curve" smooth="yes"/>
      <point x="267.82828282828285" y="1499.020202020202"/>
      <point x="168.3838383838384" y="1486.4242424242425"/>
      <point x="89.53535353535354" y="1465.2323232323233" type="curve"/>
      <point x="89.53535353535354" y="1253.8080808080808" type="line"/>
      <point x="158.51515151515153" y="1274.1919191919192"/>
      <point x="232.51515151515153" y="1285.3838383838383"/>
      <point x="298.13131313131316" y="1285.3838383838383" type="curve" smooth="yes"/>
      <point x="426.6868686868687" y="1285.3838383838383"/>
      <point x="466.7777777777778" y="1250.020202020202"/>
      <point x="466.7777777777778" y="1164.858585858586" type="curve" smooth="yes"/>
      <point x="466.7777777777778" y="828.5050505050505" type="line"/>
      <point x="443.4949494949495" y="797.3030303030303"/>
      <point x="409.65656565656565" y="787.1717171717171"/>
      <point x="382.7979797979798" y="787.1717171717171" type="curve" smooth="yes"/>
      <point x="325.76767676767673" y="787.1717171717171"/>
      <point x="286.4444444444444" y="817.090909090909"/>
      <point x="286.4444444444444" y="887.3535353535353" type="curve" smooth="yes"/>
      <point x="286.4444444444444" y="949.6161616161617"/>
      <point x="324.3636363636363" y="981.5353535353536"/>
      <point x="402.96969696969694" y="987.1111111111111" type="curve" smooth="yes"/>
      <point x="539.070707070707" y="995.6666666666666" type="line"/>
      <point x="500.1818181818182" y="1139.909090909091" type="line"/>
      <point x="369.27272727272725" y="1129.949494949495" type="line" smooth="yes"/>
      <point x="121.91919191919192" y="1115.5656565656566"/>
      <point x="24.686868686868692" y="1022.5454545454545"/>
      <point x="24.686868686868692" y="848.4646464646464" type="curve" smooth="yes"/>
      <point x="24.686868686868692" y="697.4444444444445"/>
      <point x="128.3030303030303" y="593.1919191919192"/>
    </contour>
  </outline>
</glyph>
<glyph name="guillemetleft" format="2">
  <advance width="1040.1616161616162"/>
  <unicode hex="00AB"/>
  <outline>
    <contour>
      <point x="269.9191919191919" y="132.97979797979798" type="line"/>
      <point x="556.9494949494949" y="132.97979797979798" type="line"/>
      <point x="361.9292929292929" y="567.020202020202" type="line"/>
      <point x="556.9494949494949" y="1001.060606060606" type="line"/>
      <point x="269.9191919191919" y="1001.060606060606" type="line"/>
      <point x="74.8989898989899" y="567.020202020202" type="line"/>
    </contour>
    <contour>
      <point x="718.2323232323232" y="132.97979797979798" type="line"/>
      <point x="1005.2626262626262" y="132.97979797979798" type="line"/>
      <point x="810.2424242424242" y="567.020202020202" type="line"/>
      <point x="1005.2626262626262" y="1001.060606060606" type="line"/>
      <point x="718.2323232323232" y="1001.060606060606" type="line"/>
      <point x="523.2121212121212" y="567.020202020202" type="line"/>
    </contour>
  </outline>
</glyph>
<glyph name="logicalnot" format="2">
  <advance width="1240.0"/>
  <unicode hex="00AC"/>
  <outline>
    <contour>
      <point x="908.8282828282829" y="190.59595959595958" type="line"/>
      <point x="1148.121212121212" y="190.59595959595958" type="line"/>
      <point x="1148.121212121212" y="874.8383838383838" type="line"/>
      <point x="97.66666666666669" y="874.8383838383838" type="line"/>
      <point x="97.66666666666669" y="645.1616161616162" type="line"/>
      <point x="908.8282828282829" y="645.1616161616162" type="line"/>
    </contour>
  </outline>
</glyph>
<glyph name="softhyphen" format="2">
  <advance width="736.3737373737374"/>
  <unicode hex="00AD"/>
  <outline>
    <contour>
      <point x="97.66666666666669" y="447.969696969697" type="line"/>
      <point x="638.7070707070707" y="447.969696969697" type="line"/>
      <point x="638.7070707070707" y="686.070707070707" type="line"/>
      <point x="97.66666666666669" y="686.070707070707" type="line"/>
    </contour>
  </outline>
</glyph>
<glyph name="registered" format="2">
  <advance width="1395.3333333333333"/>
  <unicode hex="00AE"/>
  <outline>
    <contour>
      <point x="697.6666666666666" y="268.0" type="curve" smooth="yes"/>
      <point x="1059.6666666666667" y="268.0"/>
      <point x="1307.6666666666667" y="518.0"/>
      <point x="1307.6666666666667" y="882.0" type="curve" smooth="yes"/>
      <point x="1307.6666666666667" y="1246.0"/>
      <point x="1059.6666666666667" y="1498.0"/>
      <point x="697.6666666666666" y="1498.0" type="curve" smooth="yes"/>
      <point x="335.6666666666667" y="1498.0"/>
      <point x="87.66666666666669" y="1246.0"/>
      <point x="87.66666666666669" y="882.0" type="curve" smooth="yes"/>
      <point x="87.66666666666669" y="518.0"/>
      <point x="335.6666666666667" y="268.0"/>
    </contour>
    <contour>
      <point x="825.1212121212121" y="600.0" type="line"/>
      <point x="975.5353535353536" y="600.0" type="line"/>
      <point x="816.3838383838383" y="831.9191919191919" type="line"/>
      <point x="683.3737373737374" y="805.9191919191919" type="line"/>
    </contour>
    <contour>
      <point x="697.6666666666666" y="397.1818181818182" type="curve" smooth="yes"/>
      <point x="411.7878787878788" y="397.1818181818182"/>
      <point x="225.86868686868686" y="587.9090909090909"/>
      <point x="225.86868686868686" y="882.0" type="curve" smooth="yes"/>
      <point x="225.86868686868686" y="1177.4949494949494"/>
      <point x="411.7878787878788" y="1368.8181818181818"/>
      <point x="697.6666666666666" y="1368.8181818181818" type="curve" smooth="yes"/>
      <point x="983.5454545454545" y="1368.8181818181818"/>
      <point x="1169.4646464646464" y="1177.4949494949494"/>
      <point x="1169.4646464646464" y="882.0" type="curve" smooth="yes"/>
      <point x="1169.4646464646464" y="587.9090909090909"/>
      <point x="983.5454545454545" y="397.1818181818182"/>
    </contour>
    <contour>
      <point x="479.83838383838383" y="600.0" type="line"/>
      <point x="616.040404040404" y="600.0" type="line"/>
      <point x="620.2525252525253" y="797.9191919191919" type="line"/>
      <point x="687.8787878787879" y="797.9191919191919" type="line" smooth="yes"/>
      <point x="862.5151515151515" y="797.9191919191919"/>
      <point x="945.9191919191919" y="862.5151515151515"/>
      <point x="945.9191919191919" y="993.959595959596" type="curve" smooth="yes"/>
      <point x="945.9191919191919" y="1125.4040404040404"/>
      <point x="860.5151515151515" y="1192.0"/>
      <point x="687.8787878787879" y="1192.0" type="curve" smooth="yes"/>
      <point x="479.83838383838383" y="1192.0" type="line"/>
    </contour>
    <contour>
      <point x="620.2525252525253" y="909.060606060606" type="line"/>
      <point x="620.2525252525253" y="1080.858585858586" type="line"/>
      <point x="709.7070707070707" y="1080.858585858586" type="line" smooth="yes"/>
      <point x="776.7777777777778" y="1080.858585858586"/>
      <point x="812.5252525252525" y="1052.090909090909"/>
      <point x="812.5252525252525" y="993.959595959596" type="curve" smooth="yes"/>
      <point x="812.5252525252525" y="935.8282828282828"/>
      <point x="778.7777777777778" y="909.060606060606"/>
      <point x="709.7070707070707" y="909.060606060606" type="curve" smooth="yes"/>
    </contour>
  </outline>
</glyph>
<glyph name="macron" format="2">
  <advance width="1080.8080808080808"/>
  <unicode hex="00AF"/>
  <anchor x="540.4040404040404" y="1200.0" name="_top"/>
  <anchor x="540.4040404040404" y="1598.121212121212" name="top"/>
  <outline>
    <contour>
      <point x="215.98989898989896" y="1325.2020202020203" type="line"/>
      <point x="864.8181818181818" y="1325.2020202020203" type="line"/>
      <point x="864.8181818181818" y="1515.1818181818182" type="line"/>
      <point x="215.98989898989896" y="1515.1818181818182" type="line"/>
    </contour>
  </outline>
</glyph>
<glyph name="degree" format="2">
  <advance width="909.1919191919192"/>
  <unicode hex="00B0"/>
  <outline>
    <contour>
      <point x="454.5959595959596" y="774.7777777777778" type="curve" smooth="yes"/>
      <point x="666.4646464646464" y="774.7777777777778"/>
      <point x="821.5252525252525" y="927.6262626262626"/>
      <point x="821.5252525252525" y="1137.4949494949494" type="curve" smooth="yes"/>
      <point x="821.5252525252525" y="1347.3636363636363"/>
      <point x="666.4646464646464" y="1498.8080808080808"/>
      <point x="454.5959595959596" y="1498.8080808080808" type="curve" smooth="yes"/>
      <point x="242.72727272727275" y="1498.8080808080808"/>
      <point x="87.66666666666669" y="1347.3636363636363"/>
      <point x="87.66666666666669" y="1137.4949494949494" type="curve" smooth="yes"/>
      <point x="87.66666666666669" y="927.6262626262626"/>
      <point x="242.72727272727275" y="774.7777777777778"/>
    </contour>
    <contour>
      <point x="454.5959595959596" y="952.5050505050505" type="curve" smooth="yes"/>
      <point x="352.9292929292929" y="952.5050505050505"/>
      <point x="277.8181818181818" y="1023.020202020202"/>
      <point x="277.8181818181818" y="1137.4949494949494" type="curve" smooth="yes"/>
      <point x="277.8181818181818" y="1251.969696969697"/>
      <point x="354.3333333333333" y="1321.080808080808"/>
      <point x="454.5959595959596" y="1321.080808080808" type="curve" smooth="yes"/>
      <point x="554.8585858585859" y="1321.080808080808"/>
      <point x="631.3737373737374" y="1251.969696969697"/>
      <point x="631.3737373737374" y="1137.4949494949494" type="curve" smooth="yes"/>
      <point x="631.3737373737374" y="1023.020202020202"/>
      <point x="556.2626262626263" y="952.5050505050505"/>
    </contour>
  </outline>
</glyph>
<glyph name="plusminus" format="2">
  <advance width="1030.040404040404"/>
  <unicode hex="00B1"/>
  <outline>
    <contour>
      <point x="395.3737373737374" y="365.14141414141415" type="line"/>
      <point x="634.6666666666666" y="365.14141414141415" type="line"/>
      <point x="634.6666666666666" y="674.4242424242424" type="line"/>
      <point x="932.3737373737374" y="674.4242424242424" type="line"/>
      <point x="932.3737373737374" y="904.10101010101" type="line"/>
      <point x="634.6666666666666" y="904.10101010101" type="line"/>
      <point x="634.6666666666666" y="1213.3838383838383" type="line"/>
      <point x="395.3737373737374" y="1213.3838383838383" type="line"/>
      <point x="395.3737373737374" y="904.10101010101" type="line"/>
      <point x="97.66666666666669" y="904.10101010101" type="line"/>
      <point x="97.66666666666669" y="674.4242424242424" type="line"/>
      <point x="395.3737373737374" y="674.4242424242424" type="line"/>
    </contour>
    <contour>
      <point x="97.66666666666669" y="1.4040404040404038" type="line"/>
      <point x="932.3737373737374" y="1.4040404040404038" type="line"/>
      <point x="932.3737373737374" y="231.08080808080805" type="line"/>
      <point x="97.66666666666669" y="231.08080808080805" type="line"/>
    </contour>
  </outline>
</glyph>
<glyph name="acute" format="2">
  <advance width="1080.8080808080808"/>
  <unicode hex="00B4"/>
  <anchor x="540.4040404040404" y="1200.0" name="_top"/>
  <anchor x="540.4040404040404" y="1626.20202020202" name="top"/>
  <outline>
    <contour>
      <point x="414.1212121212121" y="1233.111111111111" type="line"/>
      <point x="666.6868686868686" y="1233.111111111111" type="line"/>
      <point x="898.0808080808081" y="1616.0" type="line"/>
      <point x="604.2424242424242" y="1616.0" type="line"/>
    </contour>
  </outline>
</glyph>
<glyph name="micro" format="2">
  <advance width="1039.3434343434344"/>
  <unicode hex="00B5"/>
  <outline>
    <contour>
      <point x="468.75757575757575" y="-19.404040404040405" type="curve" smooth="yes"/>
      <point x="546.0808080808081" y="-19.404040404040405"/>
      <point x="611.3636363636364" y="24.595959595959595"/>
      <point x="664.0909090909091" y="114.38383838383838" type="curve"/>
      <point x="677.7070707070707" y="114.38383838383838" type="line"/>
      <point x="699.1515151515151" y="0.0" type="line"/>
      <point x="941.6767676767677" y="0.0" type="line"/>
      <point x="941.6767676767677" y="1094.040404040404" type="line"/>
      <point x="650.4343434343434" y="1094.040404040404" type="line"/>
      <point x="650.4343434343434" y="321.47474747474746" type="line"/>
      <point x="613.5353535353536" y="264.69696969696963"/>
      <point x="546.1212121212121" y="240.3535353535353"/>
      <point x="498.83838383838383" y="240.3535353535353" type="curve" smooth="yes"/>
      <point x="431.8080808080808" y="240.3535353535353"/>
      <point x="383.1212121212121" y="275.67676767676767"/>
      <point x="383.1212121212121" y="386.83838383838383" type="curve" smooth="yes"/>
      <point x="383.1212121212121" y="628.4848484848485" type="line"/>
      <point x="259.30303030303025" y="628.4848484848485" type="line"/>
      <point x="259.30303030303025" y="362.75757575757575" type="line" smooth="yes"/>
      <point x="259.30303030303025" y="79.06060606060606"/>
      <point x="347.2626262626262" y="-19.404040404040405"/>
    </contour>
    <contour>
      <point x="91.87878787878789" y="-440.0" type="line"/>
      <point x="383.1212121212121" y="-440.0" type="line"/>
      <point x="383.1212121212121" y="1094.040404040404" type="line"/>
      <point x="91.87878787878789" y="1094.040404040404" type="line"/>
    </contour>
  </outline>
</glyph>
<glyph name="paragraph" format="2">
  <advance width="1169.1313131313132"/>
  <unicode hex="00B6"/>
  <outline>
    <contour>
      <point x="525.7171717171717" y="0.0" type="line"/>
      <point x="734.1212121212121" y="0.0" type="line"/>
      <point x="734.1212121212121" y="1480.0" type="line"/>
      <point x="668.1212121212121" y="1490.8080808080808"/>
      <point x="580.6767676767677" y="1498.2121212121212"/>
      <point x="498.4646464646465" y="1498.2121212121212" type="curve" smooth="yes"/>
      <point x="192.51515151515153" y="1498.2121212121212"/>
      <point x="59.70707070707071" y="1332.979797979798"/>
      <point x="59.70707070707071" y="963.2828282828283" type="curve" smooth="yes"/>
      <point x="59.70707070707071" y="614.3939393939394"/>
      <point x="192.51515151515153" y="430.949494949495"/>
      <point x="449.03030303030306" y="430.949494949495" type="curve" smooth="yes"/>
      <point x="478.3939393939394" y="430.949494949495"/>
      <point x="497.75757575757575" y="431.54545454545456"/>
      <point x="525.7171717171717" y="432.7373737373738" type="curve"/>
    </contour>
    <contour>
      <point x="850.0808080808081" y="0.0" type="line"/>
      <point x="1058.4848484848485" y="0.0" type="line"/>
      <point x="1058.4848484848485" y="1480.0" type="line"/>
      <point x="850.0808080808081" y="1480.0" type="line"/>
    </contour>
  </outline>
</glyph>
<glyph name="periodcentered" format="2">
  <advance width="489.17171717171715"/>
  <unicode hex="00B7"/>
  <anchor x="244.58585858585857" y="560.0" name="_periodcentered"/>
  <outline>
    <contour>
      <point x="244.58585858585857" y="371.04040404040404" type="curve" smooth="yes"/>
      <point x="356.4040404040404" y="371.04040404040404"/>
      <point x="435.75757575757575" y="445.5858585858586"/>
      <point x="435.75757575757575" y="559.4040404040404" type="curve" smooth="yes"/>
      <point x="435.75757575757575" y="673.2222222222222"/>
      <point x="359.2121212121212" y="748.3636363636364"/>
      <point x="244.58585858585857" y="748.3636363636364" type="curve" smooth="yes"/>
      <point x="129.95959595959596" y="748.3636363636364"/>
      <point x="53.414141414141426" y="676.030303030303"/>
      <point x="53.414141414141426" y="559.4040404040404" type="curve" smooth="yes"/>
      <point x="53.414141414141426" y="442.7777777777778"/>
      <point x="132.76767676767676" y="371.04040404040404"/>
    </contour>
  </outline>
</glyph>
<glyph name="cedilla" format="2">
  <advance width="1080.8080808080808"/>
  <unicode hex="00B8"/>
  <anchor x="540.4040404040404" y="0.0" name="_bottom"/>
  <outline>
    <contour>
      <point x="530.7878787878788" y="-442.1212121212121" type="curve" smooth="yes"/>
      <point x="699.969696969697" y="-442.1212121212121"/>
      <point x="774.0101010101009" y="-370.0808080808081"/>
      <point x="774.0101010101009" y="-260.80808080808083" type="curve" smooth="yes"/>
      <point x="774.0101010101009" y="-147.53535353535355"/>
      <point x="690.5252525252524" y="-84.51515151515153"/>
      <point x="553.040404040404" y="-84.51515151515153" type="curve"/>
      <point x="623.7575757575758" y="-127.95959595959596" type="line"/>
      <point x="623.7575757575758" y="20.0" type="line"/>
      <point x="476.4949494949495" y="20.0" type="line"/>
      <point x="476.4949494949495" y="-173.82828282828282" type="line"/>
      <point x="513.7272727272727" y="-173.82828282828282" type="line" smooth="yes"/>
      <point x="578.1111111111111" y="-173.82828282828282"/>
      <point x="613.3030303030303" y="-198.21212121212122"/>
      <point x="613.3030303030303" y="-249.57575757575756" type="curve" smooth="yes"/>
      <point x="613.3030303030303" y="-300.55555555555554"/>
      <point x="582.1111111111111" y="-321.32323232323233"/>
      <point x="517.1313131313132" y="-321.32323232323233" type="curve" smooth="yes"/>
      <point x="476.7474747474747" y="-321.32323232323233"/>
      <point x="421.1313131313131" y="-313.32323232323233"/>
      <point x="368.5353535353535" y="-291.74747474747477" type="curve"/>
      <point x="368.5353535353535" y="-413.73737373737373" type="line"/>
      <point x="416.3636363636363" y="-431.52525252525254"/>
      <point x="470.1515151515151" y="-442.1212121212121"/>
    </contour>
  </outline>
</glyph>
<glyph name="onesuperior" format="2">
  <advance width="778.2828282828283"/>
  <unicode hex="00B9"/>
  <outline>
    <contour>
      <point x="307.2828282828283" y="-116.0" type="line"/>
      <point x="538.3636363636364" y="-116.0" type="line"/>
      <point x="538.3636363636364" y="868.0" type="line"/>
      <point x="396.4646464646465" y="868.0" type="line"/>
      <point x="136.21212121212122" y="698.8484848484849" type="line"/>
      <point x="136.21212121212122" y="488.44444444444446" type="line"/>
      <point x="396.4646464646465" y="657.5959595959596" type="line"/>
      <point x="307.2828282828283" y="724.5656565656566" type="line"/>
    </contour>
    <contour>
      <point x="129.36363636363637" y="-136.0" type="line"/>
      <point x="707.6868686868687" y="-136.0" type="line"/>
      <point x="707.6868686868687" y="62.19191919191917" type="line"/>
      <point x="129.36363636363637" y="62.19191919191917" type="line"/>
    </contour>
  </outline>
</glyph>
<glyph name="ordmasculine" format="2">
  <advance width="849.6464646464647"/>
  <unicode hex="00BA"/>
  <outline>
    <contour>
      <point x="425.52525252525254" y="593.1919191919192" type="curve" smooth="yes"/>
      <point x="673.8989898989898" y="593.1919191919192"/>
      <point x="815.3434343434343" y="748.0808080808081"/>
      <point x="815.3434343434343" y="1044.5959595959596" type="curve" smooth="yes"/>
      <point x="815.3434343434343" y="1341.111111111111"/>
      <point x="673.8989898989898" y="1499.020202020202"/>
      <point x="425.52525252525254" y="1499.020202020202" type="curve" smooth="yes"/>
      <point x="177.15151515151516" y="1499.020202020202"/>
      <point x="34.30303030303031" y="1348.1313131313132"/>
      <point x="34.30303030303031" y="1044.5959595959596" type="curve" smooth="yes"/>
      <point x="34.30303030303031" y="741.060606060606"/>
      <point x="177.15151515151516" y="593.1919191919192"/>
    </contour>
    <contour>
      <point x="425.52525252525254" y="789.9797979797979" type="curve" smooth="yes"/>
      <point x="355.55555555555554" y="789.9797979797979"/>
      <point x="305.88888888888886" y="830.2424242424242"/>
      <point x="305.88888888888886" y="1044.5959595959596" type="curve" smooth="yes"/>
      <point x="305.88888888888886" y="1260.3535353535353"/>
      <point x="355.55555555555554" y="1302.2323232323233"/>
      <point x="425.52525252525254" y="1302.2323232323233" type="curve" smooth="yes"/>
      <point x="495.4949494949495" y="1302.2323232323233"/>
      <point x="543.7575757575758" y="1260.3535353535353"/>
      <point x="543.7575757575758" y="1044.5959595959596" type="curve" smooth="yes"/>
      <point x="543.7575757575758" y="830.2424242424242"/>
      <point x="495.4949494949495" y="789.9797979797979"/>
    </contour>
  </outline>
</glyph>
<glyph name="guillemetright" format="2">
  <advance width="1040.1616161616162"/>
  <unicode hex="00BB"/>
  <outline>
    <contour>
      <point x="34.8989898989899" y="132.97979797979798" type="line"/>
      <point x="321.9292929292929" y="132.97979797979798" type="line"/>
      <point x="516.9494949494949" y="567.020202020202" type="line"/>
      <point x="321.9292929292929" y="1001.060606060606" type="line"/>
      <point x="34.8989898989899" y="1001.060606060606" type="line"/>
      <point x="229.91919191919192" y="567.020202020202" type="line"/>
    </contour>
    <contour>
      <point x="483.2121212121212" y="132.97979797979798" type="line"/>
      <point x="770.2424242424242" y="132.97979797979798" type="line"/>
      <point x="965.2626262626262" y="567.020202020202" type="line"/>
      <point x="770.2424242424242" y="1001.060606060606" type="line"/>
      <point x="483.2121212121212" y="1001.060606060606" type="line"/>
      <point x="678.2323232323232" y="567.020202020202" type="line"/>
    </contour>
  </outline>
</glyph>
<glyph name="onequarter" format="2">
  <advance width="1854.2929292929293"/>
  <unicode hex="00BC"/>
  <outline>
    <contour>
      <point x="307.2828282828283" y="636.0" type="line"/>
      <point x="538.3636363636364" y="636.0" type="line"/>
      <point x="538.3636363636364" y="1620.0" type="line"/>
      <point x="396.4646464646465" y="1620.0" type="line"/>
      <point x="136.21212121212122" y="1450.8484848484848" type="line"/>
      <point x="136.21212121212122" y="1240.4444444444446" type="line"/>
      <point x="396.4646464646465" y="1409.5959595959596" type="line"/>
      <point x="307.2828282828283" y="1476.5656565656566" type="line"/>
    </contour>
    <contour>
      <point x="129.36363636363637" y="616.0" type="line"/>
      <point x="707.6868686868687" y="616.0" type="line"/>
      <point x="707.6868686868687" y="814.1919191919192" type="line"/>
      <point x="129.36363636363637" y="814.1919191919192" type="line"/>
    </contour>
    <contour>
      <point x="443.1818181818182" y="-136.0" type="line"/>
      <point x="684.6868686868686" y="-136.0" type="line"/>
      <point x="1411.111111111111" y="1616.0" type="line"/>
      <point x="1169.6060606060605" y="1616.0" type="line"/>
    </contour>
    <contour>
      <point x="1102.9898989898988" y="68.26262626262627" type="line"/>
      <point x="1829.9090909090908" y="68.26262626262627" type="line"/>
      <point x="1829.9090909090908" y="243.39393939393938" type="line"/>
      <point x="1298.7979797979797" y="243.39393939393938" type="line"/>
      <point x="1326.8383838383838" y="196.7171717171717" type="line"/>
      <point x="1614.6767676767677" y="864.0" type="line"/>
      <point x="1396.4444444444443" y="864.0" type="line"/>
      <point x="1102.9898989898988" y="196.7171717171717" type="line"/>
    </contour>
    <contour>
      <point x="1517.969696969697" y="-136.0" type="line"/>
      <point x="1718.969696969697" y="-136.0" type="line"/>
      <point x="1718.969696969697" y="526.0" type="line"/>
      <point x="1569.2828282828282" y="526.0" type="line"/>
      <point x="1517.969696969697" y="243.39393939393938" type="line"/>
    </contour>
  </outline>
</glyph>
<glyph name="onehalf" format="2">
  <advance width="1854.2929292929293"/>
  <unicode hex="00BD"/>
  <outline>
    <contour>
      <point x="307.2828282828283" y="636.0" type="line"/>
      <point x="538.3636363636364" y="636.0" type="line"/>
      <point x="538.3636363636364" y="1620.0" type="line"/>
      <point x="396.4646464646465" y="1620.0" type="line"/>
      <point x="136.21212121212122" y="1450.8484848484848" type="line"/>
      <point x="136.21212121212122" y="1240.4444444444446" type="line"/>
      <point x="396.4646464646465" y="1409.5959595959596" type="line"/>
      <point x="307.2828282828283" y="1476.5656565656566" type="line"/>
    </contour>
    <contour>
      <point x="129.36363636363637" y="616.0" type="line"/>
      <point x="707.6868686868687" y="616.0" type="line"/>
      <point x="707.6868686868687" y="814.1919191919192" type="line"/>
      <point x="129.36363636363637" y="814.1919191919192" type="line"/>
    </contour>
    <contour>
      <point x="443.1818181818182" y="-136.0" type="line"/>
      <point x="684.6868686868686" y="-136.0" type="line"/>
      <point x="1411.111111111111" y="1616.0" type="line"/>
      <point x="1169.6060606060605" y="1616.0" type="line"/>
    </contour>
    <contour>
      <point x="1162.3939393939393" y="-136.0" type="line"/>
      <point x="1770.3737373737372" y="-136.0" type="line"/>
      <point x="1770.3737373737372" y="62.19191919191917" type="line"/>
      <point x="1415.5555555555554" y="62.19191919191917" type="line"/>
      <point x="1426.7474747474746" y="7.090909090909065" type="line"/>
      <point x="1605.5656565656566" y="260.93939393939394" type="line" smooth="yes"/>
      <point x="1697.3535353535353" y="388.47474747474746"/>
      <point x="1732.5454545454545" y="485.2828282828283"/>
      <point x="1733.141414141414" y="582.4747474747475" type="curve" smooth="yes"/>
      <point x="1733.7373737373737" y="794.1717171717172"/>
      <point x="1595.4444444444443" y="877.4040404040404"/>
      <point x="1373.2828282828282" y="877.4040404040404" type="curve" smooth="yes"/>
      <point x="1295.6666666666665" y="877.4040404040404"/>
      <point x="1206.010101010101" y="864.0"/>
      <point x="1148.9898989898988" y="842.8080808080808" type="curve"/>
      <point x="1148.9898989898988" y="653.8484848484849" type="line"/>
      <point x="1204.181818181818" y="675.6363636363636"/>
      <point x="1273.4141414141413" y="687.6363636363636"/>
      <point x="1335.5858585858587" y="687.6363636363636" type="curve" smooth="yes"/>
      <point x="1454.949494949495" y="687.6363636363636"/>
      <point x="1502.8686868686868" y="647.4646464646465"/>
      <point x="1502.8686868686868" y="563.6262626262626" type="curve" smooth="yes"/>
      <point x="1502.8686868686868" y="498.8989898989899"/>
      <point x="1470.4848484848485" y="426.93939393939394"/>
      <point x="1394.909090909091" y="320.2121212121212" type="curve" smooth="yes"/>
      <point x="1162.3939393939393" y="-8.949494949494962" type="line"/>
    </contour>
  </outline>
</glyph>
<glyph name="threequarters" format="2">
  <advance width="1854.2929292929293"/>
  <unicode hex="00BE"/>
  <outline>
    <contour>
      <point x="302.8484848484849" y="602.5959595959596" type="curve" smooth="yes"/>
      <point x="550.4141414141413" y="602.5959595959596"/>
      <point x="697.090909090909" y="705.6161616161617"/>
      <point x="697.090909090909" y="891.4444444444445" type="curve" smooth="yes"/>
      <point x="697.090909090909" y="1025.4040404040404"/>
      <point x="625.9393939393939" y="1114.3838383838383"/>
      <point x="481.0" y="1136.979797979798" type="curve"/>
      <point x="481.0" y="1127.1919191919192" type="line"/>
      <point x="599.1313131313132" y="1152.979797979798"/>
      <point x="667.8989898989898" y="1241.3636363636363"/>
      <point x="667.8989898989898" y="1365.1515151515152" type="curve" smooth="yes"/>
      <point x="667.8989898989898" y="1534.979797979798"/>
      <point x="546.030303030303" y="1629.4040404040404"/>
      <point x="314.88888888888886" y="1629.4040404040404" type="curve" smooth="yes"/>
      <point x="235.65656565656565" y="1629.4040404040404"/>
      <point x="142.8080808080808" y="1616.0"/>
      <point x="83.57575757575758" y="1594.8080808080808" type="curve"/>
      <point x="83.57575757575758" y="1415.6767676767677" type="line"/>
      <point x="140.76767676767676" y="1438.8686868686868"/>
      <point x="214.8080808080808" y="1450.8686868686868"/>
      <point x="282.0" y="1450.8686868686868" type="curve" smooth="yes"/>
      <point x="396.5151515151515" y="1450.8686868686868"/>
      <point x="446.64646464646466" y="1414.7373737373737"/>
      <point x="446.64646464646466" y="1339.2828282828282" type="curve" smooth="yes"/>
      <point x="446.64646464646466" y="1264.8484848484848"/>
      <point x="394.979797979798" y="1218.1616161616162"/>
      <point x="279.77777777777777" y="1218.1616161616162" type="curve" smooth="yes"/>
      <point x="161.53535353535355" y="1218.1616161616162" type="line"/>
      <point x="161.53535353535355" y="1034.8181818181818" type="line"/>
      <point x="295.6969696969697" y="1034.8181818181818" type="line" smooth="yes"/>
      <point x="422.72727272727275" y="1034.8181818181818"/>
      <point x="475.83838383838383" y="990.939393939394"/>
      <point x="475.83838383838383" y="907.4848484848485" type="curve" smooth="yes"/>
      <point x="475.83838383838383" y="821.6464646464647"/>
      <point x="419.1515151515151" y="781.1313131313132"/>
      <point x="293.82828282828285" y="781.1313131313132" type="curve" smooth="yes"/>
      <point x="227.23232323232324" y="781.1313131313132"/>
      <point x="142.0" y="791.7272727272727"/>
      <point x="72.5959595959596" y="812.1111111111111" type="curve"/>
      <point x="72.5959595959596" y="632.979797979798" type="line"/>
      <point x="145.02020202020202" y="613.1919191919192"/>
      <point x="224.84848484848484" y="602.5959595959596"/>
    </contour>
    <contour>
      <point x="443.1818181818182" y="-136.0" type="line"/>
      <point x="684.6868686868686" y="-136.0" type="line"/>
      <point x="1411.111111111111" y="1616.0" type="line"/>
      <point x="1169.6060606060605" y="1616.0" type="line"/>
    </contour>
    <contour>
      <point x="1102.9898989898988" y="68.26262626262627" type="line"/>
      <point x="1829.9090909090908" y="68.26262626262627" type="line"/>
      <point x="1829.9090909090908" y="243.39393939393938" type="line"/>
      <point x="1298.7979797979797" y="243.39393939393938" type="line"/>
      <point x="1326.8383838383838" y="196.7171717171717" type="line"/>
      <point x="1614.6767676767677" y="864.0" type="line"/>
      <point x="1396.4444444444443" y="864.0" type="line"/>
      <point x="1102.9898989898988" y="196.7171717171717" type="line"/>
    </contour>
    <contour>
      <point x="1517.969696969697" y="-136.0" type="line"/>
      <point x="1718.969696969697" y="-136.0" type="line"/>
      <point x="1718.969696969697" y="526.0" type="line"/>
      <point x="1569.2828282828282" y="526.0" type="line"/>
      <point x="1517.969696969697" y="243.39393939393938" type="line"/>
    </contour>
  </outline>
</glyph>
<glyph name="questiondown" format="2">
  <advance width="866.7070707070707"/>
  <unicode hex="00BF"/>
  <outline>
    <contour>
      <point x="583.1717171717171" y="631.1717171717172" type="line"/>
      <point x="403.19191919191917" y="631.1717171717172" type="line"/>
      <point x="379.1515151515151" y="401.44444444444446" type="line"/>
      <point x="157.44444444444443" y="323.5656565656566"/>
      <point x="38.939393939393945" y="188.33333333333331"/>
      <point x="38.939393939393945" y="-16.30303030303031" type="curve" smooth="yes"/>
      <point x="38.939393939393945" y="-262.17171717171715"/>
      <point x="205.82828282828282" y="-400.0"/>
      <point x="525.8181818181818" y="-400.0" type="curve" smooth="yes"/>
      <point x="635.8585858585858" y="-400.0"/>
      <point x="765.7272727272727" y="-380.0"/>
      <point x="847.7676767676768" y="-348.80808080808083" type="curve"/>
      <point x="847.7676767676768" y="-115.13131313131316" type="line"/>
      <point x="764.5757575757575" y="-147.51515151515156"/>
      <point x="662.3232323232323" y="-165.51515151515156"/>
      <point x="565.1313131313132" y="-165.51515151515156" type="curve" smooth="yes"/>
      <point x="396.6565656565656" y="-165.51515151515156"/>
      <point x="322.35353535353534" y="-106.02020202020205"/>
      <point x="322.35353535353534" y="15.393939393939377" type="curve" smooth="yes"/>
      <point x="322.35353535353534" y="131.02020202020202"/>
      <point x="390.10101010101005" y="204.0909090909091"/>
      <point x="633.0808080808081" y="265.3737373737374" type="curve"/>
    </contour>
    <contour>
      <point x="493.1818181818182" y="1111.060606060606" type="curve" smooth="yes"/>
      <point x="380.7676767676768" y="1111.060606060606"/>
      <point x="302.01010101010104" y="1035.919191919192"/>
      <point x="302.01010101010104" y="926.909090909091" type="curve" smooth="yes"/>
      <point x="302.01010101010104" y="817.3030303030304"/>
      <point x="378.55555555555554" y="742.1616161616162"/>
      <point x="493.1818181818182" y="742.1616161616162" type="curve" smooth="yes"/>
      <point x="607.8080808080808" y="742.1616161616162"/>
      <point x="684.3535353535353" y="814.4949494949495"/>
      <point x="684.3535353535353" y="926.909090909091" type="curve" smooth="yes"/>
      <point x="684.3535353535353" y="1038.7272727272727"/>
      <point x="605.0" y="1111.060606060606"/>
    </contour>
  </outline>
</glyph>
<glyph name="Agrave" format="2">
  <advance width="1249.3434343434344"/>
  <unicode hex="00C0"/>
  <anchor x="624.969696969697" y="1520.0" name="_top"/>
  <anchor x="624.969696969697" y="0.0" name="bottom"/>
  <anchor x="1247.2121212121212" y="0.0" name="ogonek"/>
  <anchor x="624.969696969697" y="1520.0" name="top"/>
  <outline>
    <contour>
      <point x="2.131313131313135" y="0.0" type="line"/>
      <point x="290.35353535353534" y="0.0" type="line"/>
      <point x="637.7777777777777" y="1345.9292929292928" type="line"/>
      <point x="605.3535353535353" y="1345.9292929292928" type="line"/>
      <point x="955.5858585858587" y="0.0" type="line"/>
      <point x="1247.2121212121212" y="0.0" type="line"/>
      <point x="843.8787878787878" y="1480.0" type="line"/>
      <point x="405.4646464646465" y="1480.0" type="line"/>
    </contour>
    <contour>
      <point x="246.0" y="398.82828282828285" type="line"/>
      <point x="1001.9393939393939" y="398.82828282828285" type="line"/>
      <point x="945.4343434343434" y="650.1616161616162" type="line"/>
      <point x="302.5050505050505" y="650.1616161616162" type="line"/>
    </contour>
    <contour>
      <point x="495.8787878787879" y="1594.939393939394" type="line"/>
      <point x="754.060606060606" y="1594.939393939394" type="line"/>
      <point x="602.1919191919192" y="1897.828282828283" type="line"/>
      <point x="299.92929292929296" y="1897.828282828283" type="line"/>
    </contour>
  </outline>
</glyph>
<glyph name="Acircumflex" format="2">
  <advance width="1249.3434343434344"/>
  <unicode hex="00C2"/>
  <anchor x="624.969696969697" y="1520.0" name="_top"/>
  <anchor x="624.969696969697" y="0.0" name="bottom"/>
  <anchor x="1247.2121212121212" y="0.0" name="ogonek"/>
  <anchor x="624.969696969697" y="1520.0" name="top"/>
  <outline>
    <contour>
      <point x="2.131313131313135" y="0.0" type="line"/>
      <point x="290.35353535353534" y="0.0" type="line"/>
      <point x="637.7777777777777" y="1345.9292929292928" type="line"/>
      <point x="605.3535353535353" y="1345.9292929292928" type="line"/>
      <point x="955.5858585858587" y="0.0" type="line"/>
      <point x="1247.2121212121212" y="0.0" type="line"/>
      <point x="843.8787878787878" y="1480.0" type="line"/>
      <point x="405.4646464646465" y="1480.0" type="line"/>
    </contour>
    <contour>
      <point x="246.0" y="398.82828282828285" type="line"/>
      <point x="1001.9393939393939" y="398.82828282828285" type="line"/>
      <point x="945.4343434343434" y="650.1616161616162" type="line"/>
      <point x="302.5050505050505" y="650.1616161616162" type="line"/>
    </contour>
    <contour>
      <point x="306.72727272727275" y="1594.939393939394" type="line"/>
      <point x="507.30303030303025" y="1594.939393939394" type="line"/>
      <point x="642.7979797979798" y="1820.090909090909" type="line"/>
      <point x="607.1414141414141" y="1820.090909090909" type="line"/>
      <point x="742.6363636363636" y="1594.939393939394" type="line"/>
      <point x="943.2121212121212" y="1594.939393939394" type="line"/>
      <point x="750.020202020202" y="1897.828282828283" type="line"/>
      <point x="499.9191919191919" y="1897.828282828283" type="line"/>
    </contour>
  </outline>
</glyph>
<glyph name="Atilde" format="2">
  <advance width="1249.3434343434344"/>
  <unicode hex="00C3"/>
  <anchor x="624.969696969697" y="1520.0" name="_top"/>
  <anchor x="624.969696969697" y="0.0" name="bottom"/>
  <anchor x="1247.2121212121212" y="0.0" name="ogonek"/>
  <anchor x="624.969696969697" y="1520.0" name="top"/>
  <outline>
    <contour>
      <point x="2.131313131313135" y="0.0" type="line"/>
      <point x="290.35353535353534" y="0.0" type="line"/>
      <point x="637.7777777777777" y="1345.9292929292928" type="line"/>
      <point x="605.3535353535353" y="1345.9292929292928" type="line"/>
      <point x="955.5858585858587" y="0.0" type="line"/>
      <point x="1247.2121212121212" y="0.0" type="line"/>
      <point x="843.8787878787878" y="1480.0" type="line"/>
      <point x="405.4646464646465" y="1480.0" type="line"/>
    </contour>
    <contour>
      <point x="246.0" y="398.82828282828285" type="line"/>
      <point x="1001.9393939393939" y="398.82828282828285" type="line"/>
      <point x="945.4343434343434" y="650.1616161616162" type="line"/>
      <point x="302.5050505050505" y="650.1616161616162" type="line"/>
    </contour>
    <contour>
      <point x="782.4545454545455" y="1618.7777777777778" type="curve" smooth="yes"/>
      <point x="864.3232323232323" y="1618.7777777777778"/>
      <point x="920.1515151515151" y="1641.3737373737374"/>
      <point x="967.0" y="1690.6060606060605" type="curve"/>
      <point x="967.0" y="1874.5454545454545" type="line"/>
      <point x="912.1515151515151" y="1825.141414141414"/>
      <point x="860.9191919191919" y="1799.7373737373737"/>
      <point x="785.2626262626262" y="1799.7373737373737" type="curve" smooth="yes"/>
      <point x="680.7979797979798" y="1799.7373737373737"/>
      <point x="594.1616161616162" y="1880.5454545454545"/>
      <point x="467.4848484848485" y="1880.5454545454545" type="curve" smooth="yes"/>
      <point x="385.6161616161616" y="1880.5454545454545"/>
      <point x="329.7878787878788" y="1856.5454545454545"/>
      <point x="282.93939393939394" y="1807.3131313131314" type="curve"/>
      <point x="282.93939393939394" y="1623.3737373737374" type="line"/>
      <point x="337.7878787878788" y="1672.7777777777778"/>
      <point x="389.020202020202" y="1698.1818181818182"/>
      <point x="464.67676767676767" y="1698.1818181818182" type="curve" smooth="yes"/>
      <point x="569.1414141414141" y="1698.1818181818182"/>
      <point x="655.7777777777777" y="1618.7777777777778"/>
    </contour>
  </outline>
</glyph>
<glyph name="Adieresis" format="2">
  <advance width="1249.3434343434344"/>
  <unicode hex="00C4"/>
  <anchor x="624.969696969697" y="1520.0" name="_top"/>
  <anchor x="624.969696969697" y="0.0" name="bottom"/>
  <anchor x="1247.2121212121212" y="0.0" name="ogonek"/>
  <anchor x="624.969696969697" y="1520.0" name="top"/>
  <outline>
    <contour>
      <point x="2.131313131313135" y="0.0" type="line"/>
      <point x="290.35353535353534" y="0.0" type="line"/>
      <point x="637.7777777777777" y="1345.9292929292928" type="line"/>
      <point x="605.3535353535353" y="1345.9292929292928" type="line"/>
      <point x="955.5858585858587" y="0.0" type="line"/>
      <point x="1247.2121212121212" y="0.0" type="line"/>
      <point x="843.8787878787878" y="1480.0" type="line"/>
      <point x="405.4646464646465" y="1480.0" type="line"/>
    </contour>
    <contour>
      <point x="246.0" y="398.82828282828285" type="line"/>
      <point x="1001.9393939393939" y="398.82828282828285" type="line"/>
      <point x="945.4343434343434" y="650.1616161616162" type="line"/>
      <point x="302.5050505050505" y="650.1616161616162" type="line"/>
    </contour>
    <contour>
      <point x="854.1111111111111" y="1605.7575757575758" type="curve" smooth="yes"/>
      <point x="957.5050505050505" y="1605.7575757575758"/>
      <point x="1018.6060606060605" y="1657.8383838383838"/>
      <point x="1018.6060606060605" y="1750.5959595959596" type="curve" smooth="yes"/>
      <point x="1018.6060606060605" y="1843.3535353535353"/>
      <point x="957.5050505050505" y="1896.030303030303"/>
      <point x="854.1111111111111" y="1896.030303030303" type="curve" smooth="yes"/>
      <point x="750.7171717171717" y="1896.030303030303"/>
      <point x="689.6161616161617" y="1843.3535353535353"/>
      <point x="689.6161616161617" y="1750.5959595959596" type="curve" smooth="yes"/>
      <point x="689.6161616161617" y="1657.8383838383838"/>
      <point x="750.7171717171717" y="1605.7575757575758"/>
    </contour>
    <contour>
      <point x="395.82828282828285" y="1605.7575757575758" type="curve" smooth="yes"/>
      <point x="499.2222222222222" y="1605.7575757575758"/>
      <point x="560.3232323232323" y="1657.8383838383838"/>
      <point x="560.3232323232323" y="1750.5959595959596" type="curve" smooth="yes"/>
      <point x="560.3232323232323" y="1843.3535353535353"/>
      <point x="499.2222222222222" y="1896.030303030303"/>
      <point x="395.82828282828285" y="1896.030303030303" type="curve" smooth="yes"/>
      <point x="292.4343434343434" y="1896.030303030303"/>
      <point x="231.33333333333337" y="1843.3535353535353"/>
      <point x="231.33333333333337" y="1750.5959595959596" type="curve" smooth="yes"/>
      <point x="231.33333333333337" y="1657.8383838383838"/>
      <point x="292.4343434343434" y="1605.7575757575758"/>
    </contour>
  </outline>
</glyph>
<glyph name="Aring" format="2">
  <advance width="1249.3434343434344"/>
  <unicode hex="00C5"/>
  <anchor x="626.1616161616162" y="1466.3636363636363" name="_top"/>
  <anchor x="624.969696969697" y="0.0" name="bottom"/>
  <anchor x="1247.2121212121212" y="0.0" name="ogonek"/>
  <anchor x="624.969696969697" y="1520.0" name="top"/>
  <outline>
    <contour>
      <point x="2.131313131313135" y="0.0" type="line"/>
      <point x="290.35353535353534" y="0.0" type="line"/>
      <point x="637.7777777777777" y="1345.9292929292928" type="line"/>
      <point x="605.3535353535353" y="1345.9292929292928" type="line"/>
      <point x="955.5858585858587" y="0.0" type="line"/>
      <point x="1247.2121212121212" y="0.0" type="line"/>
      <point x="843.8787878787878" y="1480.0" type="line"/>
      <point x="405.4646464646465" y="1480.0" type="line"/>
    </contour>
    <contour>
      <point x="246.0" y="398.82828282828285" type="line"/>
      <point x="1001.9393939393939" y="398.82828282828285" type="line"/>
      <point x="945.4343434343434" y="650.1616161616162" type="line"/>
      <point x="302.5050505050505" y="650.1616161616162" type="line"/>
    </contour>
    <contour>
      <point x="626.1616161616162" y="1528.2828282828282" type="curve" smooth="yes"/>
      <point x="750.4141414141413" y="1528.2828282828282"/>
      <point x="841.0505050505051" y="1616.111111111111"/>
      <point x="841.0505050505051" y="1737.5555555555554" type="curve" smooth="yes"/>
      <point x="841.0505050505051" y="1859.0"/>
      <point x="750.4141414141413" y="1946.8282828282827"/>
      <point x="626.1616161616162" y="1946.8282828282827" type="curve" smooth="yes"/>
      <point x="501.9090909090909" y="1946.8282828282827"/>
      <point x="411.27272727272725" y="1859.0"/>
      <point x="411.27272727272725" y="1737.5555555555554" type="curve" smooth="yes"/>
      <point x="411.27272727272725" y="1616.111111111111"/>
      <point x="501.9090909090909" y="1528.2828282828282"/>
    </contour>
    <contour>
      <point x="626.1616161616162" y="1640.6565656565656" type="curve" smooth="yes"/>
      <point x="571.2222222222222" y="1640.6565656565656"/>
      <point x="532.6666666666666" y="1678.020202020202"/>
      <point x="532.6666666666666" y="1737.5555555555554" type="curve" smooth="yes"/>
      <point x="532.6666666666666" y="1797.090909090909"/>
      <point x="571.2222222222222" y="1834.4545454545455"/>
      <point x="626.1616161616162" y="1834.4545454545455" type="curve" smooth="yes"/>
      <point x="681.10101010101" y="1834.4545454545455"/>
      <point x="719.6565656565657" y="1797.090909090909"/>
      <point x="719.6565656565657" y="1737.5555555555554" type="curve" smooth="yes"/>
      <point x="719.6565656565657" y="1678.020202020202"/>
      <point x="681.10101010101" y="1640.6565656565656"/>
    </contour>
  </outline>
</glyph>
<glyph name="AE" format="2">
  <advance width="1753.7979797979797"/>
  <unicode hex="00C6"/>
  <anchor x="923.6060606060606" y="0.0" name="bottom"/>
  <anchor x="905.1313131313132" y="1520.0" name="top"/>
  <outline>
    <contour>
      <point x="2.131313131313135" y="0.0" type="line"/>
      <point x="294.5656565656565" y="0.0" type="line"/>
      <point x="620.7171717171717" y="1225.858585858586" type="line"/>
      <point x="917.3434343434343" y="1225.858585858586" type="line"/>
      <point x="917.3434343434343" y="1480.0" type="line"/>
      <point x="409.04040404040404" y="1480.0" type="line"/>
    </contour>
    <contour>
      <point x="246.59595959595958" y="397.4242424242425" type="line"/>
      <point x="918.070707070707" y="397.4242424242425" type="line"/>
      <point x="918.070707070707" y="651.5656565656566" type="line"/>
      <point x="303.1010101010101" y="651.5656565656566" type="line"/>
    </contour>
    <contour>
      <point x="868.5454545454545" y="0.0" type="line"/>
      <point x="1702.949494949495" y="0.0" type="line"/>
      <point x="1702.949494949495" y="254.14141414141412" type="line"/>
      <point x="1136.7272727272727" y="254.14141414141412" type="line"/>
      <point x="1069.7070707070707" y="1225.858585858586" type="line"/>
      <point x="1692.949494949495" y="1225.858585858586" type="line"/>
      <point x="1692.949494949495" y="1480.0" type="line"/>
      <point x="773.6565656565657" y="1480.0" type="line"/>
    </contour>
    <contour>
      <point x="1005.8888888888889" y="629.7171717171717" type="line"/>
      <point x="1593.121212121212" y="629.7171717171717" type="line"/>
      <point x="1593.121212121212" y="883.8585858585858" type="line"/>
      <point x="1005.8888888888889" y="883.8585858585858" type="line"/>
    </contour>
  </outline>
</glyph>
<glyph name="Edieresis" format="2">
  <advance width="1073.7676767676767"/>
  <unicode hex="00CB"/>
  <anchor x="584.0808080808081" y="1520.0" name="_top"/>
  <anchor x="584.0808080808081" y="0.0" name="bottom"/>
  <anchor x="942.9191919191919" y="0.0" name="ogonek"/>
  <anchor x="584.0808080808081" y="1520.0" name="top"/>
  <anchor x="36.0" y="1480.0" name="topleft"/>
  <outline>
    <contour>
      <point x="110.64646464646466" y="0.0" type="line"/>
      <point x="1022.9191919191919" y="0.0" type="line"/>
      <point x="1022.9191919191919" y="254.14141414141412" type="line"/>
      <point x="401.88888888888886" y="254.14141414141412" type="line"/>
      <point x="401.88888888888886" y="1225.858585858586" type="line"/>
      <point x="1012.9191919191919" y="1225.858585858586" type="line"/>
      <point x="1012.9191919191919" y="1480.0" type="line"/>
      <point x="110.64646464646466" y="1480.0" type="line"/>
    </contour>
    <contour>
      <point x="323.68686868686865" y="629.7171717171717" type="line"/>
      <point x="913.090909090909" y="629.7171717171717" type="line"/>
      <point x="913.090909090909" y="883.8585858585858" type="line"/>
      <point x="323.68686868686865" y="883.8585858585858" type="line"/>
    </contour>
    <contour>
      <point x="813.2222222222222" y="1605.7575757575758" type="curve" smooth="yes"/>
      <point x="916.6161616161615" y="1605.7575757575758"/>
      <point x="977.7171717171717" y="1657.8383838383838"/>
      <point x="977.7171717171717" y="1750.5959595959596" type="curve" smooth="yes"/>
      <point x="977.7171717171717" y="1843.3535353535353"/>
      <point x="916.6161616161615" y="1896.030303030303"/>
      <point x="813.2222222222222" y="1896.030303030303" type="curve" smooth="yes"/>
      <point x="709.8282828282828" y="1896.030303030303"/>
      <point x="648.7272727272727" y="1843.3535353535353"/>
      <point x="648.7272727272727" y="1750.5959595959596" type="curve" smooth="yes"/>
      <point x="648.7272727272727" y="1657.8383838383838"/>
      <point x="709.8282828282828" y="1605.7575757575758"/>
    </contour>
    <contour>
      <point x="354.93939393939394" y="1605.7575757575758" type="curve" smooth="yes"/>
      <point x="458.3333333333333" y="1605.7575757575758"/>
      <point x="519.4343434343434" y="1657.8383838383838"/>
      <point x="519.4343434343434" y="1750.5959595959596" type="curve" smooth="yes"/>
      <point x="519.4343434343434" y="1843.3535353535353"/>
      <point x="458.3333333333333" y="1896.030303030303"/>
      <point x="354.93939393939394" y="1896.030303030303" type="curve" smooth="yes"/>
      <point x="251.54545454545456" y="1896.030303030303"/>
      <point x="190.44444444444446" y="1843.3535353535353"/>
      <point x="190.44444444444446" y="1750.5959595959596" type="curve" smooth="yes"/>
      <point x="190.44444444444446" y="1657.8383838383838"/>
      <point x="251.54545454545456" y="1605.7575757575758"/>
    </contour>
  </outline>
</glyph>
<glyph name="Iacute" format="2">
  <advance width="516.7474747474747"/>
  <unicode hex="00CD"/>
  <anchor x="258.37373737373736" y="1520.0" name="_top"/>
  <anchor x="258.37373737373736" y="0.0" name="bottom"/>
  <anchor x="406.10101010101005" y="0.0" name="ogonek"/>
  <anchor x="258.37373737373736" y="1520.0" name="top"/>
  <outline>
    <contour>
      <point x="110.64646464646466" y="0.0" type="line"/>
      <point x="406.10101010101005" y="0.0" type="line"/>
      <point x="406.10101010101005" y="1480.0" type="line"/>
      <point x="110.64646464646466" y="1480.0" type="line"/>
    </contour>
    <contour>
      <point x="129.2828282828283" y="1594.939393939394" type="line"/>
      <point x="387.4646464646464" y="1594.939393939394" type="line"/>
      <point x="583.4141414141413" y="1897.828282828283" type="line"/>
      <point x="281.1515151515151" y="1897.828282828283" type="line"/>
    </contour>
  </outline>
</glyph>
<glyph name="Icircumflex" format="2">
  <advance width="516.7474747474747"/>
  <unicode hex="00CE"/>
  <anchor x="258.37373737373736" y="1520.0" name="_top"/>
  <anchor x="258.37373737373736" y="0.0" name="bottom"/>
  <anchor x="406.10101010101005" y="0.0" name="ogonek"/>
  <anchor x="258.37373737373736" y="1520.0" name="top"/>
  <outline>
    <contour>
      <point x="110.64646464646466" y="0.0" type="line"/>
      <point x="406.10101010101005" y="0.0" type="line"/>
      <point x="406.10101010101005" y="1480.0" type="line"/>
      <point x="110.64646464646466" y="1480.0" type="line"/>
    </contour>
    <contour>
      <point x="-59.868686868686865" y="1594.939393939394" type="line"/>
      <point x="140.70707070707067" y="1594.939393939394" type="line"/>
      <point x="276.2020202020202" y="1820.090909090909" type="line"/>
      <point x="240.54545454545453" y="1820.090909090909" type="line"/>
      <point x="376.04040404040404" y="1594.939393939394" type="line"/>
      <point x="576.6161616161615" y="1594.939393939394" type="line"/>
      <point x="383.4242424242424" y="1897.828282828283" type="line"/>
      <point x="133.32323232323233" y="1897.828282828283" type="line"/>
    </contour>
  </outline>
</glyph>
<glyph name="Idieresis" format="2">
  <advance width="516.7474747474747"/>
  <unicode hex="00CF"/>
  <anchor x="258.37373737373736" y="1520.0" name="_top"/>
  <anchor x="258.37373737373736" y="0.0" name="bottom"/>
  <anchor x="406.10101010101005" y="0.0" name="ogonek"/>
  <anchor x="258.37373737373736" y="1520.0" name="top"/>
  <outline>
    <contour>
      <point x="110.64646464646466" y="0.0" type="line"/>
      <point x="406.10101010101005" y="0.0" type="line"/>
      <point x="406.10101010101005" y="1480.0" type="line"/>
      <point x="110.64646464646466" y="1480.0" type="line"/>
    </contour>
    <contour>
      <point x="487.5151515151515" y="1605.7575757575758" type="curve" smooth="yes"/>
      <point x="590.9090909090909" y="1605.7575757575758"/>
      <point x="652.0101010101009" y="1657.8383838383838"/>
      <point x="652.0101010101009" y="1750.5959595959596" type="curve" smooth="yes"/>
      <point x="652.0101010101009" y="1843.3535353535353"/>
      <point x="590.9090909090909" y="1896.030303030303"/>
      <point x="487.5151515151515" y="1896.030303030303" type="curve" smooth="yes"/>
      <point x="384.1212121212121" y="1896.030303030303"/>
      <point x="323.020202020202" y="1843.3535353535353"/>
      <point x="323.020202020202" y="1750.5959595959596" type="curve" smooth="yes"/>
      <point x="323.020202020202" y="1657.8383838383838"/>
      <point x="384.1212121212121" y="1605.7575757575758"/>
    </contour>
    <contour>
      <point x="29.232323232323232" y="1605.7575757575758" type="curve" smooth="yes"/>
      <point x="132.62626262626262" y="1605.7575757575758"/>
      <point x="193.7272727272727" y="1657.8383838383838"/>
      <point x="193.7272727272727" y="1750.5959595959596" type="curve" smooth="yes"/>
      <point x="193.7272727272727" y="1843.3535353535353"/>
      <point x="132.62626262626262" y="1896.030303030303"/>
      <point x="29.232323232323232" y="1896.030303030303" type="curve" smooth="yes"/>
      <point x="-74.16161616161615" y="1896.030303030303"/>
      <point x="-135.26262626262624" y="1843.3535353535353"/>
      <point x="-135.26262626262624" y="1750.5959595959596" type="curve" smooth="yes"/>
      <point x="-135.26262626262624" y="1657.8383838383838"/>
      <point x="-74.16161616161615" y="1605.7575757575758"/>
    </contour>
  </outline>
</glyph>
<glyph name="Ntilde" format="2">
  <advance width="1340.6666666666667"/>
  <unicode hex="00D1"/>
  <anchor x="670.3333333333334" y="1520.0" name="_top"/>
  <anchor x="670.3333333333334" y="0.0" name="bottom"/>
  <anchor x="670.3333333333334" y="1520.0" name="top"/>
  <outline>
    <contour>
      <point x="110.64646464646466" y="0.0" type="line"/>
      <point x="387.25252525252523" y="0.0" type="line"/>
      <point x="387.25252525252523" y="1076.0101010101012" type="line"/>
      <point x="337.0" y="1076.0101010101012" type="line"/>
      <point x="933.5858585858587" y="0.0" type="line"/>
      <point x="1230.020202020202" y="0.0" type="line"/>
      <point x="1230.020202020202" y="1480.0" type="line"/>
      <point x="953.4141414141415" y="1480.0" type="line"/>
      <point x="953.4141414141415" y="403.9898989898989" type="line"/>
      <point x="1003.6666666666666" y="403.9898989898989" type="line"/>
      <point x="407.0808080808081" y="1480.0" type="line"/>
      <point x="110.64646464646466" y="1480.0" type="line"/>
    </contour>
    <contour>
      <point x="827.8181818181818" y="1618.7777777777778" type="curve" smooth="yes"/>
      <point x="909.6868686868687" y="1618.7777777777778"/>
      <point x="965.5151515151515" y="1641.3737373737374"/>
      <point x="1012.3636363636364" y="1690.6060606060605" type="curve"/>
      <point x="1012.3636363636364" y="1874.5454545454545" type="line"/>
      <point x="957.5151515151515" y="1825.141414141414"/>
      <point x="906.2828282828283" y="1799.7373737373737"/>
      <point x="830.6262626262626" y="1799.7373737373737" type="curve" smooth="yes"/>
      <point x="726.1616161616162" y="1799.7373737373737"/>
      <point x="639.5252525252525" y="1880.5454545454545"/>
      <point x="512.8484848484849" y="1880.5454545454545" type="curve" smooth="yes"/>
      <point x="430.979797979798" y="1880.5454545454545"/>
      <point x="375.1515151515151" y="1856.5454545454545"/>
      <point x="328.3030303030303" y="1807.3131313131314" type="curve"/>
      <point x="328.3030303030303" y="1623.3737373737374" type="line"/>
      <point x="383.1515151515151" y="1672.7777777777778"/>
      <point x="434.3838383838384" y="1698.1818181818182"/>
      <point x="510.04040404040404" y="1698.1818181818182" type="curve" smooth="yes"/>
      <point x="614.5050505050505" y="1698.1818181818182"/>
      <point x="701.1414141414141" y="1618.7777777777778"/>
    </contour>
  </outline>
</glyph>
<glyph name="Otilde" format="2">
  <advance width="1326.8686868686868"/>
  <unicode hex="00D5"/>
  <anchor x="663.4343434343434" y="1520.0" name="_top"/>
  <anchor x="663.4343434343434" y="0.0" name="bottom"/>
  <anchor x="663.4343434343434" y="740.0" name="center"/>
  <anchor x="839.9393939393939" y="0.0" name="ogonek"/>
  <anchor x="663.4343434343434" y="1520.0" name="top"/>
  <anchor x="40.80808080808081" y="1480.0" name="topleft"/>
  <anchor x="834.3232323232323" y="1480.0" name="topright"/>
  <outline>
    <contour>
      <point x="663.4343434343434" y="-19.404040404040405" type="curve" smooth="yes"/>
      <point x="1018.4040404040404" y="-19.404040404040405"/>
      <point x="1259.7575757575758" y="197.44444444444443"/>
      <point x="1259.7575757575758" y="740.0" type="curve" smooth="yes"/>
      <point x="1259.7575757575758" y="1282.5555555555557"/>
      <point x="1018.4040404040404" y="1499.4040404040404"/>
      <point x="663.4343434343434" y="1499.4040404040404" type="curve" smooth="yes"/>
      <point x="308.4646464646465" y="1499.4040404040404"/>
      <point x="67.11111111111111" y="1282.5555555555557"/>
      <point x="67.11111111111111" y="740.0" type="curve" smooth="yes"/>
      <point x="67.11111111111111" y="197.44444444444443"/>
      <point x="308.4646464646465" y="-19.404040404040405"/>
    </contour>
    <contour>
      <point x="663.4343434343434" y="227.71717171717168" type="curve" smooth="yes"/>
      <point x="481.4242424242424" y="227.71717171717168"/>
      <point x="372.18181818181813" y="352.02020202020196"/>
      <point x="372.18181818181813" y="746.8080808080808" type="curve" smooth="yes"/>
      <point x="372.18181818181813" y="1127.979797979798"/>
      <point x="481.4242424242424" y="1252.2828282828284"/>
      <point x="663.4343434343434" y="1252.2828282828284" type="curve" smooth="yes"/>
      <point x="845.4444444444445" y="1252.2828282828284"/>
      <point x="954.6868686868687" y="1127.979797979798"/>
      <point x="954.6868686868687" y="733.1919191919192" type="curve" smooth="yes"/>
      <point x="954.6868686868687" y="352.02020202020196"/>
      <point x="845.4444444444445" y="227.71717171717168"/>
    </contour>
    <contour>
      <point x="820.9191919191919" y="1618.7777777777778" type="curve" smooth="yes"/>
      <point x="902.7878787878788" y="1618.7777777777778"/>
      <point x="958.6161616161615" y="1641.3737373737374"/>
      <point x="1005.4646464646464" y="1690.6060606060605" type="curve"/>
      <point x="1005.4646464646464" y="1874.5454545454545" type="line"/>
      <point x="950.6161616161615" y="1825.141414141414"/>
      <point x="899.3838383838383" y="1799.7373737373737"/>
      <point x="823.7272727272727" y="1799.7373737373737" type="curve" smooth="yes"/>
      <point x="719.2626262626262" y="1799.7373737373737"/>
      <point x="632.6262626262626" y="1880.5454545454545"/>
      <point x="505.9494949494949" y="1880.5454545454545" type="curve" smooth="yes"/>
      <point x="424.0808080808081" y="1880.5454545454545"/>
      <point x="368.25252525252523" y="1856.5454545454545"/>
      <point x="321.4040404040404" y="1807.3131313131314" type="curve"/>
      <point x="321.4040404040404" y="1623.3737373737374" type="line"/>
      <point x="376.25252525252523" y="1672.7777777777778"/>
      <point x="427.4848484848485" y="1698.1818181818182"/>
      <point x="503.14141414141415" y="1698.1818181818182" type="curve" smooth="yes"/>
      <point x="607.6060606060606" y="1698.1818181818182"/>
      <point x="694.2424242424242" y="1618.7777777777778"/>
    </contour>
  </outline>
</glyph>
<glyph name="Odieresis" format="2">
  <advance width="1326.8686868686868"/>
  <unicode hex="00D6"/>
  <anchor x="663.4343434343434" y="1520.0" name="_top"/>
  <anchor x="663.4343434343434" y="0.0" name="bottom"/>
  <anchor x="663.4343434343434" y="740.0" name="center"/>
  <anchor x="839.9393939393939" y="0.0" name="ogonek"/>
  <anchor x="663.4343434343434" y="1520.0" name="top"/>
  <anchor x="40.80808080808081" y="1480.0" name="topleft"/>
  <anchor x="834.3232323232323" y="1480.0" name="topright"/>
  <outline>
    <contour>
      <point x="663.4343434343434" y="-19.404040404040405" type="curve" smooth="yes"/>
      <point x="1018.4040404040404" y="-19.404040404040405"/>
      <point x="1259.7575757575758" y="197.44444444444443"/>
      <point x="1259.7575757575758" y="740.0" type="curve" smooth="yes"/>
      <point x="1259.7575757575758" y="1282.5555555555557"/>
      <point x="1018.4040404040404" y="1499.4040404040404"/>
      <point x="663.4343434343434" y="1499.4040404040404" type="curve" smooth="yes"/>
      <point x="308.4646464646465" y="1499.4040404040404"/>
      <point x="67.11111111111111" y="1282.5555555555557"/>
      <point x="67.11111111111111" y="740.0" type="curve" smooth="yes"/>
      <point x="67.11111111111111" y="197.44444444444443"/>
      <point x="308.4646464646465" y="-19.404040404040405"/>
    </contour>
    <contour>
      <point x="663.4343434343434" y="227.71717171717168" type="curve" smooth="yes"/>
      <point x="481.4242424242424" y="227.71717171717168"/>
      <point x="372.18181818181813" y="352.02020202020196"/>
      <point x="372.18181818181813" y="746.8080808080808" type="curve" smooth="yes"/>
      <point x="372.18181818181813" y="1127.979797979798"/>
      <point x="481.4242424242424" y="1252.2828282828284"/>
      <point x="663.4343434343434" y="1252.2828282828284" type="curve" smooth="yes"/>
      <point x="845.4444444444445" y="1252.2828282828284"/>
      <point x="954.6868686868687" y="1127.979797979798"/>
      <point x="954.6868686868687" y="733.1919191919192" type="curve" smooth="yes"/>
      <point x="954.6868686868687" y="352.02020202020196"/>
      <point x="845.4444444444445" y="227.71717171717168"/>
    </contour>
    <contour>
      <point x="892.5757575757575" y="1605.7575757575758" type="curve" smooth="yes"/>
      <point x="995.969696969697" y="1605.7575757575758"/>
      <point x="1057.070707070707" y="1657.8383838383838"/>
      <point x="1057.070707070707" y="1750.5959595959596" type="curve" smooth="yes"/>
      <point x="1057.070707070707" y="1843.3535353535353"/>
      <point x="995.969696969697" y="1896.030303030303"/>
      <point x="892.5757575757575" y="1896.030303030303" type="curve" smooth="yes"/>
      <point x="789.1818181818181" y="1896.030303030303"/>
      <point x="728.0808080808081" y="1843.3535353535353"/>
      <point x="728.0808080808081" y="1750.5959595959596" type="curve" smooth="yes"/>
      <point x="728.0808080808081" y="1657.8383838383838"/>
      <point x="789.1818181818181" y="1605.7575757575758"/>
    </contour>
    <contour>
      <point x="434.2929292929293" y="1605.7575757575758" type="curve" smooth="yes"/>
      <point x="537.6868686868687" y="1605.7575757575758"/>
      <point x="598.7878787878788" y="1657.8383838383838"/>
      <point x="598.7878787878788" y="1750.5959595959596" type="curve" smooth="yes"/>
      <point x="598.7878787878788" y="1843.3535353535353"/>
      <point x="537.6868686868687" y="1896.030303030303"/>
      <point x="434.2929292929293" y="1896.030303030303" type="curve" smooth="yes"/>
      <point x="330.8989898989899" y="1896.030303030303"/>
      <point x="269.7979797979798" y="1843.3535353535353"/>
      <point x="269.7979797979798" y="1750.5959595959596" type="curve" smooth="yes"/>
      <point x="269.7979797979798" y="1657.8383838383838"/>
      <point x="330.8989898989899" y="1605.7575757575758"/>
    </contour>
  </outline>
</glyph>
<glyph name="multiply" format="2">
  <advance width="990.1212121212121"/>
  <unicode hex="00D7"/>
  <outline>
    <contour>
      <point x="239.01010101010098" y="342.01010101010104" type="line"/>
      <point x="495.06060606060606" y="598.0606060606061" type="line"/>
      <point x="751.1111111111111" y="342.01010101010104" type="line"/>
      <point x="913.0505050505051" y="503.9494949494949" type="line"/>
      <point x="657.0" y="760.0" type="line"/>
      <point x="913.0505050505051" y="1016.0505050505051" type="line"/>
      <point x="751.1111111111111" y="1177.989898989899" type="line"/>
      <point x="495.06060606060606" y="921.9393939393939" type="line"/>
      <point x="239.01010101010098" y="1177.989898989899" type="line"/>
      <point x="77.07070707070707" y="1016.0505050505051" type="line"/>
      <point x="333.1212121212121" y="760.0" type="line"/>
      <point x="77.07070707070707" y="503.9494949494949" type="line"/>
    </contour>
  </outline>
</glyph>
<glyph name="Ugrave" format="2">
  <advance width="1296.2828282828282"/>
  <unicode hex="00D9"/>
  <anchor x="651.9494949494949" y="1520.0" name="_top"/>
  <anchor x="651.9494949494949" y="0.0" name="bottom"/>
  <anchor x="864.020202020202" y="0.0" name="ogonek"/>
  <anchor x="651.9494949494949" y="1520.0" name="top"/>
  <anchor x="950.7272727272727" y="1480.0" name="topright"/>
  <outline>
    <contour>
      <point x="651.9494949494949" y="-19.404040404040405" type="curve" smooth="yes"/>
      <point x="1018.7070707070707" y="-19.404040404040405"/>
      <point x="1192.2323232323233" y="154.42424242424244"/>
      <point x="1192.2323232323233" y="570.6262626262626" type="curve" smooth="yes"/>
      <point x="1192.2323232323233" y="1480.0" type="line"/>
      <point x="902.989898989899" y="1480.0" type="line"/>
      <point x="902.989898989899" y="536.7575757575758" type="line" smooth="yes"/>
      <point x="902.989898989899" y="316.3636363636363"/>
      <point x="819.4545454545455" y="230.52525252525248"/>
      <point x="651.9494949494949" y="230.52525252525248" type="curve" smooth="yes"/>
      <point x="484.4444444444444" y="230.52525252525248"/>
      <point x="399.50505050505046" y="316.3636363636363"/>
      <point x="399.50505050505046" y="536.7575757575758" type="curve" smooth="yes"/>
      <point x="399.50505050505046" y="1480.0" type="line"/>
      <point x="104.05050505050505" y="1480.0" type="line"/>
      <point x="104.05050505050505" y="570.6262626262626" type="line" smooth="yes"/>
      <point x="104.05050505050505" y="154.42424242424244"/>
      <point x="282.3838383838384" y="-19.404040404040405"/>
    </contour>
    <contour>
      <point x="522.8585858585859" y="1594.939393939394" type="line"/>
      <point x="781.040404040404" y="1594.939393939394" type="line"/>
      <point x="629.1717171717171" y="1897.828282828283" type="line"/>
      <point x="326.90909090909093" y="1897.828282828283" type="line"/>
    </contour>
  </outline>
</glyph>
<glyph name="Thorn" format="2">
  <advance width="1179.1313131313132"/>
  <unicode hex="00DE"/>
  <outline>
    <contour>
      <point x="110.64646464646466" y="0.0" type="line"/>
      <point x="406.10101010101005" y="0.0" type="line"/>
      <point x="406.10101010101005" y="230.85858585858585" type="line"/>
      <point x="447.25252525252523" y="229.07070707070707"/>
      <point x="480.78787878787875" y="227.07070707070707"/>
      <point x="527.3434343434343" y="227.07070707070707" type="curve" smooth="yes"/>
      <point x="907.9393939393939" y="227.07070707070707"/>
      <point x="1109.4242424242425" y="407.7070707070707"/>
      <point x="1109.4242424242425" y="759.4040404040404" type="curve" smooth="yes"/>
      <point x="1109.4242424242425" y="1129.1010101010102"/>
      <point x="906.5353535353535" y="1294.3333333333333"/>
      <point x="508.96969696969694" y="1294.3333333333333" type="curve" smooth="yes"/>
      <point x="473.30303030303025" y="1294.3333333333333"/>
      <point x="432.8282828282828" y="1290.5454545454545"/>
      <point x="406.10101010101005" y="1288.1616161616162" type="curve"/>
      <point x="406.10101010101005" y="1480.0" type="line"/>
      <point x="110.64646464646466" y="1480.0" type="line"/>
    </contour>
    <contour>
      <point x="529.1313131313132" y="467.17171717171715" type="curve" smooth="yes"/>
      <point x="482.5757575757575" y="467.17171717171715"/>
      <point x="445.04040404040404" y="469.17171717171715"/>
      <point x="406.10101010101005" y="474.3636363636363" type="curve"/>
      <point x="406.10101010101005" y="1043.848484848485" type="line"/>
      <point x="445.2121212121212" y="1051.0404040404042"/>
      <point x="482.1111111111111" y="1054.2323232323233"/>
      <point x="532.8383838383838" y="1054.2323232323233" type="curve" smooth="yes"/>
      <point x="728.939393939394" y="1054.2323232323233"/>
      <point x="821.2020202020202" y="965.5454545454545"/>
      <point x="821.2020202020202" y="755.4040404040404" type="curve" smooth="yes"/>
      <point x="821.2020202020202" y="550.6262626262626"/>
      <point x="725.959595959596" y="467.17171717171715"/>
    </contour>
  </outline>
</glyph>
<glyph name="germandbls" format="2">
  <advance width="1341.4141414141413"/>
  <unicode hex="00DF"/>
  <outline>
    <contour>
      <point x="875.4242424242424" y="-20.808080808080806" type="curve" smooth="yes"/>
      <point x="1146.3939393939393" y="-20.808080808080806"/>
      <point x="1309.7070707070707" y="111.65656565656565"/>
      <point x="1309.7070707070707" y="328.5454545454545" type="curve" smooth="yes"/>
      <point x="1309.7070707070707" y="505.050505050505"/>
      <point x="1227.6262626262626" y="597.4343434343434"/>
      <point x="1059.4949494949494" y="640.2020202020202" type="curve" smooth="yes"/>
      <point x="919.7575757575758" y="674.6262626262626" type="line" smooth="yes"/>
      <point x="861.5353535353535" y="690.3737373737374"/>
      <point x="833.6161616161615" y="716.4646464646464"/>
      <point x="833.6161616161615" y="767.8787878787879" type="curve" smooth="yes"/>
      <point x="833.6161616161615" y="826.6969696969697"/>
      <point x="880.3030303030303" y="879.7676767676768"/>
      <point x="1037.6262626262626" y="879.7676767676768" type="curve" smooth="yes"/>
      <point x="1084.3939393939393" y="879.7676767676768"/>
      <point x="1127.030303030303" y="876.5757575757576"/>
      <point x="1166.2222222222222" y="869.3838383838385" type="curve"/>
      <point x="1186.858585858586" y="946.1010101010102"/>
      <point x="1203.6666666666665" y="1043.5454545454545"/>
      <point x="1203.6666666666665" y="1139.79797979798" type="curve" smooth="yes"/>
      <point x="1203.6666666666665" y="1500.5555555555557"/>
      <point x="998.7373737373737" y="1636.0"/>
      <point x="724.3636363636364" y="1636.0" type="curve" smooth="yes"/>
      <point x="375.44444444444446" y="1636.0"/>
      <point x="165.87878787878788" y="1428.6060606060605"/>
      <point x="165.87878787878788" y="1073.7171717171718" type="curve" smooth="yes"/>
      <point x="165.87878787878788" y="0.0" type="line"/>
      <point x="457.1212121212121" y="0.0" type="line"/>
      <point x="457.1212121212121" y="1070.5252525252527" type="line" smooth="yes"/>
      <point x="457.1212121212121" y="1317.7676767676767"/>
      <point x="551.4242424242424" y="1422.5757575757575"/>
      <point x="743.2121212121212" y="1422.5757575757575" type="curve" smooth="yes"/>
      <point x="885.7272727272727" y="1422.5757575757575"/>
      <point x="992.2424242424242" y="1352.828282828283"/>
      <point x="992.2424242424242" y="1142.010101010101" type="curve" smooth="yes"/>
      <point x="992.2424242424242" y="1076.7777777777778"/>
      <point x="983.4343434343434" y="1017.5454545454545"/>
      <point x="969.8181818181818" y="958.909090909091" type="curve"/>
      <point x="1143.8383838383838" y="1095.2323232323233" type="line"/>
      <point x="1107.8383838383838" y="1100.4242424242425"/>
      <point x="1042.5656565656566" y="1102.4242424242425"/>
      <point x="1009.5454545454545" y="1102.4242424242425" type="curve" smooth="yes"/>
      <point x="717.1313131313132" y="1102.4242424242425"/>
      <point x="568.4545454545455" y="972.8080808080808"/>
      <point x="568.4545454545455" y="768.0909090909091" type="curve" smooth="yes"/>
      <point x="568.4545454545455" y="593.5858585858587"/>
      <point x="655.1313131313132" y="495.3737373737374"/>
      <point x="818.2828282828283" y="455.2020202020202" type="curve" smooth="yes"/>
      <point x="958.020202020202" y="420.7777777777778" type="line" smooth="yes"/>
      <point x="1015.6464646464647" y="405.03030303030306"/>
      <point x="1044.5454545454545" y="379.32323232323233"/>
      <point x="1044.5454545454545" y="321.73737373737373" type="curve" smooth="yes"/>
      <point x="1044.5454545454545" y="252.95959595959593"/>
      <point x="997.090909090909" y="210.86868686868684"/>
      <point x="871.4242424242424" y="210.86868686868684" type="curve" smooth="yes"/>
      <point x="780.3636363636364" y="210.86868686868684"/>
      <point x="687.090909090909" y="223.67676767676764"/>
      <point x="600.4949494949494" y="248.86868686868684" type="curve"/>
      <point x="600.4949494949494" y="16.595959595959595" type="line"/>
      <point x="688.7474747474747" y="-8.808080808080808"/>
      <point x="783.0" y="-20.808080808080806"/>
    </contour>
    <contour>
      <point x="8.0" y="863.7676767676768" type="line"/>
      <point x="286.88888888888886" y="863.7676767676768" type="line"/>
      <point x="286.88888888888886" y="1094.040404040404" type="line"/>
      <point x="8.0" y="1094.040404040404" type="line"/>
    </contour>
  </outline>
</glyph>
<glyph name="aring" format="2">
  <advance width="961.5151515151515"/>
  <unicode hex="00E5"/>
  <anchor x="477.5656565656566" y="1200.0" name="_top"/>
  <anchor x="478.75757575757575" y="0.0" name="bottom"/>
  <anchor x="869.6363636363636" y="0.0" name="ogonek"/>
  <anchor x="477.5656565656566" y="1200.0" name="top"/>
  <outline>
    <contour>
      <point x="350.55555555555554" y="-20.21212121212121" type="curve" smooth="yes"/>
      <point x="456.13131313131316" y="-20.21212121212121"/>
      <point x="545.7070707070707" y="18.767676767676768"/>
      <point x="597.6666666666666" y="114.97979797979798" type="curve"/>
      <point x="611.2828282828283" y="114.97979797979798" type="line"/>
      <point x="632.7272727272727" y="0.0" type="line"/>
      <point x="869.6363636363636" y="0.0" type="line"/>
      <point x="869.6363636363636" y="678.1818181818182" type="line" smooth="yes"/>
      <point x="869.6363636363636" y="1000.7676767676768"/>
      <point x="733.3838383838383" y="1111.4444444444443"/>
      <point x="433.52525252525254" y="1111.4444444444443" type="curve" smooth="yes"/>
      <point x="333.86868686868684" y="1111.4444444444443"/>
      <point x="213.6161616161616" y="1096.8484848484848"/>
      <point x="121.95959595959596" y="1071.6565656565656" type="curve"/>
      <point x="121.95959595959596" y="837.979797979798" type="line"/>
      <point x="207.74747474747474" y="864.3636363636364"/>
      <point x="302.55555555555554" y="876.959595959596"/>
      <point x="378.17171717171715" y="876.959595959596" type="curve" smooth="yes"/>
      <point x="530.7272727272727" y="876.959595959596"/>
      <point x="586.8181818181819" y="831.5959595959596"/>
      <point x="586.8181818181819" y="691.4141414141415" type="curve" smooth="yes"/>
      <point x="586.8181818181819" y="265.52525252525254" type="line"/>
      <point x="546.7272727272727" y="213.55555555555554"/>
      <point x="496.2929292929293" y="197.4242424242424"/>
      <point x="452.030303030303" y="197.4242424242424" type="curve" smooth="yes"/>
      <point x="377.2121212121212" y="197.4242424242424"/>
      <point x="330.10101010101005" y="239.34343434343432"/>
      <point x="330.10101010101005" y="327.35353535353534" type="curve" smooth="yes"/>
      <point x="330.10101010101005" y="414.0"/>
      <point x="380.02020202020196" y="463.9191919191919"/>
      <point x="482.4141414141414" y="472.0909090909091" type="curve" smooth="yes"/>
      <point x="663.7070707070707" y="487.24242424242425" type="line"/>
      <point x="624.2222222222223" y="657.1414141414141" type="line"/>
      <point x="449.3131313131313" y="641.989898989899" type="line" smooth="yes"/>
      <point x="162.72727272727275" y="620.7979797979798"/>
      <point x="45.4949494949495" y="501.9494949494949"/>
      <point x="45.4949494949495" y="294.0808080808081" type="curve" smooth="yes"/>
      <point x="45.4949494949495" y="100.25252525252525"/>
      <point x="169.91919191919192" y="-20.21212121212121"/>
    </contour>
    <contour>
      <point x="477.5656565656566" y="1227.7070707070707" type="curve" smooth="yes"/>
      <point x="601.8181818181818" y="1227.7070707070707"/>
      <point x="692.4545454545455" y="1315.5353535353536"/>
      <point x="692.4545454545455" y="1436.979797979798" type="curve" smooth="yes"/>
      <point x="692.4545454545455" y="1558.4242424242425"/>
      <point x="601.8181818181818" y="1646.2525252525252"/>
      <point x="477.5656565656566" y="1646.2525252525252" type="curve" smooth="yes"/>
      <point x="353.3131313131313" y="1646.2525252525252"/>
      <point x="262.67676767676767" y="1558.4242424242425"/>
      <point x="262.67676767676767" y="1436.979797979798" type="curve" smooth="yes"/>
      <point x="262.67676767676767" y="1315.5353535353536"/>
      <point x="353.3131313131313" y="1227.7070707070707"/>
    </contour>
    <contour>
      <point x="477.5656565656566" y="1340.080808080808" type="curve" smooth="yes"/>
      <point x="422.6262626262626" y="1340.080808080808"/>
      <point x="384.07070707070704" y="1377.4444444444443"/>
      <point x="384.07070707070704" y="1436.979797979798" type="curve" smooth="yes"/>
      <point x="384.07070707070704" y="1496.5151515151515"/>
      <point x="422.6262626262626" y="1533.878787878788"/>
      <point x="477.5656565656566" y="1533.878787878788" type="curve" smooth="yes"/>
      <point x="532.5050505050505" y="1533.878787878788"/>
      <point x="571.060606060606" y="1496.5151515151515"/>
      <point x="571.060606060606" y="1436.979797979798" type="curve" smooth="yes"/>
      <point x="571.060606060606" y="1377.4444444444443"/>
      <point x="532.5050505050505" y="1340.080808080808"/>
    </contour>
  </outline>
</glyph>
